<?xml version="1.0" encoding="utf-8"?>
<!-- Generator: Adobe Illustrator 16.0.0, SVG Export Plug-In . SVG Version: 6.00 Build 0)  -->
<!DOCTYPE svg PUBLIC "-//W3C//DTD SVG 1.1//EN" "http://www.w3.org/Graphics/SVG/1.1/DTD/svg11.dtd">
<svg version="1.1" id="レイヤー_1" xmlns="http://www.w3.org/2000/svg" xmlns:xlink="http://www.w3.org/1999/xlink" x="0px"
	 y="0px" width="500px" height="320.001px" viewBox="-61.548 -13.583 500 320.001"
	 enable-background="new -61.548 -13.583 500 320.001" xml:space="preserve">
<g>
	<g>
		<path fill="none" stroke="#003366" stroke-miterlimit="10" d="M-10.113,283.555c58.582,42.723,108.475,12.071,157.378,6.69
			c35.916-3.954,85.125,10.128,171.542-9.382c83.284-18.803,170.377-152.915,82.396-232.776
			C261.866-78.391,27.836,20.875-26.86,81.728C-81.791,142.84-66.384,242.517-10.113,283.555z"/>
	</g>
	<g>
		<path fill="#FFFFFF" d="M9.744,269.841c52.723,38.45,97.627,10.863,141.64,6.022c32.324-3.56,76.613,9.113,154.388-8.444
			c74.955-16.924,153.339-137.623,74.156-209.499C254.524-55.911,43.897,33.429-5.329,88.197
			C-54.768,143.198-40.901,232.907,9.744,269.841z"/>
	</g>
</g>
</svg>
