<?xml version="1.0" encoding="utf-8"?>
<!-- Generator: Adobe Illustrator 16.0.0, SVG Export Plug-In . SVG Version: 6.00 Build 0)  -->
<!DOCTYPE svg PUBLIC "-//W3C//DTD SVG 1.1//EN" "http://www.w3.org/Graphics/SVG/1.1/DTD/svg11.dtd">
<svg version="1.1" id="レイヤー_1" xmlns="http://www.w3.org/2000/svg" xmlns:xlink="http://www.w3.org/1999/xlink" x="0px"
	 y="0px" width="402.904px" height="256.835px" viewBox="-210 -0.001 402.904 256.835"
	 enable-background="new -210 -0.001 402.904 256.835" xml:space="preserve">
<g>
	<path fill="#FFFFFF" d="M-159.948,232.535c44.667,32.437,82.71,9.166,119.996,5.08c27.386-3.003,64.904,7.688,130.795-7.125
		c63.5-14.273,129.907-116.096,62.825-176.728c-106.241-96.025-284.681-20.66-326.385,25.54
		C-214.601,125.7-202.853,201.376-159.948,232.535z"/>
</g>
<g>
	<path fill="none" stroke="#003366" stroke-miterlimit="10" d="M-168.476,238.4c47.183,34.264,87.368,9.682,126.756,5.366
		c28.927-3.171,68.562,8.122,138.163-7.524c67.078-15.08,137.225-122.636,66.363-186.684
		C50.581-51.877-137.911,27.733-181.964,76.537C-226.207,125.548-213.798,205.488-168.476,238.4z"/>
</g>
</svg>
