<?xml version="1.0" encoding="utf-8"?>
<!-- Generator: Adobe Illustrator 16.0.0, SVG Export Plug-In . SVG Version: 6.00 Build 0)  -->
<!DOCTYPE svg PUBLIC "-//W3C//DTD SVG 1.1//EN" "http://www.w3.org/Graphics/SVG/1.1/DTD/svg11.dtd">
<svg version="1.1" id="レイヤー_1" xmlns="http://www.w3.org/2000/svg" xmlns:xlink="http://www.w3.org/1999/xlink" x="0px"
	 y="0px" width="855.086px" height="744.375px" viewBox="0 0 855.086 744.375" enable-background="new 0 0 855.086 744.375"
	 xml:space="preserve">
<path fill="#E3DDCC" d="M855.086,744.375c-27.715-241.219-89.373-452.661-208.061-554.582C455.397,25.216,69.893-4.039,0,0.416
	c36.07,69.88,33.816,351.688,236.714,538.804C453.602,739.242,687.604,665.47,855.086,744.375z"/>
<g>
	<path fill="#332222" d="M218.635,297.665c0-1.76,0.677-2.979,2.437-4.604c4.197-3.655,6.634-8.936,7.041-15.976
		c0-0.677,1.489-0.677,1.625,0c1.896,13.539-0.677,25.589-7.04,25.589C220.26,302.674,218.635,300.508,218.635,297.665z
		 M237.184,265.848c0,2.708-1.76,3.926-5.28,3.926c-2.843,0-4.062-0.948-4.062-3.114c0-3.385,0.542-11.102,0.542-41.7
		c0-15.976,0-20.444-0.677-28.162c4.468,1.76,6.363,2.573,10.561,5.01h27.484c4.739-5.822,5.551-6.228,6.363-6.228
		c0.948,0,1.76,0.406,6.77,4.739c2.302,1.896,2.708,2.708,2.708,3.52c0,0.948-0.542,1.354-2.031,1.354h-20.444v16.247h5.416
		c3.52-5.009,4.603-5.551,5.28-5.551c0.812,0,1.76,0.542,5.958,4.604c1.354,1.218,2.031,2.301,2.031,2.979
		c0,0.948-0.406,1.354-1.76,1.354h-16.924v16.247h5.28c3.791-4.874,4.739-5.551,5.551-5.551s1.625,0.677,5.957,4.603
		c1.219,1.219,1.896,2.302,1.896,2.979c0,0.947-0.406,1.354-1.76,1.354h-16.924v16.924h6.77c3.656-4.468,4.333-5.009,5.145-5.009
		c0.948,0,1.625,0.542,5.687,4.197c1.896,1.896,2.438,2.708,2.438,3.52s-0.542,1.354-3.52,3.385
		c-1.083,18.684-2.979,29.245-5.416,36.285c-1.625,4.063-4.062,7.175-7.04,9.071c-1.76,1.083-4.739,2.167-7.176,2.167
		c-1.896,0-2.573-0.406-2.843-2.167c-0.948-3.926-1.896-4.874-11.373-7.717c-0.812-0.271-0.677-1.896,0.136-1.761
		c7.582,0.948,11.237,1.219,14.351,1.219c3.521,0,5.145-2.303,6.77-8.53c1.896-7.717,3.114-15.976,3.791-31.275h-29.65v1.081
		H237.184z M235.559,293.603c0.136-1.625,0.406-3.655,0.406-6.228c0-3.114-0.271-6.228-1.354-10.696
		c-0.135-0.542,0.812-0.812,1.219-0.406c4.739,5.01,6.77,10.155,6.77,14.081c0,2.572-1.219,6.634-4.468,6.634
		C236.506,296.988,235.423,295.905,235.559,293.603z M250.316,221.439v-16.247h-13.133v16.247H250.316z M250.316,241.071v-16.247
		h-13.133v16.247H250.316z M250.316,261.38v-16.924h-13.133v16.924H250.316z M247.203,288.323c-0.812-5.686-1.76-8.394-4.468-13.539
		c-0.271-0.542,0.677-1.083,1.083-0.812c6.228,4.333,9.749,9.071,9.749,13.133c0,2.843-1.76,5.28-3.926,5.28
		C248.286,292.385,247.608,291.302,247.203,288.323z M256.815,282.637c-1.219-4.197-3.114-6.905-6.77-10.561
		c-0.406-0.406,0.136-1.083,0.677-0.948c7.311,1.76,11.915,5.687,11.915,10.019c0,2.301-1.354,4.333-2.979,4.333
		C258.305,285.48,257.492,284.667,256.815,282.637z M289.58,229.563c-2.708,0-5.01,0.271-7.988,0.812l-1.354-5.145
		c3.52,0.677,6.093,0.948,9.071,0.948h38.857c5.28-6.634,6.228-7.311,7.176-7.311c0.948,0,1.76,0.677,7.311,5.416
		c2.437,2.031,2.979,3.114,2.979,3.927c0,0.948-0.542,1.354-1.76,1.354H313.68v32.9h12.185c5.009-6.499,5.957-7.176,6.77-7.176
		c0.948,0,1.896,0.677,7.311,5.28c2.302,2.166,2.843,3.114,2.843,3.926s-0.406,1.354-1.76,1.354H313.68v39.94h16.653
		c5.416-6.771,6.499-7.447,7.311-7.447s1.76,0.677,7.176,5.688c2.302,2.03,2.979,2.979,2.979,3.791c0,0.812-0.406,1.354-1.76,1.354
		h-62.28c-2.708,0-5.145,0.135-8.123,0.813l-1.354-5.146c3.385,0.677,6.363,0.948,9.207,0.948h20.309v-39.94h-11.644
		c-2.708,0-4.874,0.135-7.988,0.812l-1.354-5.145c3.385,0.677,6.092,0.948,9.071,0.948h11.915v-32.9H289.58L289.58,229.563z
		 M307.181,213.722c-2.031-6.228-5.957-12.591-11.102-16.382c-0.542-0.406,0.271-1.354,0.948-1.218
		c13.674,3.25,20.986,10.154,20.986,16.924c0,3.656-2.167,6.363-5.28,6.363C309.889,219.409,308.67,217.919,307.181,213.722z"/>
	<path fill="#332222" d="M417.661,213.722h-40.618c-3.655,0-6.228,0.271-10.154,0.812l-1.489-5.145
		c4.604,0.812,7.582,0.948,11.644,0.948h40.618c-0.136-10.831-0.271-14.216-0.812-18.142c13.268,1.489,14.623,2.031,14.623,3.926
		c0,1.218-0.813,2.031-4.468,3.52v10.696H464.1c5.822-6.77,6.77-7.446,7.582-7.446c0.947,0,2.166,0.406,8.26,5.416
		c2.979,2.302,3.385,3.385,3.385,4.197s-0.406,1.218-1.76,1.218h-54.563v14.216h28.295c3.928-4.604,4.74-5.145,5.553-5.145
		s1.623,0.542,6.229,4.333c2.166,1.76,2.572,2.573,2.572,3.385c0,1.219-0.541,1.896-3.928,4.333v9.478
		c0,18.143,0.678,26.672,0.678,29.245c0,2.979-1.76,4.333-6.094,4.333c-2.707,0-3.926-0.948-3.926-3.656v-2.302h-29.245
		c0,5.145,0.137,10.425,0.137,15.57h38.991c5.416-6.77,6.771-7.582,7.582-7.582c0.949,0,2.031,0.542,8.666,5.551
		c2.979,2.301,3.521,3.385,3.521,4.197c0,0.813-0.406,1.219-1.76,1.219H427.41c0.136,12.32,0.271,19.226,0.271,22.475
		c0,3.114-2.166,4.468-6.499,4.468c-3.114,0-4.333-1.083-4.333-3.926c0-2.979,0.271-9.613,0.406-23.017h-41.971
		c-3.521,0-6.228,0.271-10.29,0.812l-1.354-5.145c4.603,0.812,7.717,0.948,11.644,0.948h41.971
		c0.135-3.926,0.271-10.154,0.271-15.57h-27.349v2.843c0,3.25-1.76,4.468-5.822,4.468c-3.114,0-4.197-1.083-4.197-3.385
		c0-4.468,0.542-10.967,0.542-34.254c0-9.342-0.135-13.81-0.677-19.226c4.874,1.896,6.905,2.979,11.508,5.551h26.131
		L417.661,213.722L417.661,213.722z M390.176,231.323v16.518h27.484v-16.518H390.176z M417.525,268.556c0-4.062,0-7.988,0.136-17.33
		h-27.484v17.33H417.525z M427.003,247.841h29.38v-16.518h-29.38V247.841z M456.383,268.556v-17.33h-29.38
		c0,2.573,0,8.395,0.135,17.33H456.383z"/>
	<path fill="#332222" d="M521.372,234.167h-7.176c-2.439,0-4.469,0.135-7.582,0.812l-1.355-5.145
		c3.521,0.677,5.688,0.948,8.666,0.948h7.447v-14.893c0-10.29-0.137-16.518-0.678-21.527c13.268,1.354,14.893,2.302,14.893,3.791
		c0,0.948-1.082,2.031-4.604,3.52v29.109h4.334c4.467-5.687,5.414-6.363,6.227-6.363c0.949,0,1.896,0.677,6.635,4.739
		c1.896,1.76,2.572,2.708,2.572,3.52c0,0.813-0.406,1.489-1.76,1.489h-18.008v36.556c5.822-2.437,11.51-5.145,16.518-7.717
		c0.543-0.271,1.354,1.083,0.813,1.489c-9.205,7.988-19.902,15.57-34.254,23.287c-0.271,4.468-0.947,5.822-2.438,5.822
		c-1.355,0-2.301-2.031-7.717-13.945c2.842-0.406,5.01-0.948,7.986-1.76c2.98-0.948,6.094-2.167,9.479-3.385v-40.347H521.372z
		 M610.729,266.796c3.656-4.062,4.469-4.604,5.279-4.604c0.813,0,1.625,0.542,6.094,4.062c1.896,1.625,2.438,2.572,2.438,3.385
		c0,0.812-0.541,1.354-3.656,3.52c-0.947,14.758-2.436,25.317-5.279,32.088c-1.625,3.926-3.654,6.634-6.229,8.123
		c-2.707,1.625-5.688,2.167-8.936,2.167c-1.354,0-1.762-0.542-2.166-2.572c-0.678-3.25-2.707-5.01-12.592-7.717
		c-0.813-0.271-0.813-2.031,0-1.896c8.26,0.813,12.455,1.219,15.842,1.219c3.385,0,5.145-1.761,6.633-7.717
		c1.896-6.499,2.844-14.216,3.521-26.672h-8.395c-9.072,22.204-28.434,38.18-52.805,45.897c-0.811,0.271-1.488-1.354-0.811-1.76
		c19.359-9.884,35.742-26.13,43.459-44.137h-9.748c-8.664,15.435-24.912,27.891-44.408,34.253c-0.811,0.271-1.488-1.219-0.811-1.625
		c16.246-8.395,27.891-19.902,34.66-32.628H562.53c-8.395,8.124-18.143,14.081-29.107,18.278c-0.813,0.271-1.625-1.354-0.949-1.76
		c12.051-7.311,21.664-16.518,27.352-25.454c1.623-2.437,2.842-5.009,3.789-7.582h-9.342c-3.385,0-6.229,0.136-10.154,0.812
		l-1.354-5.145c4.332,0.677,7.582,0.948,11.373,0.948h57.404c5.281-6.363,6.229-7.04,7.041-7.04c0.947,0,2.031,0.677,7.582,5.416
		c2.301,1.896,2.844,2.843,2.844,3.656c0,0.948-0.406,1.354-1.76,1.354h-58.084c5.688,1.76,7.311,2.573,7.311,3.521
		c0,1.218-1.354,1.896-4.736,2.166c-1.896,2.573-3.928,5.145-5.957,7.447h44.947V266.796z M566.186,239.988
		c0,2.843-2.031,4.197-5.959,4.197c-2.57,0-4.061-0.812-4.061-3.25s0.541-8.259,0.541-25.454c0-10.154-0.135-13.674-0.676-20.58
		c4.467,1.896,6.498,2.843,11.102,5.416h32.764c4.063-4.333,4.74-4.875,5.553-4.875c1.084,0,1.895,0.542,6.229,3.927
		c2.031,1.625,2.572,2.572,2.572,3.385c0,1.083-0.678,1.896-3.791,4.062v7.582c0,14.622,0.406,21.933,0.406,23.964
		c0,2.708-1.762,4.062-5.822,4.062c-2.979,0-4.061-1.083-4.061-3.52v-1.354h-34.797V239.988L566.186,239.988z M600.979,203.704
		h-34.795v13.404h34.795V203.704z M566.186,234.167h34.795v-13.674h-34.795V234.167z"/>
	<path fill="#332222" d="M369.664,514.292c0,14.893-10.966,27.078-28.161,27.078c-16.924,0-28.567-12.051-28.567-26.131
		c0-11.373,7.853-19.227,20.173-25.453c-12.185-6.5-17.465-13.539-17.465-24.912c0-11.645,11.373-22.881,25.86-22.881
		c14.622,0,25.454,9.477,25.454,21.391c0,10.563-5.551,16.52-17.06,22.068C363.842,492.628,369.664,500.753,369.664,514.292z
		 M324.85,515.375c0,12.727,7.041,21.799,16.789,21.799c10.154,0,17.06-8.666,17.06-21.121c0-9.885-5.28-16.111-21.392-24.1
		C328.099,497.097,324.85,505.357,324.85,515.375z M356.125,463.521c0-10.154-6.363-17.33-14.622-17.33
		c-8.936,0-15.164,7.311-15.164,16.652c0,7.582,2.843,12.729,19.226,20.174C352.876,479.361,356.125,472.32,356.125,463.521z"/>
	<path fill="#332222" d="M449.952,474.757c19.9-0.135,40.076-0.676,59.979-2.301c-5.279-7.719-12.186-14.895-20.443-20.715
		c-0.678-0.406,0-2.031,0.811-1.76c22.34,8.527,36.285,20.578,36.285,30.057c0,3.52-2.301,6.363-5.688,6.363
		c-2.57,0-3.654-1.084-8.395-10.021l-0.813-1.217c-29.648,5.551-44.406,7.039-84.212,9.748c-1.219,3.385-1.896,4.197-3.113,4.197
		c-1.761,0-2.708-2.303-4.739-15.301c5.01,0.541,11.508,0.813,21.663,0.947c5.822-9.207,10.561-20.309,14.486-31.004
		c1.762-5.416,2.98-10.291,3.387-14.217c12.59,3.52,15.975,5.01,15.975,7.041c0,1.625-0.947,2.438-5.551,3.248
		c-7.445,14.082-14.352,24.506-24.234,34.932h4.604V474.757z M445.077,548.681c0,2.98-1.76,4.604-6.363,4.604
		c-2.979,0-4.332-1.354-4.332-4.063c0-3.113,0.541-11.777,0.541-30.732c0-12.049,0-15.705-0.541-23.693
		c5.146,1.896,7.313,2.98,12.051,5.822h56.322c4.467-5.146,5.145-5.688,6.092-5.688s1.625,0.541,6.635,4.873
		c2.166,2.031,2.707,2.846,2.707,3.656c0,1.219-0.676,2.031-4.061,4.063v9.885c0,18.547,0.541,27.891,0.541,30.598
		c0,3.113-2.031,4.604-6.498,4.604c-3.115,0-4.334-1.219-4.334-3.926v-5.688h-58.76V548.681L445.077,548.681z M503.836,504.001
		h-58.76v35.609h58.76V504.001z"/>
</g>
</svg>
