<?xml version="1.0" encoding="utf-8"?>
<!-- Generator: Adobe Illustrator 16.0.0, SVG Export Plug-In . SVG Version: 6.00 Build 0)  -->
<!DOCTYPE svg PUBLIC "-//W3C//DTD SVG 1.1//EN" "http://www.w3.org/Graphics/SVG/1.1/DTD/svg11.dtd">
<svg version="1.1" id="レイヤー_1" xmlns="http://www.w3.org/2000/svg" xmlns:xlink="http://www.w3.org/1999/xlink" x="0px"
	 y="0px" width="908.2px" height="790.609px" viewBox="0 0 908.2 790.609" enable-background="new 0 0 908.2 790.609"
	 xml:space="preserve">
<path fill="#FFFFC2" stroke="#FFFFCC" stroke-miterlimit="10" d="M908.2,0c-29.439,256.206-94.92,480.781-220.98,589.029
	C483.678,763.833,74.229,794.896,0,790.167c38.31-74.219,35.913-373.535,251.419-572.27C481.782,5.453,730.311,83.806,908.2,0z"/>
<g>
	<path fill="#332222" d="M257.001,323.674c1.442-0.309,2.473-0.824,3.194-1.545c0.927-0.824,2.164-1.03,4.019-1.03
		c1.958,0.104,4.328,0.516,5.771,1.236c1.545,0.721,2.473,1.855,2.473,3.091c0,1.855-1.236,2.885-3.812,2.885
		c-1.751,0-4.328,0-7.11,0.31c-4.74,0.515-10.098,1.339-19.887,3.503c1.649,9.171,3.606,18.96,5.152,26.379
		c0.412,1.752,0.927,4.02,0.927,5.358c0,2.061-1.649,3.399-3.812,3.399c-2.164,0.104-3.297-1.34-3.709-4.431
		c-1.134-8.243-3.091-20.299-4.637-29.161c-6.698,1.546-12.262,2.988-17.517,4.74c-2.988,1.029-4.328,1.545-4.843,2.267
		c-1.03,1.133-1.751,1.442-3.091,1.442c-2.37,0-6.698-2.474-9.377-5.667c-0.722-0.927-1.237-1.958-1.237-2.886
		c0-0.721,0.309-1.235,0.722-1.235c0.309,0,1.03,0.412,1.545,0.721c2.576,1.443,4.225,1.958,5.771,1.958
		c1.545,0,3.709-0.515,6.595-1.236c6.183-1.546,13.086-3.193,20.608-5.049c-0.824-5.151-1.752-9.995-2.679-15.044
		c-4.225,1.134-7.831,2.062-11.025,2.988c-2.164,0.619-4.328,0.928-5.358,1.649c-0.824,0.617-1.545,0.823-2.576,0.823
		c-1.648,0-3.812-1.029-6.079-3.193c-2.473-2.268-3.606-3.709-3.606-4.844c0-0.928,0.412-1.442,0.824-1.442
		c0.515,0,0.824,0.206,1.442,0.618c2.267,1.546,4.122,2.37,6.801,2.37c1.546,0,3.606-0.412,6.08-0.928
		c3.503-0.721,8.244-1.648,12.571-2.781c-1.339-6.904-2.164-11.129-3.091-14.941c-0.309-1.236-0.824-2.164-1.546-2.885
		c-0.824-0.722-2.576-0.928-5.152-1.031c-0.721,0-1.133-0.309-1.133-0.824c0-0.618,0.824-1.339,1.442-1.752
		c1.03-0.618,2.473-1.236,4.019-1.236c2.679,0,5.152,0.412,7.935,1.546c2.473,0.927,3.709,2.164,3.709,3.606
		c0,0.824-0.412,1.648-0.927,2.164c-0.413,0.515-0.825,1.237-0.722,2.782c0.103,2.576,0.618,5.977,1.546,10.922
		c4.431-1.03,8.758-2.164,12.571-3.297c0.618-0.207,1.545-0.619,2.473-1.443c1.031-0.824,2.576-1.441,3.812-1.441
		c1.752,0,3.813,0.205,5.358,0.721c1.443,0.515,2.37,1.647,2.37,2.679c0,1.339-0.618,2.164-1.855,2.37
		c-1.648,0.309-3.503,0.722-5.874,1.134c-5.255,1.133-10.922,2.474-17.929,4.122c0.824,5.152,1.752,9.893,2.679,15.25
		C247.212,326.044,251.849,324.911,257.001,323.674z"/>
	<path fill="#332222" d="M307.183,315.843c3.194,1.649,5.152,3.503,6.904,5.358c2.061,2.164,3.194,4.637,3.194,6.698
		c0,2.885-1.648,4.945-3.709,4.945c-1.649,0-2.988-0.927-3.606-4.225c-0.309-1.752-1.03-4.02-1.855-6.08
		c-0.721-1.751-1.648-3.297-2.782-4.74c-0.412-0.515-0.721-0.928-0.721-1.236c0-0.722,0.515-1.134,1.031-1.134
		C306.152,315.431,306.667,315.534,307.183,315.843z M356.437,314.504c2.988,1.958,3.812,2.885,3.812,4.534
		c0,1.03-0.515,1.546-1.854,2.37c-0.825,0.515-1.34,1.029-2.164,2.473c-5.255,9.687-9.995,17.002-17.002,24.524
		c-7.213,7.831-15.766,14.528-25.143,18.65c-0.824,0.412-1.442,0.618-1.854,0.618c-0.825,0-1.34-0.515-1.34-1.442
		c0-0.618,0.309-0.928,0.927-1.34c9.789-6.491,17.415-13.396,24.318-22.051c5.461-6.903,9.583-13.188,12.88-20.607
		c0.927-2.062,1.442-3.298,1.442-4.328c0-0.929-0.412-1.443-0.927-1.855c-1.133-0.927-2.679-1.751-4.225-2.37
		c-0.413-0.206-0.619-0.618-0.619-0.823c0-0.31,0.619-0.722,1.031-0.928c0.618-0.309,2.061-0.412,2.885-0.412
		C350.46,311.516,353.964,312.855,356.437,314.504z M325.421,311.516c2.988,1.958,4.843,3.709,6.698,5.978
		c1.648,2.267,2.576,4.74,2.576,6.801c-0.103,2.885-1.545,4.74-3.916,4.843c-2.164,0-3.091-0.927-3.503-4.328
		c-0.309-2.061-0.824-4.122-1.442-6.08c-0.722-1.958-1.649-3.709-2.782-5.357c-0.412-0.618-0.618-0.927-0.618-1.545
		c0-0.516,0.515-1.03,1.236-1.03C324.185,310.794,324.803,311.104,325.421,311.516z"/>
	<path fill="#332222" d="M464.116,344.18c3.605,3.503,6.389,6.904,6.389,9.687s-1.752,4.328-4.225,4.328
		c-1.441,0-2.781-0.928-4.432-3.194c-6.801-9.789-14.322-16.899-24.42-22.875c-6.183,6.801-12.88,12.674-20.093,17.414
		c-6.904,4.637-14.117,8.347-20.093,10.51c-1.03,0.413-2.061,0.723-2.782,0.723c-0.618,0-1.133-0.723-1.133-1.237
		c0-0.516,0.412-1.133,1.03-1.442c12.365-6.801,23.082-14.323,33.386-25.246c7.625-7.934,13.292-15.559,19.475-26.173
		c0.31-0.515,0.412-0.721,0.412-0.927s-0.206-0.206-0.824-0.206c-4.739,0.309-16.486,1.854-26.894,3.916
		c-2.061,0.412-3.4,0.824-4.225,1.34c-0.928,0.515-1.546,1.03-2.988,1.03c-1.752,0-4.225-1.752-6.389-4.74
		c-1.958-2.679-2.782-4.122-2.782-5.873c0-1.031,0.515-2.164,1.03-2.164c0.412,0,1.134,0.618,1.752,1.236
		c2.679,2.576,4.534,3.916,6.801,3.916c1.648,0,5.152-0.311,8.14-0.619c8.038-0.824,16.59-1.648,24.112-2.679
		c1.751-0.207,2.576-0.723,3.503-1.546c0.721-0.722,1.441-1.134,2.473-1.134c1.546,0,2.679,0.516,4.843,2.474
		c2.781,2.576,3.605,3.71,3.605,4.945c0,1.03-0.516,1.442-2.574,2.268c-1.443,0.515-3.092,1.854-4.329,3.812
		c-2.782,4.432-7.832,11.645-13.188,17.93C449.175,333.566,458.038,338.307,464.116,344.18z M458.344,286.682
		c2.783,0.824,5.875,2.37,8.965,5.152c2.475,2.164,3.916,4.019,3.916,6.183c0,1.648-1.029,3.092-2.885,3.092
		c-1.34,0-2.473-0.929-3.4-2.782c-1.545-3.091-5.666-7.625-8.654-9.892c-0.412-0.309-0.723-0.721-0.723-1.031
		c0-0.515,0.412-1.03,1.135-1.03C457.315,286.373,458.038,286.579,458.344,286.682z M467.309,279.778
		c2.783,0.721,5.359,1.958,8.244,4.019c2.475,1.752,4.74,4.122,4.74,6.492c0,2.061-1.236,3.297-2.783,3.297
		c-1.34,0-2.164-0.515-3.297-2.473c-1.854-3.194-5.977-7.625-9.479-9.686c-0.412-0.206-0.723-0.619-0.723-1.031
		c0-0.515,0.412-1.03,1.031-1.03C465.557,279.366,466.381,279.572,467.309,279.778z"/>
	<path fill="#332222" d="M522.436,311.516c-1.133-0.927-2.369-1.546-3.914-2.164c-0.516-0.205-0.824-0.515-0.824-0.927
		c0-0.824,1.854-1.442,3.398-1.442c2.164,0,4.846,1.134,8.348,3.503c2.164,1.442,3.711,3.091,3.711,4.637
		c0,0.927-0.412,1.751-1.34,2.576c-0.93,0.927-1.236,1.854-1.754,3.503c-2.473,7.728-5.563,14.323-9.582,19.99
		c-4.533,6.285-10.922,13.086-17.93,17.208c-0.617,0.309-1.236,0.721-1.854,0.721c-0.516,0-1.236-0.721-1.236-1.339
		c0-0.516,0.205-0.824,1.029-1.546c5.771-5.05,10.406-10.923,14.322-17.312c3.916-6.595,6.391-12.777,7.832-18.032
		c0.723-2.679,1.135-4.739,1.135-6.286C523.778,313.267,523.366,312.34,522.436,311.516z M546.549,299.872
		c2.576,1.546,4.02,2.782,4.02,4.637c0,0.927-0.412,1.854-1.135,2.576c-0.412,0.413-0.928,1.752-0.928,3.194
		c-0.309,10.717-0.412,19.989-0.516,31.634c0,0.824,0.311,1.236,0.516,1.236c0.311,0,0.824-0.104,1.752-0.516
		c13.086-5.667,24.111-12.88,36.064-22.359c0.721-0.618,1.133-1.03,1.752-1.03c0.516,0,1.34,0.824,1.34,1.442
		c0,0.412-0.412,1.03-0.721,1.34c-9.068,10.612-20.609,19.166-36.479,28.131c-1.031,0.618-1.547,1.339-2.061,2.164
		c-0.619,1.133-1.135,1.546-2.164,1.546c-1.443,0-2.783-0.928-4.639-3.194c-1.441-1.854-2.473-3.503-2.473-5.049
		c0-0.515,0.104-1.133,0.309-1.751c0.207-0.722,0.518-2.062,0.518-3.916c0.102-9.376,0.102-19.681,0-30.088
		c0-3.709,0-5.255-0.723-6.698c-0.617-1.339-2.268-2.576-4.945-3.503c-0.619-0.206-1.031-0.412-1.031-0.927
		c0-1.03,2.576-1.958,4.328-1.958C540.262,296.78,543.149,297.811,546.549,299.872z"/>
	<path fill="#332222" d="M620.635,333.669c-2.061,0-4.533-2.267-7.213-5.976c-1.34-1.855-2.369-3.813-2.369-5.358
		c0-1.339,0.205-2.576,0.926-2.576c0.518,0,0.93,0.516,1.65,1.237c3.605,3.503,5.049,4.225,7.418,4.225
		c2.164,0,6.08-0.206,13.086-0.618c14.014-0.823,27.926-1.34,36.686-1.648c3.502-0.104,5.15-0.618,6.283-1.236
		c0.824-0.412,2.063-0.721,3.195-0.721c1.029,0,2.473,0.309,4.225,0.927c4.844,1.855,5.461,2.988,5.461,4.843
		c0,2.062-1.34,3.092-3.605,3.092c-3.916,0-9.48-0.412-14.529-0.412c-9.17,0-27.408,0.618-40.908,1.752
		c-3.297,0.309-6.078,0.927-7.107,1.545C623.11,333.257,622.079,333.669,620.635,333.669z"/>
	<path fill="#332222" d="M764.999,329.96c-1.34-1.545-1.648-1.958-1.648-2.576c0-0.619,0.516-1.134,1.135-1.134
		c0.721,0,1.34,0.309,1.957,0.721c8.346,5.358,13.703,11.129,18.031,17.519c2.475,3.812,3.297,6.698,3.297,8.86
		c0,3.092-1.955,4.946-4.326,4.946c-2.268,0-3.4-1.545-4.225-3.916c-1.031-2.679-1.648-5.151-2.783-7.315
		c-16.691,3.399-33.797,6.491-49.975,8.964c-1.752,0.309-2.887,0.722-3.504,1.236c-0.619,0.516-1.34,0.928-2.371,0.928
		c-1.338,0-3.605-1.855-4.738-3.813c-1.34-1.958-2.887-5.255-2.887-7.007c0-1.546,0.824-2.782,1.648-2.782
		c0.617,0,0.824,0.618,1.547,1.545c1.752,2.164,2.576,2.576,5.15,2.576c1.443,0,3.092-0.103,4.947-0.309
		c1.545-2.782,2.576-4.946,3.709-7.419c7.213-14.735,12.57-27.41,15.766-36.786c0.824-2.576,1.236-4.432,1.236-5.564
		c0-1.03-0.516-2.061-1.545-2.782c-1.031-0.824-2.475-1.442-3.711-2.061c-0.617-0.309-0.928-0.515-0.928-1.133
		c0-1.03,2.68-1.751,4.02-1.751c2.164,0,5.461,1.339,8.553,3.194c3.193,1.958,5.051,3.813,5.051,5.771s-1.031,2.576-2.164,3.297
		c-1.031,0.618-2.475,2.576-4.432,6.492c-6.904,13.911-13.293,26.275-20.402,38.538c14.939-1.133,27.615-2.37,43.174-4.74
		C771.592,337.895,768.399,333.669,764.999,329.96z"/>
	<path fill="#332222" d="M430.42,509.253c-1.031,25.141-11.438,37.713-37.302,43.482c-0.721,0.207-1.133-1.236-0.515-1.547
		c21.433-9.17,28.955-19.988,29.779-41.938H405.38c-2.782,0-4.843,0.207-8.14,0.619l-1.031-3.916c3.71,0.617,6.08,0.721,9.171,0.721
		h62.65c4.844-5.461,5.564-6.08,6.184-6.08c0.721,0,1.441,0.619,6.285,4.535c2.369,1.854,2.885,2.576,2.885,3.193
		c0,0.619-0.412,0.928-1.441,0.928h-29.78v29.986c0,3.914,2.061,4.738,11.026,4.738c6.801,0,10.098-0.309,12.057-1.959
		c2.061-1.75,3.504-6.49,5.873-14.32c0.104-0.518,1.133-0.311,1.133,0.205c-0.205,3.605-0.617,9.479-0.617,11.438
		c0,1.236,0.205,1.648,1.854,2.268c1.236,0.516,1.752,1.443,1.752,2.781c0,2.371-1.957,4.227-6.389,5.256
		c-3.092,0.824-7.832,1.34-15.766,1.34c-14.736,0-18.857-2.061-18.857-11.025c0-1.854,0.206-4.326,0.206-12.262v-18.443H430.42
		L430.42,509.253z M406.515,476.486c-0.413,7.42-3.813,12.057-8.141,12.057c-2.576,0-4.431-1.855-4.431-4.328
		c0-1.854,0.721-2.885,2.885-4.225c4.946-2.887,6.801-5.668,7.316-12.16c0-0.617,1.339-0.617,1.442,0
		c0.515,2.164,0.825,4.225,0.928,6.08h27.615v-7.006c0-1.959-0.103-4.434-0.412-7.627c10.613,1.135,11.851,1.959,11.851,3.193
		c0,0.826-0.928,1.752-3.709,2.887v8.553h30.089c3.193-3.916,3.811-4.432,4.43-4.432c0.824,0,1.648,0.723,5.977,4.639
		c2.164,2.164,2.576,2.781,2.576,3.502c0,1.441-1.029,1.959-4.533,2.063c-1.135,0-1.752,0.309-2.369,1.029
		c-2.063,2.061-4.432,3.916-7.523,5.771c-0.309,0.205-1.029-0.104-0.824-0.516c1.443-2.68,2.682-6.08,3.4-9.479h-66.565V476.486z
		 M410.945,489.675c3.297,0.516,5.358,0.721,8.346,0.721h35.86c4.43-5.256,5.254-5.668,5.873-5.668c0.723,0,1.441,0.412,5.873,4.121
		c2.063,1.65,2.475,2.475,2.475,3.094c0,0.721-0.311,1.029-1.34,1.029h-48.74c-2.679,0-4.431,0.104-7.316,0.516L410.945,489.675z"/>
	<path fill="#332222" d="M516.874,511.109c0,24.42,0.102,35.857,0.102,39.361c0,2.369-1.441,3.502-4.533,3.502
		c-2.473,0-3.297-0.822-3.297-3.09c0-2.164,0.311-9.48,0.516-33.695c0-6.801,0.104-13.703,0.104-20.607
		c-3.297,4.842-6.902,9.273-10.924,13.395c-0.514,0.518-1.646-0.412-1.236-1.029c7.42-10.818,13.705-24.523,17.105-36.58
		c1.34-4.945,2.371-9.688,2.783-14.117c8.965,2.371,11.23,3.4,11.23,4.535c0,1.133-0.617,1.545-4.123,2.266
		c-2.781,9.377-6.594,18.137-11.334,26.07c5.668,0.928,6.596,1.34,6.596,2.473c0,0.723-0.516,1.34-2.988,2.475V511.109
		L516.874,511.109z M534.389,493.488c0,12.777-0.928,21.434-2.988,29.883c-2.061,8.758-5.461,16.074-10.717,24.215
		c-0.309,0.516-1.545-0.104-1.34-0.721c3.299-8.965,5.359-16.076,6.391-24.422c1.029-7.832,1.441-15.973,1.441-26.791
		c0-6.285,0-7.832-0.516-12.365c3.709,1.545,5.256,2.268,8.965,4.328h45.236c4.225-4.74,4.842-5.152,5.563-5.152
		s1.34,0.412,5.668,4.02c1.854,1.545,2.268,2.061,2.268,2.781c0,0.619-0.412,0.928-1.443,0.928h-58.527V493.488z M572.208,474.322
		c0.102,4.02,0.102,6.184,0.102,7.008c0,1.957-1.441,2.988-4.121,2.988c-2.162,0-3.193-0.824-3.193-2.475
		c0-0.721,0.205-2.988,0.412-7.521h-14.016c0.105,4.02,0.105,6.184,0.105,7.008c0,1.957-1.34,2.988-4.123,2.988
		c-2.164,0-3.193-0.824-3.193-2.475c0-0.721,0.205-2.988,0.412-7.521h-9.377c-2.473,0-4.328,0.207-7.314,0.619l-1.031-3.916
		c3.297,0.516,5.357,0.721,8.346,0.721h9.377v-1.854c0-6.389,0-7.729-0.514-11.336c8.861,0.928,10.303,1.443,10.303,2.68
		c0,0.723-0.617,1.34-2.988,2.268v8.244h14.016v-1.752c0-5.668,0-7.42-0.516-11.025c8.861,1.029,10.305,1.441,10.305,2.68
		c0,0.822-0.619,1.441-2.988,2.268v7.83h9.48c3.605-4.533,4.326-5.049,5.049-5.049c0.721,0,1.441,0.516,5.357,3.916
		c1.648,1.441,2.164,2.061,2.164,2.68c0,0.721-0.412,1.029-1.34,1.029h-20.713V474.322z M565.819,529.14
		c0.102,9.17,0.205,16.59,0.205,19.166c0,2.473-1.236,3.4-4.328,3.4c-2.268,0-2.885-0.619-2.885-2.885
		c0-1.34,0.309-6.596,0.309-16.693v-2.988h-13.809c0,11.85,0.105,17.313,0.105,21.227c0,2.475-1.238,3.504-4.328,3.504
		c-2.164,0-2.988-0.721-2.988-2.576c0-4.842,0.412-12.158,0.412-34.209c0-13.396-0.104-17.93-0.412-22.465
		c3.297,1.443,4.844,2.164,8.141,3.916h33.18c2.885-3.193,3.4-3.605,4.02-3.605c0.721,0,1.236,0.412,4.533,3.092
		c1.443,1.34,1.855,1.957,1.855,2.574c0,0.93-0.412,1.342-2.475,2.783v11.129c0,22.256,0.205,26.584,0.205,30.088
		c0,3.193-0.822,4.945-1.957,6.285c-1.34,1.443-3.916,2.371-6.389,2.371c-1.133,0-1.441-0.412-1.648-2.063
		c-0.516-3.092-1.854-4.121-7.213-5.461c-0.617-0.104-0.617-1.547,0-1.441c4.02,0.412,6.697,0.514,8.449,0.514
		c1.236,0,1.648-0.412,1.648-1.545V529.14H565.819z M545.311,501.113v11.438h13.809v-11.438H545.311L545.311,501.113z
		 M559.12,515.126h-13.809v11.438h13.809V515.126z M565.819,512.55h14.631v-11.438h-14.631V512.55z M580.45,526.564v-11.438h-14.631
		v11.438H580.45z"/>
</g>
</svg>
