<?xml version="1.0" encoding="utf-8"?>
<!-- Generator: Adobe Illustrator 16.0.0, SVG Export Plug-In . SVG Version: 6.00 Build 0)  -->
<!DOCTYPE svg PUBLIC "-//W3C//DTD SVG 1.1//EN" "http://www.w3.org/Graphics/SVG/1.1/DTD/svg11.dtd">
<svg version="1.1" id="レイヤー_1" xmlns="http://www.w3.org/2000/svg" xmlns:xlink="http://www.w3.org/1999/xlink" x="0px"
	 y="0px" width="1247.359px" height="124.652px" viewBox="0 -1.477 1247.359 124.652"
	 enable-background="new 0 -1.477 1247.359 124.652" xml:space="preserve">
<g>
	<path fill="#003366" d="M202.193,70.425c-6.599,13.586-8.928,26.268-11.516,36.102c-0.776,2.719-2.458,4.012-4.27,4.012
		c-1.813,0-3.623-1.424-4.141-4.143c-1.553-7.375-3.752-15.785-3.752-26.523v-2.979c0-9.574,1.423-20.573,4.011-30.277
		c2.458-9.059,4.399-15.527,4.399-20.703v-0.906c0-5.305-1.423-8.152-3.882-10.093c-0.518-0.389-0.776-0.906-0.776-1.554
		c0-1.034,0.906-2.199,2.329-2.199c0.388,0,1.035,0.129,1.553,0.388c2.976,1.682,7.246,5.952,7.246,13.975v0.129
		c0,5.823-2.2,16.692-4.399,25.361c-2.07,7.894-3.494,15.917-3.494,25.362c0,3.883,0.259,7.893,0.776,12.293
		c0.129,1.424,0.776,2.328,1.294,2.328c0.388,0,0.776-0.389,1.294-1.684c1.812-5.176,5.305-15.01,9.187-20.572
		c0.647-0.904,1.423-1.424,2.2-1.424c1.165,0,2.07,0.906,2.07,2.07C202.323,69.777,202.323,70.165,202.193,70.425z M278.795,101.868
		c-0.776,0-1.553-0.26-2.329-0.777c-3.623-2.846-9.963-6.469-16.562-9.057c-2.2-0.906-4.27-1.684-6.34-2.201
		c-2.976,11.387-10.869,21.352-24.197,21.352h-1.682c-13.716,0-18.374-6.857-18.374-12.164v-0.518
		c0-5.564,5.176-14.363,17.339-16.563c4.141-0.775,7.893-1.164,11.516-1.164c3.235,0,6.34,0.26,9.575,0.775
		c0.906-7.246,1.553-13.197,1.553-20.055c0-1.554-0.129-3.105-0.129-4.658c-4.917,1.165-9.705,1.682-13.975,1.94
		c-0.518,0-1.035,0.13-1.553,0.13c-8.928-0.13-15.916-4.658-15.916-12.034c0-2.07,0.647-4.399,1.812-6.858
		c4.399-8.799,10.74-14.88,17.468-19.539c-7.893,1.683-15.786,3.494-21.479,5.306c-0.259,0.129-0.518,0.129-0.776,0.129
		c-1.294,0-2.2-1.035-2.2-2.2c0-0.906,0.518-1.813,1.682-2.2c13.716-5.176,30.278-9.575,49.688-13.716
		c0.388-0.129,0.776-0.129,1.165-0.129c2.329,0,3.752,1.812,3.882,3.752c0,1.682-1.423,3.623-4.27,4.011
		c-4.917,0.776-11.904,1.941-19.409,3.364c0.129,0,0.129,0.129,0.129,0.129c0,0.906-0.518,1.682-1.423,2.588
		c-6.599,5.823-12.681,11.257-17.339,17.727c-1.423,1.941-2.458,4.399-2.458,6.6c0,3.364,2.329,6.082,9.446,6.082h2.329
		c4.917,0,9.187-1.035,12.81-1.941c-0.518-9.315-1.423-13.975-1.423-18.374v-0.388c0-2.717,1.812-4.141,3.752-4.141
		c1.682,0,3.494,1.164,3.752,3.493c0.259,3.752,0.647,10.481,1.165,17.34c6.082-2.2,10.869-5.047,15.786-8.022
		c0.906-0.518,1.812-0.776,2.588-0.776c2.07,0,3.235,1.813,3.235,3.752c0,1.424-0.647,2.848-2.2,3.752
		c-6.599,3.753-13.069,6.471-19.15,8.281c0.129,1.683,0.129,3.364,0.129,5.306c0,6.469-0.388,14.491-1.553,22.901
		c0.647,0.26,1.423,0.391,2.2,0.648c8.669,2.328,19.927,8.15,23.809,11.387c1.165,0.904,1.682,1.939,1.682,2.975
		C282.547,100.185,280.865,101.868,278.795,101.868z M246.446,88.281c-2.588,0-5.176-0.258-7.764-0.258
		c-2.847,0-5.564,0.258-8.281,0.646c-9.446,1.293-14.622,5.176-14.622,9.963v0.129c0,3.883,3.364,6.859,10.481,6.859
		c0.906,0,1.813,0,2.717-0.131c10.093-0.904,15.139-7.764,17.468-16.82L246.446,88.281L246.446,88.281z"/>
	<path fill="#003366" d="M395.516,93.974c-11.128,9.316-21.738,12.939-31.313,14.492c-0.259,0.131-0.518,0.131-0.776,0.131
		c-1.812,0-2.847-1.166-2.847-2.588c0-1.295,1.035-2.588,3.105-2.977c7.375-1.553,17.209-5.564,27.302-14.234
		c9.187-7.893,12.681-17.209,12.681-29.889v-3.752c0-14.492-12.163-27.82-27.432-30.408c-3.882-0.647-7.764-1.035-11.646-1.035
		c-1.941,0-4.011,0.129-5.952,0.388c1.812,2.329,4.141,6.082,4.141,11.387c0,2.329-0.518,5.177-1.812,8.152
		c-8.152,19.668-17.598,32.996-24.714,41.406c-4.011,4.658-8.799,7.635-13.586,7.635c-3.882,0-7.764-2.07-10.999-6.6
		c-2.717-3.881-4.011-9.316-4.011-15.27c0-9.705,3.364-20.833,9.187-28.595c9.446-12.551,21.738-20.574,38.171-23.55
		c3.364-0.647,7.246-1.035,11.128-1.035c14.88,0,31.96,5.305,40.371,22.256c3.494,6.987,5.046,13.975,5.046,20.574
		C411.561,74.048,405.091,85.952,395.516,93.974z M353.592,24.878c-6.987,1.682-14.363,5.046-22.385,11.128
		c-12.81,9.705-16.304,22.903-16.304,32.738c0,2.975,0.259,5.691,0.776,7.893c1.294,5.564,4.011,8.67,7.375,8.67
		c2.329,0,5.046-1.553,7.764-5.047c6.858-8.41,18.374-26.137,23.55-37.654c1.423-3.234,2.07-6.47,2.07-9.315
		C356.438,29.795,355.403,26.689,353.592,24.878z"/>
	<path fill="#003366" d="M550.148,36.394c-0.389,0.647-0.906,1.035-1.683,1.035H437.575c-0.647,0-1.294-0.388-1.553-1.165
		c-0.519-1.035,0.775-2.07,2.588-2.07h21.867V10.127c0-1.165,0.906-2.07,2.2-1.941c6.987,0.389,10.353,1.294,10.353,2.717
		c0,1.035-1.683,2.2-5.306,3.494v19.797h23.291V4.821c0-1.164,0.906-2.069,2.2-2.069c7.117,0.259,10.74,1.294,10.74,2.976
		c0,1.165-1.813,2.329-5.564,3.623v7.894h26.396l4.917-6.211c0.776-0.906,2.07-1.035,2.976-0.13c2.2,1.941,4.012,4.012,5.823,6.211
		c0.519,0.519,0.519,1.295,0.259,1.941l-0.259,0.519c-0.388,0.518-0.906,0.905-1.553,0.905h-38.56v13.716h37.395l4.917-6.599
		c0.776-0.906,1.941-1.165,2.976-0.388c2.329,2.069,4.399,4.27,6.471,6.857c0.388,0.519,0.518,1.165,0.259,1.683L550.148,36.394z
		 M540.444,50.239v66.768c0,1.164-0.776,1.939-1.941,1.939h-3.494c-1.165,0-1.94-0.775-1.94-1.939v-5.047H451.42v5.047
		c0,1.164-0.776,1.939-1.94,1.939h-3.494c-1.165,0-1.941-0.775-1.941-1.939V45.711c0-1.294,0.906-2.2,2.2-2.07
		c6.858,0.519,10.093,1.553,10.093,3.235c0,0.906-1.553,2.069-4.917,3.363v58.487h81.648V45.452c0-1.294,0.905-2.2,2.199-2.07
		c6.858,0.518,10.223,1.553,10.223,3.364C545.49,47.911,543.808,49.075,540.444,50.239z M527.375,71.46
		c-0.388,0.518-0.906,0.775-1.423,0.775h-30.278v5.307c7.634,1.682,14.492,3.881,20.315,6.857c5.692,2.977,8.54,5.951,8.54,8.799
		c0,2.717-1.294,4.141-4.012,4.141c-1.165,0-2.588-0.906-4.27-2.717c-5.046-5.307-11.904-9.834-20.574-13.588v22.127
		c0,1.164-0.776,1.941-1.94,1.941h-2.848c-1.165,0-1.94-0.777-1.94-1.941V79.095c-8.411,9.186-18.245,16.432-29.502,21.996
		c-0.906,0.389-1.813,0.129-2.329-0.518c-0.647-0.775-0.26-1.941,0.905-2.588c10.999-6.857,20.187-15.527,27.69-25.75h-25.879
		c-0.776,0-1.294-0.389-1.682-1.035c-0.519-1.164,0.775-2.199,2.457-2.199h28.338V44.288c0-1.294,1.035-2.2,2.199-2.07
		c6.211,0.518,9.316,1.423,9.316,2.847c0,0.906-1.553,1.813-4.788,2.718v21.219h19.021l4.398-5.436
		c0.776-1.034,1.941-1.165,2.847-0.258c1.683,1.553,3.623,3.364,5.436,5.436c0.646,0.646,0.646,1.422,0.259,2.199L527.375,71.46z
		 M476.394,65.896c-1.812,0-3.104-1.293-3.752-3.751c-1.423-5.046-3.882-9.315-7.893-12.938c-0.776-0.776-1.035-1.683-0.518-2.329
		c0.388-0.647,1.294-0.776,2.199-0.389c9.705,4.271,14.492,9.059,14.492,14.622C480.922,64.214,479.499,65.896,476.394,65.896z
		 M520.129,52.568c-0.646,0-1.294-0.129-1.94-0.129c-3.105,3.752-7.375,8.022-12.811,12.681c-0.646,0.646-1.682,0.646-2.329,0.131
		c-0.646-0.52-0.775-1.555-0.129-2.459c3.882-5.564,7.117-11.128,9.575-16.563c0.518-1.035,1.553-1.423,2.717-0.905
		c5.564,2.458,8.281,4.398,8.281,5.951C523.493,52.051,522.458,52.568,520.129,52.568z"/>
	<path fill="#003366" d="M623.522,41.569l-0.26,0.519c-0.388,0.518-0.905,0.775-1.423,0.775h-19.797v12.034
		c0.519,0.389,1.294,0.776,1.941,1.035c6.729,3.494,11.774,7.633,15.269,12.292c1.813,2.459,2.847,4.658,2.847,6.6
		c0,3.365-1.423,5.047-4.398,5.047c-1.683,0-3.105-1.682-4.399-4.916c-1.812-4.918-5.692-10.354-11.257-16.045v58.098
		c0,1.164-0.776,1.939-1.94,1.939h-3.753c-1.165,0-1.94-0.775-1.94-1.939V62.791c-5.952,12.421-13.069,23.419-21.221,32.736
		c-0.647,0.777-1.813,0.906-2.589,0.26c-0.775-0.646-0.775-1.684-0.129-2.588c11.388-15.787,19.28-32.479,23.55-50.335h-20.056
		c-0.906,0-1.553-0.518-1.812-1.294c-0.26-1.034,0.775-1.94,2.328-1.94h19.928v-21.22c-6.082,1.165-12.034,2.199-18.245,3.104
		c-0.776,0-1.553-0.388-1.813-1.035c-0.518-1.035,0.389-2.2,1.813-2.458c15.01-3.363,27.173-7.505,36.229-12.81
		c0.519-0.259,1.294-0.259,1.813,0.129c5.046,3.104,7.634,5.435,7.634,6.857c0,0.776-0.776,1.165-2.2,1.165
		c-1.165,0-2.329-0.259-3.882-0.518c-4.011,1.294-8.54,2.588-13.716,3.882V39.63h8.928l4.271-6.47
		c0.775-1.294,2.329-1.424,3.234-0.389c1.813,2.07,3.623,4.399,5.177,6.987C623.91,40.275,623.91,41.052,623.522,41.569z
		 M686.538,75.601c-0.26,0.646-0.777,1.035-1.295,1.164l-16.434,3.494v36.748c0,1.164-0.775,1.939-1.939,1.939h-3.883
		c-1.164,0-1.94-0.775-1.94-1.939V81.941l-44.771,9.705c-0.776,0.129-1.554-0.26-1.941-0.906c0,0-0.129-2.848,1.423-3.234
		l44.9-9.576V6.762c0-1.294,1.035-2.07,2.328-2.07c7.506,0.776,11.258,1.941,11.258,3.752c0,1.165-1.941,2.2-5.822,3.235v64.568
		l6.729-1.424l3.233-6.857c0.776-1.553,2.588-1.813,3.752-0.518c1.684,1.813,3.235,3.623,4.529,5.436
		c0.389,0.518,0.389,1.035,0.259,1.553L686.538,75.601z M644.484,69.648c-2.2,0-3.623-1.553-4.658-4.787
		c-1.813-5.823-6.211-11.387-13.198-16.821c-0.906-0.647-1.165-1.554-0.646-2.329c0.388-0.776,1.294-1.035,2.199-0.647
		c6.987,2.977,12.293,6.34,16.175,10.61c2.977,3.104,4.399,6.082,4.399,8.798C648.754,67.966,647.331,69.648,644.484,69.648z
		 M648.495,39.5c-2.07,0-3.623-1.554-4.658-4.529c-1.939-5.693-6.081-10.869-12.68-15.527c-0.906-0.646-1.294-1.553-0.776-2.329
		c0.388-0.646,1.294-0.905,2.07-0.646c6.47,2.329,11.516,5.305,15.139,8.928c3.364,3.235,5.046,6.34,5.046,9.188
		C652.635,37.817,651.212,39.5,648.495,39.5z"/>
	<path fill="#003366" d="M794.071,33.806c-9.834,27.82-23.552,42.57-36.619,53.57c-10.48,8.928-28.078,19.02-40.889,22.643h-0.519
		c-1.294,0-2.199-1.035-2.199-2.199c0-0.904,0.389-1.682,1.554-2.197c18.633-8.801,26.653-13.07,37.782-22.773
		c14.492-12.553,23.938-24.715,32.22-45.936c0.129-0.519,0.259-0.906,0.259-1.165c0-0.906-0.647-1.294-1.94-1.294
		c-1.424-0.129-27.949,1.812-35.065,2.329c-9.188,11.646-23.681,23.679-34.679,32.089c-0.518,0.389-1.164,0.646-1.553,0.646
		c-1.294,0-2.07-1.295-2.07-2.33c0-0.646,0.26-1.293,0.776-1.811c14.88-12.035,27.433-24.198,34.808-37.136
		c1.94-3.364,2.589-5.693,2.589-7.375c0-2.329-1.295-3.623-2.459-4.788c-0.906-0.906-1.294-1.941-1.294-2.977
		c0-1.94,1.423-3.882,3.492-3.882c0.777,0,1.684,0.388,2.588,1.035c2.589,2.07,4.919,5.823,4.919,10.74
		c0,2.458-0.647,5.305-2.2,8.28c8.799-0.388,32.478-1.94,35.583-1.94h0.646c3.105,0,4.658,1.812,4.658,4.141
		C794.458,32.254,794.329,33.029,794.071,33.806z"/>
	<path fill="#003366" d="M843.892,31.477c0,7.505-0.775,33.254-1.294,38.561c-0.129,2.068-1.812,3.104-2.977,3.104
		c-1.164,0-2.717-1.164-2.717-3.623V69.39c0-6.728,1.164-16.822,1.164-25.362c0-4.398-0.129-8.28-0.259-10.739
		c-0.518-6.987-2.459-9.316-5.047-10.74c-1.424-0.776-2.198-2.07-2.198-3.364c0-1.94,1.423-3.752,3.881-3.752
		c0.646,0,1.424,0.129,2.33,0.519c4.527,1.94,7.116,8.021,7.116,14.621V31.477L843.892,31.477z M887.756,15.432
		c0,7.634-0.129,29.243-0.129,43.865c0,30.924-16.691,43.866-42.053,53.18c-0.39,0.129-0.777,0.26-1.165,0.26
		c-1.294,0-2.2-1.035-2.2-2.199c0-0.906,0.518-1.813,1.812-2.459c19.538-9.316,36.618-19.408,36.618-47.875
		c0-14.104-0.646-42.313-0.646-46.711c0-2.848,1.94-4.399,3.883-4.399c1.94,0,3.881,1.423,3.881,4.011V15.432z"/>
	<path fill="#003366" d="M1023.885,87.634c-19.149,0.518-58.229,3.105-77.508,3.105h-5.952c-6.857,0-13.068-3.752-16.045-9.834
		c-0.259-0.518-0.388-0.906-0.388-1.295c0-1.164,1.035-1.939,2.199-1.939c0.646,0,1.294,0.129,1.812,0.775
		c3.623,3.623,8.281,5.693,13.198,5.693h0.129c15.397,0,71.297-3.881,82.684-3.881h0.13c2.459,0,3.753,1.811,3.753,3.623
		C1027.896,85.693,1026.603,87.505,1023.885,87.634z M1006.288,38.335c-17.21,1.553-35.325,4.528-48.265,4.528h-0.776
		c-6.729,0-11.646-2.328-15.398-8.28c-0.258-0.519-0.388-0.906-0.388-1.423c0-1.165,1.035-2.2,2.2-2.2
		c0.518,0,1.035,0.259,1.553,0.775c2.458,2.977,6.469,4.529,11.257,4.529c0.647,0,1.294,0,1.94-0.129
		c10.869-0.776,32.22-3.494,47.1-5.435h0.647c2.329,0,3.623,1.94,3.623,3.882C1009.781,36.394,1008.746,38.077,1006.288,38.335z"/>
	<path fill="#003366" d="M1072.542,70.036h-0.129c-1.164,0-2.459-0.775-2.978-2.588c-1.939-7.634-4.011-13.328-7.375-19.539
		c-0.259-0.389-0.389-0.776-0.389-1.165v-0.129c0-1.035,0.777-1.941,1.812-1.941c0.519,0,1.035,0.259,1.554,0.776
		c7.504,7.505,10.352,18.375,10.739,20.443c0,0.391,0.13,0.646,0.13,0.906C1075.907,68.743,1074.224,70.036,1072.542,70.036z
		 M1131.934,48.557v0.129c0,2.329-0.518,5.046-1.682,8.022c-7.117,18.375-16.175,28.855-24.974,36.23
		c-11.904,10.094-22.516,16.563-29.372,19.539c-0.261,0.129-0.519,0.129-0.647,0.129h-0.13c-1.035,0-2.069-0.904-2.069-2.07
		c0-0.646,0.518-1.424,1.295-1.811c8.539-4.789,17.338-10.48,27.688-20.574c10.481-10.094,16.435-19.539,22.386-33.513
		c0.647-1.553,1.294-3.494,1.294-5.305v-0.129c0-2.2-0.905-4.399-4.141-5.952c-1.035-0.519-1.682-1.683-1.682-2.717
		c0-1.683,1.293-3.235,3.362-3.235c0.647,0,1.295,0.129,1.941,0.388C1129.087,38.981,1131.934,42.994,1131.934,48.557z
		 M1084.317,41.44c-0.26-0.388-0.39-0.775-0.39-1.294c0-1.035,0.777-1.94,1.941-1.94c0.646,0,1.294,0.388,1.94,0.905
		c5.435,4.917,7.635,13.198,9.964,21.479c0.129,0.518,0.129,0.906,0.129,1.165c0,2.07-1.683,3.234-3.363,3.234
		c-1.424,0-2.848-0.904-3.235-2.846C1089.751,54.251,1088.458,48.557,1084.317,41.44z"/>
	<path fill="#003366" d="M1246.971,33.806c-9.834,27.82-23.551,42.57-36.619,53.57c-10.479,8.928-28.077,19.02-40.889,22.643h-0.518
		c-1.294,0-2.199-1.035-2.199-2.199c0-0.904,0.388-1.682,1.553-2.197c18.633-8.801,26.654-13.07,37.783-22.773
		c14.492-12.553,23.938-24.715,32.219-45.936c0.129-0.519,0.259-0.906,0.259-1.165c0-0.906-0.646-1.294-1.939-1.294
		c-1.424-0.129-27.949,1.812-35.066,2.329c-9.188,11.646-23.68,23.679-34.678,32.089c-0.518,0.389-1.164,0.646-1.553,0.646
		c-1.294,0-2.07-1.295-2.07-2.33c0-0.646,0.259-1.293,0.776-1.811c14.88-12.035,27.432-24.198,34.808-37.136
		c1.94-3.364,2.588-5.693,2.588-7.375c0-2.329-1.295-3.623-2.459-4.788c-0.906-0.906-1.294-1.941-1.294-2.977
		c0-1.94,1.423-3.882,3.493-3.882c0.777,0,1.684,0.388,2.588,1.035c2.588,2.07,4.918,5.823,4.918,10.74
		c0,2.458-0.646,5.305-2.199,8.28c8.799-0.388,32.478-1.94,35.582-1.94h0.647c3.104,0,4.658,1.812,4.658,4.141
		C1247.359,32.254,1247.229,33.029,1246.971,33.806z"/>
</g>
<path fill="#003366" d="M143.19-1.477c-4.642,40.396-14.967,75.802-34.843,92.871C76.259,118.954,11.702,123.853,0,123.105
	c6.04-11.703,5.664-58.891,39.64-90.226C75.959-0.616,115.143,11.739,143.19-1.477z"/>
</svg>
