<?xml version="1.0" encoding="utf-8"?>
<!-- Generator: Adobe Illustrator 16.0.0, SVG Export Plug-In . SVG Version: 6.00 Build 0)  -->
<!DOCTYPE svg PUBLIC "-//W3C//DTD SVG 1.1//EN" "http://www.w3.org/Graphics/SVG/1.1/DTD/svg11.dtd">
<svg version="1.1" id="レイヤー_1" xmlns="http://www.w3.org/2000/svg" xmlns:xlink="http://www.w3.org/1999/xlink" x="0px"
	 y="0px" width="219.546px" height="26.616px" viewBox="0 0 219.546 26.616" enable-background="new 0 0 219.546 26.616"
	 xml:space="preserve">
<g>
	<path fill="#003366" d="M60.166,19.163c1.536,0,2.87-0.375,4-1.125c0.141,0.261,0.211,0.498,0.211,0.711
		c0,0.365-0.453,0.703-1.359,1.016c-0.734,0.25-1.44,0.375-2.117,0.375c-0.276,0-0.464-0.067-0.563-0.203
		C60.223,19.791,60.166,19.533,60.166,19.163z M67.893,17.03c-0.104,0-0.32-0.01-0.648-0.031c-0.365-0.021-0.623-0.031-0.773-0.031
		c0-0.151-0.104-0.273-0.313-0.367c-0.167-0.078-0.362-0.117-0.586-0.117c-0.271,0-0.504,0.054-0.699,0.16
		c-0.195,0.107-0.293,0.236-0.293,0.387c-0.146,0-0.281,0.046-0.406,0.137c-0.125,0.091-0.188,0.189-0.188,0.293
		c0,0.099,0.018,0.195,0.055,0.289c-1.099,0.734-2.386,1.102-3.859,1.102c0.109-0.682,0.37-1.258,0.781-1.727
		c0.442-0.531,1.127-0.989,2.055-1.375c1.208-0.458,2.833-0.708,4.875-0.75c2.042,0.042,3.669,0.292,4.883,0.75
		c0.922,0.386,1.609,0.844,2.063,1.375c0.406,0.474,0.661,1.05,0.766,1.727c-1.474,0-2.758-0.367-3.852-1.102
		c0.031-0.094,0.047-0.19,0.047-0.289c0-0.114-0.068-0.216-0.203-0.305c-0.12-0.083-0.25-0.125-0.391-0.125
		c0-0.177-0.125-0.317-0.375-0.422c-0.188-0.083-0.394-0.125-0.617-0.125c-0.261,0-0.479,0.05-0.656,0.148
		c-0.162,0.094-0.242,0.206-0.242,0.336c-0.151,0-0.409,0.011-0.773,0.031C68.213,17.02,67.997,17.03,67.893,17.03z M67.893,17.944
		c0.771,0,1.25-0.044,1.438-0.133c0.151-0.073,0.227-0.227,0.227-0.461v-0.094c0-0.297,0.219-0.445,0.656-0.445
		c0.208,0,0.385,0.047,0.531,0.141c0.125,0.089,0.188,0.19,0.188,0.305v0.211c0,0.933,0.161,1.69,0.484,2.273
		c0.229,0.417,0.661,0.943,1.297,1.578c0.463,0.469,0.778,0.873,0.945,1.211c0.141,0.287,0.224,0.636,0.25,1.047
		c0.016,0.183,0.12,0.461,0.313,0.836c0.146,0.287,0.219,0.539,0.219,0.758c0,0.328-0.091,0.558-0.273,0.688
		c-0.156,0.12-0.406,0.18-0.75,0.18H62.377c-0.683,0-1.023-0.289-1.023-0.867c0-0.224,0.088-0.51,0.266-0.859
		c0.156-0.302,0.245-0.547,0.266-0.734c0.042-0.474,0.151-0.87,0.328-1.188c0.167-0.302,0.456-0.659,0.867-1.07
		c0.719-0.719,1.188-1.323,1.406-1.813c0.245-0.531,0.367-1.211,0.367-2.039v-0.211c0-0.135,0.081-0.247,0.242-0.336
		c0.135-0.073,0.294-0.109,0.477-0.109c0.438,0,0.656,0.148,0.656,0.445v0.094c0,0.266,0.106,0.43,0.32,0.492
		C66.757,17.911,67.205,17.944,67.893,17.944z M67.893,25.241c0.963,0,1.768-0.349,2.414-1.047c0.557-0.609,0.836-1.323,0.836-2.141
		c0-0.942-0.357-1.729-1.07-2.359c-0.62-0.547-1.347-0.82-2.18-0.82c-0.964,0-1.769,0.349-2.414,1.047
		c-0.558,0.609-0.836,1.32-0.836,2.133c0,0.948,0.356,1.737,1.07,2.367C66.333,24.968,67.059,25.241,67.893,25.241z M67.885,20.218
		c0.536,0,0.987,0.201,1.352,0.602c0.313,0.349,0.469,0.755,0.469,1.219c0,0.542-0.201,0.995-0.602,1.359
		c-0.349,0.313-0.755,0.469-1.219,0.469c-0.547,0-1-0.2-1.359-0.602c-0.313-0.349-0.469-0.758-0.469-1.227
		c0-0.536,0.2-0.987,0.602-1.352C67.002,20.374,67.411,20.218,67.885,20.218z M75.619,19.163c0,0.417-0.073,0.695-0.219,0.836
		c-0.104,0.094-0.276,0.141-0.516,0.141c-0.797,0-1.591-0.159-2.383-0.477c-0.724-0.292-1.086-0.596-1.086-0.914
		c0-0.213,0.067-0.45,0.203-0.711C72.749,18.788,74.083,19.163,75.619,19.163z"/>
	<path fill="#003366" d="M84.924,14.616c1.229,0,2.127,0.529,2.695,1.586c0.526,0.974,0.789,2.425,0.789,4.352
		c0,4.042-1.172,6.063-3.516,6.063c-1.24,0-2.146-0.542-2.719-1.625c-0.526-0.995-0.789-2.463-0.789-4.406
		C81.385,16.606,82.564,14.616,84.924,14.616z M84.924,15.718c-0.787,0-1.352,0.412-1.695,1.234
		c-0.323,0.776-0.484,1.982-0.484,3.617c0,1.87,0.203,3.193,0.609,3.969c0.338,0.651,0.852,0.977,1.539,0.977
		c0.786,0,1.349-0.43,1.688-1.289c0.313-0.792,0.469-2.01,0.469-3.656c0-1.864-0.198-3.172-0.594-3.922
		C86.122,16.028,85.611,15.718,84.924,15.718z"/>
	<path fill="#003366" d="M97.143,14.804v0.992c-1.078,1.74-1.886,3.5-2.422,5.281c-0.479,1.589-0.797,3.365-0.953,5.328h-1.469
		c0.198-2.151,0.627-4.135,1.289-5.953c0.536-1.458,1.278-2.969,2.227-4.531H90.33v-1.117H97.143z"/>
	<path fill="#003366" d="M104.752,14.694v7.938h1.617v1.055h-1.617v2.719h-1.203v-2.719h-4.641v-0.992l4.016-8H104.752z
		 M103.549,22.632v-4.063c0-0.495,0.021-1.435,0.063-2.82h-0.273c-0.604,1.386-0.977,2.224-1.117,2.516l-2.125,4.367H103.549z"/>
	<path fill="#003366" d="M108.127,16.952c0.266-0.802,0.727-1.406,1.383-1.813c0.557-0.349,1.208-0.523,1.953-0.523
		c1.026,0,1.846,0.3,2.461,0.898c0.536,0.521,0.805,1.169,0.805,1.945c0,0.755-0.222,1.373-0.664,1.852
		c-0.386,0.422-0.898,0.695-1.539,0.82v0.148c0.823,0.172,1.453,0.544,1.891,1.117c0.38,0.505,0.57,1.115,0.57,1.828
		c0,1.089-0.367,1.948-1.102,2.578c-0.63,0.542-1.43,0.813-2.398,0.813c-1.797,0-2.987-0.773-3.57-2.32l1.281-0.484
		c0.224,0.651,0.539,1.109,0.945,1.375c0.349,0.229,0.797,0.344,1.344,0.344c0.688,0,1.224-0.231,1.609-0.695
		c0.344-0.411,0.516-0.942,0.516-1.594c0-1.594-0.875-2.391-2.625-2.391h-0.891v-1.133h0.797c0.864,0,1.51-0.216,1.938-0.648
		c0.359-0.364,0.539-0.862,0.539-1.492c0-0.625-0.206-1.109-0.617-1.453c-0.339-0.281-0.773-0.422-1.305-0.422
		c-0.526,0-0.972,0.156-1.336,0.469c-0.344,0.297-0.581,0.701-0.711,1.211L108.127,16.952z"/>
	<path fill="#003366" d="M121.635,21.319v1.07h-4.445v-1.07H121.635z"/>
	<path fill="#003366" d="M132.486,14.616l-3.664,5.664l3.875,6.125h-1.602l-2.656-4.289c-0.188-0.323-0.347-0.578-0.477-0.766
		l-0.469,0.766l-2.617,4.289h-1.508l3.844-6.078l-3.57-5.711h1.586l2.352,3.836c0.104,0.183,0.273,0.466,0.508,0.852
		c0.078-0.114,0.174-0.271,0.289-0.469c0.12-0.213,0.2-0.352,0.242-0.414l2.367-3.805H132.486z"/>
	<path fill="#003366" d="M142.869,14.616l-3.664,5.664l3.875,6.125h-1.602l-2.656-4.289c-0.188-0.323-0.347-0.578-0.477-0.766
		l-0.469,0.766l-2.617,4.289h-1.508l3.844-6.078l-3.57-5.711h1.586l2.352,3.836c0.104,0.183,0.273,0.466,0.508,0.852
		c0.078-0.114,0.174-0.271,0.289-0.469c0.12-0.213,0.2-0.352,0.242-0.414l2.367-3.805H142.869z"/>
	<path fill="#003366" d="M153.252,14.616l-3.664,5.664l3.875,6.125h-1.602l-2.656-4.289c-0.188-0.323-0.347-0.578-0.477-0.766
		l-0.469,0.766l-2.617,4.289h-1.508l3.844-6.078l-3.57-5.711h1.586l2.352,3.836c0.104,0.183,0.273,0.466,0.508,0.852
		c0.078-0.114,0.174-0.271,0.289-0.469c0.12-0.213,0.2-0.352,0.242-0.414l2.367-3.805H153.252z"/>
	<path fill="#003366" d="M159.635,21.319v1.07h-4.445v-1.07H159.635z"/>
	<path fill="#003366" d="M170.486,14.616l-3.664,5.664l3.875,6.125h-1.602l-2.656-4.289c-0.188-0.323-0.347-0.578-0.477-0.766
		l-0.469,0.766l-2.617,4.289h-1.508l3.844-6.078l-3.57-5.711h1.586l2.352,3.836c0.104,0.183,0.273,0.466,0.508,0.852
		c0.078-0.114,0.174-0.271,0.289-0.469c0.12-0.213,0.2-0.352,0.242-0.414l2.367-3.805H170.486z"/>
	<path fill="#003366" d="M180.869,14.616l-3.664,5.664l3.875,6.125h-1.602l-2.656-4.289c-0.188-0.323-0.347-0.578-0.477-0.766
		l-0.469,0.766l-2.617,4.289h-1.508l3.844-6.078l-3.57-5.711h1.586l2.352,3.836c0.104,0.183,0.273,0.466,0.508,0.852
		c0.078-0.114,0.174-0.271,0.289-0.469c0.12-0.213,0.2-0.352,0.242-0.414l2.367-3.805H180.869z"/>
	<path fill="#003366" d="M191.252,14.616l-3.664,5.664l3.875,6.125h-1.602l-2.656-4.289c-0.188-0.323-0.347-0.578-0.477-0.766
		l-0.469,0.766l-2.617,4.289h-1.508l3.844-6.078l-3.57-5.711h1.586l2.352,3.836c0.104,0.183,0.273,0.466,0.508,0.852
		c0.078-0.114,0.174-0.271,0.289-0.469c0.119-0.213,0.2-0.352,0.242-0.414l2.367-3.805H191.252z"/>
	<path fill="#003366" d="M201.635,14.616l-3.664,5.664l3.875,6.125h-1.602l-2.656-4.289c-0.188-0.323-0.347-0.578-0.477-0.766
		l-0.469,0.766l-2.617,4.289h-1.508l3.844-6.078l-3.57-5.711h1.586l2.352,3.836c0.104,0.183,0.273,0.466,0.508,0.852
		c0.078-0.114,0.174-0.271,0.289-0.469c0.119-0.213,0.2-0.352,0.242-0.414l2.367-3.805H201.635z"/>
</g>
<g>
	<path fill="#003366" d="M0,2.724h6.785v6.785H0V2.724z"/>
	<path fill="#003366" d="M16.291,5.809c0,0.05-0.037,0.095-0.11,0.136c-0.079,0.041-0.186,0.141-0.321,0.299
		c-0.357,0.422-0.746,0.794-1.165,1.116c-0.062,0.053-0.104,0.079-0.127,0.079c-0.015,0-0.064-0.034-0.149-0.101
		c-0.132-0.094-0.262-0.166-0.391-0.215c0.542-0.357,0.968-0.729,1.279-1.116h-2.5v1.973l0.009,1.23
		c0,0.316-0.078,0.536-0.233,0.659c-0.152,0.114-0.519,0.171-1.099,0.171c-0.082,0-0.145,0-0.189,0c-0.1,0-0.158-0.01-0.176-0.031
		c-0.018-0.018-0.037-0.07-0.057-0.158c-0.038-0.149-0.098-0.297-0.18-0.444c0.36,0.038,0.672,0.057,0.936,0.057
		c0.164,0,0.274-0.028,0.33-0.083c0.05-0.05,0.075-0.139,0.075-0.268V6.006H9.945l-1.2,0.018c-0.047,0-0.07-0.023-0.07-0.07V5.519
		c0-0.047,0.023-0.07,0.07-0.07l1.2,0.018h2.826c-0.516-0.489-1.148-0.945-1.898-1.367c-0.032-0.018-0.048-0.031-0.048-0.04
		s0.022-0.041,0.066-0.097l0.18-0.207c0.032-0.035,0.057-0.053,0.075-0.053c0.012,0,0.028,0.007,0.048,0.022
		c0.398,0.211,0.781,0.447,1.147,0.708c0.838-0.463,1.5-0.907,1.986-1.332h-3.538L9.523,3.119c-0.044,0-0.066-0.023-0.066-0.07
		V2.631c0-0.047,0.022-0.07,0.066-0.07l1.266,0.018h3.771c0.1,0,0.173-0.009,0.22-0.026c0.073-0.029,0.114-0.044,0.123-0.044
		c0.056,0,0.149,0.066,0.281,0.198s0.198,0.231,0.198,0.299c0,0.05-0.042,0.091-0.127,0.123c-0.1,0.035-0.204,0.098-0.312,0.189
		c-0.609,0.516-1.33,0.995-2.162,1.437c0.108,0.088,0.289,0.245,0.541,0.47c0.021,0.018,0.031,0.031,0.031,0.04
		c0,0.006-0.026,0.034-0.079,0.083l-0.123,0.119h2.338c0.111,0,0.188-0.012,0.229-0.035c0.047-0.023,0.082-0.035,0.105-0.035
		c0.05,0,0.146,0.057,0.29,0.171C16.23,5.672,16.291,5.753,16.291,5.809z"/>
	<path fill="#003366" d="M21.028,6.648c0.009,0.023,0.013,0.042,0.013,0.057c0,0.032-0.038,0.06-0.114,0.083L20.72,6.854
		c-0.041,0.012-0.07,0.018-0.088,0.018c-0.026,0-0.044-0.019-0.053-0.057c-0.088-0.27-0.145-0.442-0.171-0.519l-0.866,0.088v2.413
		l0.018,1.314c0,0.041-0.023,0.062-0.07,0.062h-0.409c-0.047,0-0.07-0.021-0.07-0.062l0.018-1.314V6.428L18.04,6.503
		c-0.17,0.015-0.284,0.038-0.343,0.07c-0.047,0.023-0.081,0.035-0.101,0.035c-0.038,0-0.067-0.038-0.088-0.114
		c-0.023-0.091-0.054-0.256-0.092-0.497c0.19,0.018,0.379,0.026,0.567,0.026h0.11c0.214-0.278,0.439-0.59,0.677-0.936
		c-0.486-0.577-0.929-1.039-1.327-1.384c-0.026-0.023-0.04-0.044-0.04-0.062s0.023-0.051,0.07-0.101l0.154-0.189
		c0.038-0.044,0.066-0.066,0.083-0.066c0.015,0,0.034,0.013,0.057,0.04L18.11,3.66c0.223-0.346,0.42-0.686,0.593-1.02
		c0.123-0.231,0.202-0.435,0.237-0.611c0.161,0.064,0.328,0.139,0.501,0.224c0.067,0.032,0.101,0.072,0.101,0.119
		c0,0.032-0.026,0.064-0.079,0.097c-0.053,0.035-0.104,0.098-0.154,0.189c-0.316,0.524-0.605,0.971-0.866,1.34
		c0.205,0.205,0.406,0.425,0.602,0.659c0.223-0.357,0.417-0.678,0.584-0.962c0.193-0.346,0.313-0.601,0.36-0.765
		c0.188,0.079,0.353,0.163,0.497,0.25c0.053,0.032,0.079,0.069,0.079,0.11c0,0.038-0.029,0.076-0.088,0.114
		c-0.07,0.05-0.176,0.182-0.316,0.396c-0.495,0.791-0.996,1.523-1.503,2.197c0.58-0.032,1.109-0.067,1.586-0.105
		c-0.114-0.258-0.231-0.489-0.352-0.694c-0.012-0.021-0.018-0.037-0.018-0.048c0-0.023,0.035-0.05,0.105-0.079l0.163-0.062
		c0.041-0.021,0.073-0.031,0.097-0.031s0.045,0.016,0.066,0.048C20.597,5.536,20.837,6.077,21.028,6.648z M18.497,7.268
		c0,0.012-0.015,0.047-0.044,0.105c-0.026,0.047-0.048,0.135-0.066,0.264c-0.085,0.636-0.231,1.22-0.439,1.753
		c-0.023,0.085-0.05,0.127-0.079,0.127c-0.023,0-0.069-0.023-0.136-0.07c-0.079-0.064-0.182-0.11-0.308-0.136
		c0.229-0.521,0.391-1.113,0.488-1.775c0.015-0.097,0.022-0.19,0.022-0.281c0-0.038-0.001-0.088-0.004-0.149
		c0.167,0.018,0.313,0.041,0.439,0.07C18.454,7.193,18.497,7.224,18.497,7.268z M21.006,8.858c0.003,0.012,0.004,0.023,0.004,0.035
		c0,0.044-0.037,0.078-0.11,0.101l-0.215,0.062c-0.047,0.015-0.081,0.022-0.101,0.022c-0.023,0-0.041-0.022-0.053-0.066
		c-0.12-0.656-0.277-1.232-0.47-1.727c-0.009-0.023-0.013-0.041-0.013-0.053c0-0.032,0.035-0.057,0.105-0.075l0.189-0.053
		c0.035-0.009,0.06-0.013,0.075-0.013c0.029,0,0.056,0.022,0.079,0.066C20.722,7.703,20.892,8.27,21.006,8.858z M25.084,3.704
		c-0.012,0.152-0.018,0.381-0.018,0.686c-0.018,1.863-0.114,3.318-0.29,4.364c-0.085,0.495-0.215,0.845-0.391,1.05
		c-0.173,0.202-0.417,0.305-0.734,0.308c-0.316,0-0.595-0.015-0.835-0.044c-0.094-0.009-0.151-0.025-0.171-0.048
		c-0.018-0.023-0.035-0.079-0.053-0.167c-0.026-0.141-0.075-0.275-0.145-0.404c0.504,0.082,0.894,0.123,1.169,0.123
		c0.19,0,0.338-0.108,0.444-0.325c0.073-0.152,0.136-0.382,0.189-0.69c0.167-0.976,0.25-2.448,0.25-4.417h-2.628
		c-0.208,0.404-0.46,0.794-0.756,1.169c-0.05,0.067-0.092,0.101-0.127,0.101c-0.029,0-0.073-0.031-0.132-0.092
		c-0.105-0.103-0.202-0.174-0.29-0.215c0.583-0.656,1.018-1.421,1.305-2.294c0.097-0.305,0.154-0.57,0.171-0.795
		c0.226,0.044,0.412,0.092,0.558,0.145c0.085,0.029,0.127,0.066,0.127,0.11c0,0.047-0.026,0.1-0.079,0.158
		c-0.085,0.085-0.161,0.23-0.229,0.435c-0.062,0.193-0.164,0.454-0.308,0.782h1.92l0.971-0.018
		C25.058,3.625,25.084,3.651,25.084,3.704z M23.221,7.276c0.015,0.026,0.022,0.045,0.022,0.057c0,0.023-0.031,0.053-0.092,0.088
		L22.9,7.562c-0.062,0.038-0.101,0.057-0.119,0.057s-0.035-0.018-0.053-0.053c-0.255-0.577-0.618-1.151-1.09-1.723
		c-0.021-0.021-0.031-0.038-0.031-0.053c0-0.021,0.031-0.05,0.092-0.088l0.224-0.136c0.038-0.026,0.066-0.04,0.083-0.04
		c0.015,0,0.032,0.013,0.053,0.04C22.503,6.042,22.89,6.611,23.221,7.276z"/>
	<path fill="#003366" d="M28.608,2.354c0,0.038-0.026,0.079-0.079,0.123c-0.038,0.032-0.092,0.152-0.163,0.36
		c-0.155,0.448-0.344,0.895-0.567,1.34v4.509l0.018,1.415c0,0.047-0.023,0.07-0.07,0.07H27.33c-0.047,0-0.07-0.023-0.07-0.07
		l0.018-1.415V6.349c0-0.27,0.006-0.693,0.018-1.27c-0.234,0.378-0.507,0.754-0.817,1.129c-0.062,0.059-0.098,0.088-0.11,0.088
		c-0.021,0-0.044-0.034-0.07-0.101c-0.053-0.138-0.125-0.252-0.215-0.343c0.838-0.981,1.434-2.043,1.789-3.186
		c0.067-0.229,0.11-0.432,0.127-0.611c0.211,0.059,0.385,0.122,0.523,0.189C28.579,2.271,28.608,2.308,28.608,2.354z M34.55,9.579
		c-0.088,0.114-0.151,0.226-0.189,0.334c-0.032,0.108-0.076,0.163-0.132,0.163c-0.015,0-0.048-0.003-0.101-0.009
		c-1.198-0.135-2.134-0.369-2.808-0.703c-0.624,0.305-1.515,0.548-2.672,0.729c-0.059,0.009-0.098,0.013-0.119,0.013
		c-0.047,0-0.092-0.047-0.136-0.141c-0.044-0.105-0.101-0.198-0.171-0.277c1.116-0.132,1.995-0.327,2.637-0.584
		c-0.308-0.196-0.595-0.445-0.861-0.747c-0.357,0.246-0.79,0.476-1.296,0.69c-0.07,0.026-0.116,0.04-0.136,0.04
		c-0.029,0-0.067-0.037-0.114-0.11c-0.064-0.105-0.133-0.186-0.207-0.242c1.063-0.387,1.819-0.841,2.268-1.362
		c-0.272-0.07-0.409-0.246-0.409-0.527V6.617c0-0.202-0.012-0.366-0.035-0.492c0.202,0.009,0.359,0.023,0.47,0.044
		c0.047,0.009,0.07,0.032,0.07,0.07c0,0.023-0.012,0.054-0.035,0.092c-0.018,0.026-0.026,0.116-0.026,0.268v0.154
		c0,0.164,0.078,0.258,0.233,0.281c0.152,0.023,0.396,0.035,0.729,0.035c0.366,0,0.606-0.029,0.721-0.088
		c0.135-0.073,0.215-0.258,0.242-0.554c0.088,0.062,0.174,0.107,0.259,0.136c0.094,0.038,0.141,0.076,0.141,0.114
		c0,0.018-0.004,0.051-0.013,0.101c-0.064,0.27-0.193,0.45-0.387,0.541c-0.164,0.079-0.502,0.119-1.015,0.119
		c-0.211,0-0.365-0.003-0.461-0.009c-0.123,0.164-0.249,0.305-0.378,0.422h1.828c0.053,0,0.098-0.009,0.136-0.026
		c0.023-0.012,0.047-0.018,0.07-0.018c0.035,0,0.11,0.054,0.224,0.163c0.097,0.088,0.145,0.154,0.145,0.198
		s-0.026,0.078-0.079,0.101c-0.041,0.015-0.129,0.073-0.264,0.176c-0.278,0.246-0.563,0.46-0.853,0.642
		C32.391,9.298,33.299,9.462,34.55,9.579z M34.396,6.547c0,0.05-0.023,0.075-0.07,0.075h-0.343c-0.047,0-0.07-0.025-0.07-0.075
		V5.945h-5.032v0.747c0,0.047-0.023,0.07-0.07,0.07h-0.343c-0.05,0-0.075-0.023-0.075-0.07l0.018-0.611V5.927l-0.018-0.299
		c0-0.047,0.023-0.07,0.07-0.07l0.993,0.018V4.191l-0.018-0.787c0-0.047,0.023-0.07,0.07-0.07l1.072,0.018h0.224
		c0.073-0.179,0.133-0.338,0.18-0.479h-0.892l-1.248,0.018c-0.05,0-0.075-0.023-0.075-0.07V2.521c0-0.047,0.025-0.07,0.075-0.07
		l1.248,0.018h2.821l1.257-0.018c0.05,0,0.075,0.023,0.075,0.07V2.82c0,0.047-0.025,0.07-0.075,0.07l-1.257-0.018h-1.406
		c-0.073,0.214-0.133,0.374-0.18,0.479h0.729l1.063-0.018c0.053,0,0.079,0.023,0.079,0.07l-0.018,0.787v1.384l1.143-0.018
		c0.041,0,0.062,0.023,0.062,0.07l-0.009,0.237v0.149L34.396,6.547z M29.773,6.648c-0.249,0.378-0.51,0.687-0.782,0.927
		c-0.023,0.018-0.042,0.026-0.057,0.026c-0.018,0-0.044-0.016-0.079-0.048l-0.154-0.132c-0.047-0.041-0.07-0.07-0.07-0.088
		c0-0.015,0.012-0.031,0.035-0.048c0.27-0.226,0.513-0.511,0.729-0.857c0.018-0.026,0.032-0.04,0.044-0.04
		c0.018,0,0.053,0.016,0.105,0.048l0.171,0.101c0.047,0.029,0.07,0.053,0.07,0.07C29.786,6.617,29.782,6.63,29.773,6.648z
		 M32.695,4.099V3.686h-2.751v0.413H32.695z M32.695,4.829V4.407h-2.751v0.422H32.695z M32.695,5.576V5.136h-2.751v0.439H32.695z
		 M32.309,8.212h-1.934c0.296,0.275,0.617,0.501,0.962,0.677C31.692,8.696,32.016,8.47,32.309,8.212z M31.869,6.503
		c0.018,0.021,0.026,0.038,0.026,0.053s-0.018,0.035-0.053,0.062l-0.171,0.136c-0.041,0.029-0.069,0.044-0.083,0.044
		s-0.035-0.018-0.062-0.053c-0.138-0.173-0.284-0.319-0.439-0.439c-0.029-0.023-0.044-0.041-0.044-0.053
		c0-0.018,0.021-0.04,0.062-0.066l0.171-0.114c0.026-0.021,0.047-0.031,0.062-0.031s0.035,0.01,0.062,0.031
		C31.557,6.184,31.714,6.327,31.869,6.503z M34.198,7.197c0.015,0.015,0.022,0.029,0.022,0.044c0,0.021-0.019,0.047-0.057,0.079
		l-0.171,0.145c-0.05,0.041-0.085,0.062-0.105,0.062c-0.015,0-0.034-0.015-0.057-0.044c-0.223-0.319-0.476-0.614-0.76-0.883
		c-0.023-0.018-0.035-0.032-0.035-0.044c0-0.018,0.022-0.044,0.066-0.079l0.154-0.127c0.029-0.026,0.053-0.04,0.07-0.04
		c0.015,0,0.034,0.01,0.057,0.031C33.718,6.645,33.99,6.931,34.198,7.197z"/>
	<path fill="#003366" d="M43.291,6.323c0,0.047-0.025,0.07-0.075,0.07l-1.178-0.018h-1.503v2.369c0,0.346,0.031,0.555,0.092,0.628
		c0.082,0.103,0.366,0.154,0.853,0.154c0.519,0,0.854-0.081,1.006-0.242c0.152-0.152,0.243-0.564,0.272-1.235
		c0.105,0.082,0.229,0.145,0.369,0.189c0.097,0.029,0.145,0.076,0.145,0.141c0,0.012-0.001,0.037-0.004,0.075
		c-0.038,0.589-0.17,0.995-0.396,1.217c-0.138,0.144-0.312,0.242-0.523,0.294c-0.205,0.05-0.501,0.075-0.888,0.075
		c-0.715,0-1.15-0.089-1.305-0.268c-0.076-0.088-0.125-0.193-0.145-0.316c-0.023-0.126-0.035-0.334-0.035-0.624V6.375h-1.34
		c-0.026,0.999-0.246,1.792-0.659,2.377c-0.384,0.56-1.028,1.015-1.934,1.367c-0.056,0.023-0.101,0.035-0.136,0.035
		c-0.044,0-0.092-0.048-0.145-0.145c-0.062-0.111-0.154-0.212-0.277-0.303c0.902-0.255,1.575-0.667,2.017-1.235
		c0.381-0.486,0.576-1.185,0.584-2.096h-1.332l-1.191,0.018c-0.047,0-0.07-0.023-0.07-0.07V5.914c0-0.041,0.023-0.062,0.07-0.062
		l1.191,0.018h2.294V4.262h-1.872c-0.205,0.343-0.469,0.684-0.791,1.024c-0.053,0.062-0.095,0.092-0.127,0.092
		c-0.023,0-0.069-0.034-0.136-0.101c-0.079-0.082-0.177-0.145-0.294-0.189c0.615-0.583,1.077-1.27,1.384-2.061
		c0.091-0.196,0.151-0.403,0.18-0.62c0.208,0.062,0.385,0.122,0.532,0.18c0.073,0.029,0.11,0.064,0.11,0.105
		s-0.026,0.083-0.079,0.127c-0.062,0.047-0.119,0.127-0.171,0.242c-0.111,0.258-0.22,0.492-0.325,0.703h1.591V3.198
		c0-0.475-0.021-0.82-0.062-1.037c0.217,0.009,0.417,0.028,0.602,0.057c0.073,0.009,0.11,0.035,0.11,0.079
		c0,0.018-0.006,0.042-0.018,0.075c-0.015,0.041-0.025,0.067-0.031,0.079c-0.035,0.108-0.053,0.346-0.053,0.712v0.602h1.468
		l1.252-0.018c0.047,0,0.07,0.023,0.07,0.07v0.391c0,0.047-0.023,0.07-0.07,0.07l-1.252-0.018h-1.468V5.87h2.439l1.178-0.018
		c0.05,0,0.075,0.021,0.075,0.062V6.323z"/>
</g>
<g>
	<path fill="#003366" d="M0,17.961h6.785v6.785H0V17.961z"/>
	<path fill="#003366" d="M15.486,25.348c0,0.05-0.023,0.075-0.07,0.075H14.99c-0.047,0-0.07-0.025-0.07-0.075v-0.404h-4.562
		l-1.279,0.018c-0.041,0-0.062-0.023-0.062-0.07v-0.409c0-0.047,0.021-0.07,0.062-0.07l1.279,0.018h4.562V23.01h-4.096l-1.257,0.018
		c-0.056,0-0.083-0.023-0.083-0.07v-0.391c0-0.047,0.028-0.07,0.083-0.07l1.257,0.018h4.096v-1.375h-4.465l-1.266,0.018
		c-0.05,0-0.075-0.023-0.075-0.07v-0.4c0-0.053,0.025-0.079,0.075-0.079l1.266,0.018h1.63v-2.197c0-0.466-0.021-0.804-0.062-1.015
		c0.261,0.012,0.47,0.029,0.628,0.053c0.073,0.009,0.11,0.04,0.11,0.092c0,0.029-0.018,0.086-0.053,0.171
		c-0.038,0.07-0.057,0.303-0.057,0.699v2.197h1.485l1.279-0.018c0.047,0,0.07,0.026,0.07,0.079l-0.018,1.081v2.285L15.486,25.348z
		 M10.978,19.745c0.012,0.026,0.018,0.045,0.018,0.057c0,0.026-0.032,0.057-0.097,0.092l-0.259,0.136
		c-0.059,0.032-0.097,0.048-0.114,0.048s-0.034-0.019-0.048-0.057c-0.255-0.647-0.584-1.232-0.989-1.753
		c-0.015-0.021-0.022-0.035-0.022-0.044c0-0.021,0.034-0.048,0.101-0.083l0.25-0.136c0.05-0.026,0.082-0.04,0.097-0.04
		s0.031,0.013,0.048,0.04C10.402,18.585,10.74,19.165,10.978,19.745z M15.434,18.26c0,0.029-0.026,0.062-0.079,0.097
		c-0.05,0.041-0.095,0.101-0.136,0.18c-0.275,0.533-0.587,1.034-0.936,1.503c-0.053,0.073-0.092,0.11-0.119,0.11
		c-0.021,0-0.064-0.025-0.132-0.075c-0.088-0.064-0.196-0.119-0.325-0.163c0.413-0.527,0.754-1.075,1.024-1.644
		c0.056-0.123,0.092-0.24,0.11-0.352c0.17,0.064,0.347,0.145,0.532,0.242C15.413,18.182,15.434,18.216,15.434,18.26z"/>
	<path fill="#003366" d="M24.047,25.032c0,0.047-0.023,0.07-0.07,0.07h-0.435c-0.047,0-0.07-0.023-0.07-0.07v-0.549h-4.166v0.567
		c0,0.047-0.021,0.07-0.062,0.07H18.8c-0.047,0-0.07-0.023-0.07-0.07l0.018-3.085v-1.736l-0.018-2.268
		c0-0.05,0.023-0.075,0.07-0.075l1.252,0.018h2.672l1.252-0.018c0.047,0,0.07,0.025,0.07,0.075L24.029,20v1.964L24.047,25.032z
		 M23.471,20.857v-2.439h-4.166v2.439H23.471z M23.471,23.968v-2.606h-4.166v2.606H23.471z"/>
	<path fill="#003366" d="M34.291,21.046c0,0.05-0.037,0.095-0.11,0.136c-0.079,0.041-0.186,0.141-0.321,0.299
		c-0.357,0.422-0.746,0.794-1.165,1.116c-0.062,0.053-0.104,0.079-0.127,0.079c-0.015,0-0.064-0.034-0.149-0.101
		c-0.132-0.094-0.262-0.166-0.391-0.215c0.542-0.357,0.968-0.729,1.279-1.116h-2.5v1.973l0.009,1.23
		c0,0.316-0.078,0.536-0.233,0.659c-0.152,0.114-0.519,0.171-1.099,0.171c-0.082,0-0.145,0-0.189,0c-0.1,0-0.158-0.01-0.176-0.031
		c-0.018-0.018-0.037-0.07-0.057-0.158c-0.038-0.149-0.098-0.297-0.18-0.444c0.36,0.038,0.672,0.057,0.936,0.057
		c0.164,0,0.274-0.028,0.33-0.083c0.05-0.05,0.075-0.139,0.075-0.268v-3.107h-2.276l-1.2,0.018c-0.047,0-0.07-0.023-0.07-0.07
		v-0.435c0-0.047,0.023-0.07,0.07-0.07l1.2,0.018h2.826c-0.516-0.489-1.148-0.945-1.898-1.367c-0.032-0.018-0.048-0.031-0.048-0.04
		s0.022-0.041,0.066-0.097l0.18-0.207c0.032-0.035,0.057-0.053,0.075-0.053c0.012,0,0.028,0.007,0.048,0.022
		c0.398,0.211,0.781,0.447,1.147,0.708c0.838-0.463,1.5-0.907,1.986-1.332h-3.538l-1.266,0.018c-0.044,0-0.066-0.023-0.066-0.07
		v-0.417c0-0.047,0.022-0.07,0.066-0.07l1.266,0.018h3.771c0.1,0,0.173-0.009,0.22-0.026c0.073-0.029,0.114-0.044,0.123-0.044
		c0.056,0,0.149,0.066,0.281,0.198s0.198,0.231,0.198,0.299c0,0.05-0.042,0.091-0.127,0.123c-0.1,0.035-0.204,0.098-0.312,0.189
		c-0.609,0.516-1.33,0.995-2.162,1.437c0.108,0.088,0.289,0.245,0.541,0.47c0.021,0.018,0.031,0.031,0.031,0.04
		c0,0.006-0.026,0.034-0.079,0.083l-0.123,0.119h2.338c0.111,0,0.188-0.012,0.229-0.035c0.047-0.023,0.082-0.035,0.105-0.035
		c0.05,0,0.146,0.057,0.29,0.171C34.23,20.91,34.291,20.99,34.291,21.046z"/>
	<path fill="#003366" d="M39.028,21.885c0.009,0.023,0.013,0.042,0.013,0.057c0,0.032-0.038,0.06-0.114,0.083l-0.207,0.066
		c-0.041,0.012-0.07,0.018-0.088,0.018c-0.026,0-0.044-0.019-0.053-0.057c-0.088-0.27-0.145-0.442-0.171-0.519l-0.866,0.088v2.413
		l0.018,1.314c0,0.041-0.023,0.062-0.07,0.062h-0.409c-0.047,0-0.07-0.021-0.07-0.062l0.018-1.314v-2.369L36.04,21.74
		c-0.17,0.015-0.284,0.038-0.343,0.07c-0.047,0.023-0.081,0.035-0.101,0.035c-0.038,0-0.067-0.038-0.088-0.114
		c-0.023-0.091-0.054-0.256-0.092-0.497c0.19,0.018,0.379,0.026,0.567,0.026h0.11c0.214-0.278,0.439-0.59,0.677-0.936
		c-0.486-0.577-0.929-1.039-1.327-1.384c-0.026-0.023-0.04-0.044-0.04-0.062s0.023-0.051,0.07-0.101l0.154-0.189
		c0.038-0.044,0.066-0.066,0.083-0.066c0.015,0,0.034,0.013,0.057,0.04l0.343,0.334c0.223-0.346,0.42-0.686,0.593-1.02
		c0.123-0.231,0.202-0.435,0.237-0.611c0.161,0.064,0.328,0.139,0.501,0.224c0.067,0.032,0.101,0.072,0.101,0.119
		c0,0.032-0.026,0.064-0.079,0.097c-0.053,0.035-0.104,0.098-0.154,0.189c-0.316,0.524-0.605,0.971-0.866,1.34
		c0.205,0.205,0.406,0.425,0.602,0.659c0.223-0.357,0.417-0.678,0.584-0.962c0.193-0.346,0.313-0.601,0.36-0.765
		c0.188,0.079,0.353,0.163,0.497,0.25c0.053,0.032,0.079,0.069,0.079,0.11c0,0.038-0.029,0.076-0.088,0.114
		c-0.07,0.05-0.176,0.182-0.316,0.396c-0.495,0.791-0.996,1.523-1.503,2.197c0.58-0.032,1.109-0.067,1.586-0.105
		c-0.114-0.258-0.231-0.489-0.352-0.694c-0.012-0.021-0.018-0.037-0.018-0.048c0-0.023,0.035-0.05,0.105-0.079l0.163-0.062
		c0.041-0.021,0.073-0.031,0.097-0.031s0.045,0.016,0.066,0.048C38.597,20.773,38.837,21.314,39.028,21.885z M36.497,22.505
		c0,0.012-0.015,0.047-0.044,0.105c-0.026,0.047-0.048,0.135-0.066,0.264c-0.085,0.636-0.231,1.22-0.439,1.753
		c-0.023,0.085-0.05,0.127-0.079,0.127c-0.023,0-0.069-0.023-0.136-0.07c-0.079-0.064-0.182-0.11-0.308-0.136
		c0.229-0.521,0.391-1.113,0.488-1.775c0.015-0.097,0.022-0.19,0.022-0.281c0-0.038-0.001-0.088-0.004-0.149
		c0.167,0.018,0.313,0.041,0.439,0.07C36.454,22.43,36.497,22.461,36.497,22.505z M39.006,24.096
		c0.003,0.012,0.004,0.023,0.004,0.035c0,0.044-0.037,0.078-0.11,0.101l-0.215,0.062c-0.047,0.015-0.081,0.022-0.101,0.022
		c-0.023,0-0.041-0.022-0.053-0.066c-0.12-0.656-0.277-1.232-0.47-1.727c-0.009-0.023-0.013-0.041-0.013-0.053
		c0-0.032,0.035-0.057,0.105-0.075l0.189-0.053c0.035-0.009,0.06-0.013,0.075-0.013c0.029,0,0.056,0.022,0.079,0.066
		C38.722,22.94,38.892,23.507,39.006,24.096z M43.084,18.941c-0.012,0.152-0.018,0.381-0.018,0.686
		c-0.018,1.863-0.114,3.318-0.29,4.364c-0.085,0.495-0.215,0.845-0.391,1.05c-0.173,0.202-0.417,0.305-0.734,0.308
		c-0.316,0-0.595-0.015-0.835-0.044c-0.094-0.009-0.151-0.025-0.171-0.048c-0.018-0.023-0.035-0.079-0.053-0.167
		c-0.026-0.141-0.075-0.275-0.145-0.404c0.504,0.082,0.894,0.123,1.169,0.123c0.19,0,0.338-0.108,0.444-0.325
		c0.073-0.152,0.136-0.382,0.189-0.69c0.167-0.976,0.25-2.448,0.25-4.417h-2.628c-0.208,0.404-0.46,0.794-0.756,1.169
		c-0.05,0.067-0.092,0.101-0.127,0.101c-0.029,0-0.073-0.031-0.132-0.092c-0.105-0.103-0.202-0.174-0.29-0.215
		c0.583-0.656,1.018-1.421,1.305-2.294c0.097-0.305,0.154-0.57,0.171-0.795c0.226,0.044,0.412,0.092,0.558,0.145
		c0.085,0.029,0.127,0.066,0.127,0.11c0,0.047-0.026,0.1-0.079,0.158c-0.085,0.085-0.161,0.23-0.229,0.435
		c-0.062,0.193-0.164,0.454-0.308,0.782h1.92l0.971-0.018C43.058,18.862,43.084,18.888,43.084,18.941z M41.221,22.514
		c0.015,0.026,0.022,0.045,0.022,0.057c0,0.023-0.031,0.053-0.092,0.088l-0.25,0.141c-0.062,0.038-0.101,0.057-0.119,0.057
		s-0.035-0.018-0.053-0.053c-0.255-0.577-0.618-1.151-1.09-1.723c-0.021-0.021-0.031-0.038-0.031-0.053
		c0-0.021,0.031-0.05,0.092-0.088l0.224-0.136c0.038-0.026,0.066-0.04,0.083-0.04c0.015,0,0.032,0.013,0.053,0.04
		C40.503,21.279,40.89,21.849,41.221,22.514z"/>
	<path fill="#003366" d="M52.299,18.374c0,0.047-0.023,0.07-0.07,0.07c-0.006,0-0.048-0.001-0.127-0.004
		c-0.252-0.006-0.548-0.01-0.888-0.013v4.267l0.018,1.674c0,0.34-0.085,0.568-0.255,0.686c-0.155,0.117-0.532,0.176-1.129,0.176
		c-0.111,0-0.242-0.001-0.391-0.004c-0.094,0-0.149-0.009-0.167-0.026c-0.015-0.018-0.034-0.069-0.057-0.154
		c-0.047-0.173-0.107-0.312-0.18-0.417c0.313,0.032,0.674,0.048,1.081,0.048c0.202,0,0.335-0.025,0.4-0.075s0.097-0.142,0.097-0.277
		v-5.897H45.76l-1.182,0.018c-0.047,0-0.07-0.023-0.07-0.07v-0.422c0-0.05,0.023-0.075,0.07-0.075l1.182,0.018h5.291l1.178-0.018
		c0.047,0,0.07,0.025,0.07,0.075V18.374z M48.946,23.296c0,0.05-0.025,0.075-0.075,0.075h-0.404c-0.053,0-0.079-0.025-0.079-0.075
		v-0.439h-2.171v0.694c0,0.047-0.025,0.07-0.075,0.07h-0.413c-0.047,0-0.07-0.023-0.07-0.07l0.018-1.674v-0.883l-0.018-1.134
		c0-0.047,0.023-0.07,0.07-0.07l0.971,0.018h1.2l0.971-0.018c0.05,0,0.075,0.023,0.075,0.07l-0.018,0.936v0.91L48.946,23.296z
		 M48.388,22.351v-2.039h-2.171v2.039H48.388z"/>
</g>
<g>
	<path fill="#003366" d="M62.986,2.588c0.012-0.463,0.018-0.772,0.018-0.927c0-0.343-0.023-0.624-0.07-0.844
		c0.325,0.029,0.565,0.073,0.721,0.132c0.073,0.029,0.11,0.075,0.11,0.136c0,0.026-0.015,0.066-0.044,0.119
		c-0.067,0.132-0.104,0.284-0.11,0.457c-0.015,0.179-0.026,0.454-0.035,0.826c0.448-0.091,0.888-0.217,1.318-0.378
		c0.026-0.009,0.047-0.013,0.062-0.013c0.032,0,0.051,0.025,0.057,0.075c0.023,0.17,0.035,0.297,0.035,0.382
		c0,0.053-0.034,0.091-0.101,0.114c-0.454,0.158-0.921,0.281-1.402,0.369c-0.009,0.337-0.013,0.697-0.013,1.081
		c0,0.217,0.001,0.463,0.004,0.738c0.943-0.457,1.727-0.686,2.351-0.686c0.577,0,1.028,0.171,1.354,0.514
		c0.272,0.287,0.409,0.646,0.409,1.077c0,0.571-0.192,1.002-0.576,1.292c-0.325,0.243-0.757,0.365-1.296,0.365
		c-0.272,0-0.513-0.037-0.721-0.11c-0.073-0.021-0.114-0.098-0.123-0.233c-0.023-0.141-0.072-0.278-0.145-0.413
		c0.275,0.126,0.596,0.189,0.962,0.189c0.404,0,0.721-0.104,0.949-0.312c0.214-0.193,0.321-0.457,0.321-0.791
		c0-0.357-0.122-0.634-0.365-0.831c-0.217-0.173-0.51-0.259-0.879-0.259c-0.527,0-1.274,0.252-2.241,0.756
		c0,0.302,0.016,0.76,0.048,1.375c0.006,0.152,0.018,0.338,0.035,0.558C63.631,7.5,63.637,7.6,63.637,7.646
		c0,0.117-0.034,0.186-0.101,0.207c-0.167,0.041-0.293,0.062-0.378,0.062c-0.035,0-0.078-0.028-0.127-0.083
		c-0.003-0.006-0.037-0.045-0.101-0.119c-0.038-0.044-0.075-0.085-0.11-0.123c-0.255-0.272-0.69-0.608-1.305-1.006
		c-0.05,0.029-0.152,0.095-0.308,0.198c-0.053,0.041-0.095,0.062-0.127,0.062c-0.041,0-0.086-0.034-0.136-0.101
		c-0.079-0.114-0.171-0.296-0.277-0.545c0.311-0.079,0.602-0.185,0.875-0.316c0.305-0.146,0.79-0.41,1.455-0.791
		c-0.006-0.428-0.009-1.084-0.009-1.969c-0.554,0.064-1.102,0.097-1.644,0.097c-0.097,0-0.154-0.045-0.171-0.136
		c-0.026-0.105-0.045-0.246-0.057-0.422c0.158,0.009,0.321,0.013,0.488,0.013C62.044,2.672,62.506,2.644,62.986,2.588z
		 M62.995,5.665c-0.059,0.032-0.442,0.264-1.151,0.694c0.694,0.401,1.068,0.617,1.121,0.646c0.018,0.012,0.034,0.018,0.048,0.018
		c0.026,0,0.04-0.026,0.04-0.079c-0.003-0.073-0.012-0.287-0.026-0.642C63.017,6.059,63.007,5.846,62.995,5.665z M66.032,2.325
		c0.047-0.1,0.119-0.226,0.215-0.378c0.026-0.05,0.059-0.075,0.097-0.075c0.009,0,0.018,0,0.026,0
		c0.768,0.158,1.362,0.473,1.784,0.945c0.018,0.023,0.026,0.044,0.026,0.062s-0.009,0.037-0.026,0.057
		c-0.108,0.161-0.205,0.284-0.29,0.369c-0.021,0.021-0.04,0.031-0.057,0.031s-0.037-0.01-0.057-0.031
		C67.258,2.786,66.685,2.459,66.032,2.325z"/>
	<path fill="#003366" d="M77.203,3.327c0,0.047-0.028,0.07-0.083,0.07h-0.387c-0.047,0-0.07-0.023-0.07-0.07V2.004h-3.063v0.962
		l0.018,0.892c0,0.047-0.023,0.07-0.07,0.07H73.12c-0.047,0-0.07-0.023-0.07-0.07l0.018-0.892V2.004h-2.914v1.323
		c0,0.047-0.023,0.07-0.07,0.07h-0.396c-0.05,0-0.075-0.023-0.075-0.07l0.018-0.918V2.114l-0.018-0.47c0-0.047,0.023-0.07,0.07-0.07
		l1.226,0.018h2.158V1.02h-1.529l-1.274,0.018c-0.05,0-0.075-0.023-0.075-0.07V0.624c0-0.047,0.025-0.07,0.075-0.07l1.274,0.018
		H75.3l1.274-0.018c0.047,0,0.07,0.023,0.07,0.07v0.343c0,0.047-0.023,0.07-0.07,0.07L75.3,1.02h-1.701v0.571h2.298l1.226-0.018
		c0.053,0,0.079,0.023,0.079,0.07l-0.018,0.413v0.352L77.203,3.327z M77.405,6.812C77.37,7.14,77.307,7.386,77.216,7.55
		c-0.07,0.126-0.168,0.23-0.294,0.312c-0.27,0.173-0.857,0.259-1.762,0.259c-0.771,0-1.308-0.032-1.613-0.097
		c-0.343-0.088-0.514-0.346-0.514-0.773V6.82h-1.995v0.431c0,0.047-0.025,0.07-0.075,0.07h-0.396c-0.041,0-0.062-0.023-0.062-0.07
		l0.018-0.826V5.12L70.505,4.28c0-0.053,0.021-0.079,0.062-0.079l1.349,0.018h2.892l1.332-0.018c0.047,0,0.07,0.026,0.07,0.079
		l-0.018,0.795v0.901l0.018,0.791c0,0.047-0.023,0.07-0.07,0.07L74.808,6.82h-1.252v0.286c0,0.173,0.032,0.294,0.097,0.365
		c0.05,0.056,0.132,0.095,0.246,0.119c0.208,0.035,0.621,0.053,1.239,0.053c0.768,0,1.26-0.075,1.477-0.224
		c0.097-0.07,0.164-0.18,0.202-0.33c0.041-0.149,0.067-0.382,0.079-0.699C77,6.466,77.126,6.532,77.273,6.587
		c0.094,0.032,0.141,0.075,0.141,0.127C77.414,6.735,77.411,6.768,77.405,6.812z M72.483,2.777c0,0.05-0.023,0.075-0.07,0.075
		l-0.584-0.009h-0.422l-0.589,0.009c-0.047,0-0.07-0.025-0.07-0.075v-0.25c0-0.047,0.023-0.07,0.07-0.07l0.589,0.018h0.422
		l0.584-0.018c0.047,0,0.07,0.023,0.07,0.07V2.777z M72.483,3.586c0,0.05-0.023,0.075-0.07,0.075l-0.584-0.018h-0.422l-0.589,0.018
		c-0.047,0-0.07-0.025-0.07-0.075v-0.25c0-0.047,0.023-0.07,0.07-0.07l0.589,0.018h0.422l0.584-0.018c0.047,0,0.07,0.023,0.07,0.07
		V3.586z M73.032,5.3V4.641h-1.995V5.3H73.032z M73.032,6.407V5.695h-1.995v0.712H73.032z M75.669,5.3V4.641h-2.114V5.3H75.669z
		 M75.669,6.407V5.695h-2.114v0.712H75.669z M76.038,2.777c0,0.05-0.023,0.075-0.07,0.075l-0.611-0.009h-0.479l-0.602,0.009
		c-0.05,0-0.075-0.025-0.075-0.075v-0.25c0-0.047,0.025-0.07,0.075-0.07l0.602,0.018h0.479l0.611-0.018
		c0.047,0,0.07,0.023,0.07,0.07V2.777z M76.038,3.586c0,0.05-0.023,0.075-0.07,0.075l-0.611-0.018h-0.479l-0.602,0.018
		c-0.05,0-0.075-0.025-0.075-0.075v-0.25c0-0.047,0.025-0.07,0.075-0.07l0.602,0.018h0.479l0.611-0.018
		c0.047,0,0.07,0.023,0.07,0.07V3.586z"/>
	<path fill="#003366" d="M81.584,2.303c0,0.053-0.025,0.079-0.075,0.079l-0.945-0.018h-1.107l-0.945,0.018
		c-0.047,0-0.07-0.026-0.07-0.079V1.929c0-0.047,0.023-0.07,0.07-0.07l0.945,0.018h1.107l0.945-0.018c0.05,0,0.075,0.023,0.075,0.07
		V2.303z M81.333,8.082c0,0.047-0.025,0.07-0.075,0.07H80.89c-0.047,0-0.07-0.023-0.07-0.07V7.783H79.36V8.24
		c0,0.05-0.023,0.075-0.07,0.075h-0.369c-0.05,0-0.075-0.025-0.075-0.075l0.018-1.323V6.368l-0.018-0.782
		c0-0.047,0.023-0.07,0.07-0.07l0.795,0.018h0.747l0.804-0.018c0.047,0,0.07,0.023,0.07,0.07l-0.018,0.642v0.584L81.333,8.082z
		 M81.369,1.059c0,0.047-0.025,0.07-0.075,0.07l-0.791-0.018h-0.773l-0.791,0.018c-0.05,0-0.075-0.023-0.075-0.07v-0.36
		c0-0.047,0.025-0.07,0.075-0.07l0.791,0.018h0.773l0.791-0.018c0.05,0,0.075,0.023,0.075,0.07V1.059z M81.241,3.524
		c0,0.047-0.028,0.07-0.083,0.07l-0.734-0.018h-0.677L79,3.595c-0.047,0-0.07-0.023-0.07-0.07V3.173c0-0.047,0.023-0.07,0.07-0.07
		l0.747,0.018h0.677l0.734-0.018c0.056,0,0.083,0.023,0.083,0.07V3.524z M81.241,4.72c0,0.05-0.028,0.075-0.083,0.075l-0.734-0.018
		h-0.677L79,4.794c-0.047,0-0.07-0.025-0.07-0.075V4.368c0-0.047,0.023-0.07,0.07-0.07l0.747,0.018h0.677l0.734-0.018
		c0.056,0,0.083,0.023,0.083,0.07V4.72z M80.819,7.343V5.972H79.36v1.371H80.819z M86.453,3.489c0,0.047-0.025,0.07-0.075,0.07
		l-1.204-0.018h-0.936v1.485h0.523l1.072-0.018c0.047,0,0.07,0.023,0.07,0.07l-0.018,0.848v0.765l0.018,1.494
		c0,0.047-0.023,0.07-0.07,0.07h-0.409c-0.047,0-0.07-0.023-0.07-0.07V7.792h-2.681V8.24c0,0.05-0.023,0.075-0.07,0.075h-0.409
		c-0.047,0-0.07-0.025-0.07-0.075l0.018-1.521V6.047L82.125,5.08c0-0.047,0.023-0.07,0.07-0.07l1.072,0.018h0.431V3.542h-0.756
		L81.747,3.56c-0.047,0-0.07-0.023-0.07-0.07V3.098c0-0.047,0.023-0.07,0.07-0.07l1.195,0.018h0.756V1.521
		c-0.486,0.108-0.987,0.198-1.503,0.268c-0.041,0.006-0.07,0.009-0.088,0.009c-0.044,0-0.083-0.045-0.119-0.136
		c-0.05-0.132-0.122-0.245-0.215-0.338c1.254-0.117,2.333-0.357,3.239-0.721c0.231-0.097,0.409-0.196,0.532-0.299
		c0.152,0.132,0.275,0.258,0.369,0.378c0.041,0.05,0.062,0.095,0.062,0.136c0,0.047-0.048,0.07-0.145,0.07
		c-0.079,0-0.171,0.022-0.277,0.066c-0.448,0.167-0.886,0.311-1.314,0.431v1.661h0.936l1.204-0.018c0.05,0,0.075,0.023,0.075,0.07
		V3.489z M85.354,7.313V5.506h-2.681v1.806H85.354z"/>
	<path fill="#003366" d="M87.736,6.231c0.021,0,0.054,0.018,0.101,0.053c0.656,0.416,1.232,0.957,1.727,1.622
		c0.029,0.047,0.044,0.083,0.044,0.11c0,0.038-0.021,0.073-0.062,0.105l-0.325,0.272c-0.044,0.035-0.073,0.053-0.088,0.053
		c-0.038,0-0.072-0.023-0.101-0.07c-0.489-0.706-1.042-1.267-1.657-1.683c-0.041-0.026-0.062-0.047-0.062-0.062
		c0-0.023,0.015-0.054,0.044-0.092l0.281-0.25C87.675,6.25,87.707,6.231,87.736,6.231z"/>
	<path fill="#003366" d="M100.221,5.818c-0.029-0.504-0.047-0.957-0.053-1.358c-0.302,0.012-0.593,0.018-0.875,0.018
		c-0.439,0-0.838-0.015-1.195-0.044c-0.059,0-0.092-0.037-0.101-0.11c-0.018-0.117-0.026-0.27-0.026-0.457
		c0.442,0.053,0.932,0.079,1.468,0.079c0.249,0,0.485-0.006,0.708-0.018l-0.009-1.34c-0.334,0.015-0.646,0.022-0.936,0.022
		c-0.519,0-1-0.022-1.446-0.066c-0.047-0.009-0.075-0.038-0.083-0.088c-0.023-0.182-0.035-0.338-0.035-0.47
		c0.489,0.062,1.031,0.092,1.626,0.092c0.275,0,0.567-0.007,0.875-0.022l-0.009-0.945c-0.006-0.243-0.032-0.441-0.079-0.593
		c0.319,0.029,0.557,0.069,0.712,0.119c0.067,0.023,0.101,0.067,0.101,0.132c0,0.026-0.007,0.051-0.022,0.075
		c-0.062,0.097-0.097,0.234-0.105,0.413c-0.006,0.073-0.016,0.334-0.031,0.782c0.662-0.05,1.395-0.149,2.197-0.299
		c0.021-0.003,0.035-0.004,0.044-0.004c0.032,0,0.051,0.023,0.057,0.07c0.018,0.144,0.026,0.275,0.026,0.396
		c0,0.059-0.021,0.088-0.062,0.088c-0.747,0.126-1.501,0.214-2.263,0.264c0,0.606,0.004,1.05,0.013,1.332
		c0.647-0.041,1.31-0.127,1.986-0.259c0.018-0.006,0.032-0.009,0.044-0.009c0.029,0,0.048,0.018,0.057,0.053l0.009,0.431
		c0,0.053-0.031,0.083-0.092,0.092c-0.656,0.12-1.318,0.201-1.986,0.242c0,0.413,0.021,0.91,0.062,1.49
		c0.902,0.252,1.704,0.639,2.404,1.16c0.032,0.026,0.048,0.056,0.048,0.088c0,0.021-0.004,0.042-0.013,0.066
		c-0.044,0.141-0.119,0.27-0.224,0.387c-0.026,0.032-0.053,0.048-0.079,0.048c-0.015,0-0.034-0.007-0.057-0.022
		c-0.68-0.53-1.364-0.911-2.052-1.143c0.006,0.527-0.144,0.902-0.448,1.125c-0.258,0.188-0.646,0.281-1.165,0.281
		c-0.551,0-0.964-0.108-1.239-0.325c-0.234-0.182-0.352-0.431-0.352-0.747c0-0.328,0.166-0.598,0.497-0.809
		c0.302-0.193,0.688-0.29,1.16-0.29C99.628,5.744,99.943,5.769,100.221,5.818z M100.23,6.354c-0.343-0.076-0.661-0.114-0.954-0.114
		c-0.39,0-0.686,0.062-0.888,0.185c-0.164,0.1-0.246,0.227-0.246,0.382c0,0.372,0.335,0.558,1.006,0.558
		c0.454,0,0.76-0.094,0.918-0.281c0.111-0.138,0.167-0.334,0.167-0.589C100.234,6.454,100.233,6.407,100.23,6.354z"/>
	<path fill="#003366" d="M108.558,2.338c0.404-0.07,0.882-0.193,1.433-0.369c0.015-0.006,0.029-0.009,0.044-0.009
		c0.035,0,0.056,0.023,0.062,0.07c0.021,0.114,0.037,0.237,0.048,0.369c0,0.015,0,0.026,0,0.035c0,0.053-0.031,0.086-0.092,0.101
		c-0.606,0.167-1.15,0.29-1.63,0.369c-0.548,1.904-1.124,3.543-1.727,4.917c-0.021,0.047-0.045,0.07-0.075,0.07
		c-0.015,0-0.035-0.006-0.062-0.018c-0.12-0.044-0.261-0.11-0.422-0.198c-0.029-0.018-0.044-0.042-0.044-0.075
		c0-0.012,0.003-0.025,0.009-0.04c0.691-1.471,1.252-2.991,1.683-4.562c-0.58,0.064-1.187,0.101-1.819,0.11
		c-0.082,0-0.13-0.031-0.145-0.092c-0.029-0.208-0.053-0.372-0.07-0.492c0.114,0.012,0.303,0.018,0.567,0.018
		c0.501,0,1.042-0.037,1.622-0.11c0.108-0.41,0.196-0.788,0.264-1.134c0.05-0.281,0.075-0.517,0.075-0.708
		c0-0.05-0.003-0.095-0.009-0.136c0.272,0.047,0.514,0.116,0.725,0.207c0.047,0.018,0.07,0.05,0.07,0.097
		c0,0.041-0.023,0.089-0.07,0.145c-0.059,0.076-0.107,0.193-0.145,0.352c-0.038,0.129-0.091,0.324-0.158,0.584
		C108.634,2.064,108.59,2.229,108.558,2.338z M109.116,6.205c0.17-0.032,0.311-0.048,0.422-0.048c0.059,0,0.092,0.029,0.101,0.088
		c0.032,0.425,0.201,0.718,0.505,0.879c0.258,0.138,0.656,0.207,1.195,0.207c0.357,0,0.801-0.04,1.332-0.119
		c0.023-0.003,0.04-0.004,0.048-0.004c0.035,0,0.056,0.022,0.062,0.066c0.023,0.146,0.035,0.292,0.035,0.435
		c0,0.07-0.034,0.108-0.101,0.114c-0.369,0.062-0.762,0.092-1.178,0.092c-0.958,0-1.619-0.166-1.982-0.497
		C109.271,7.175,109.125,6.771,109.116,6.205z M109.792,4.254c-0.021-0.155-0.031-0.315-0.031-0.479c0-0.07,0.04-0.116,0.119-0.136
		c0.563-0.126,1.087-0.189,1.573-0.189c0.272,0,0.645,0.031,1.116,0.092c0.082,0.012,0.127,0.044,0.136,0.097
		c0.009,0.082,0.013,0.176,0.013,0.281c0,0.044-0.001,0.082-0.004,0.114c-0.006,0.082-0.031,0.123-0.075,0.123
		c-0.012,0-0.025-0.001-0.04-0.004c-0.407-0.067-0.792-0.101-1.156-0.101C110.953,4.052,110.402,4.119,109.792,4.254z"/>
	<path fill="#003366" d="M115.664,0.835c0.267,0.053,0.48,0.13,0.642,0.233c0.062,0.041,0.092,0.086,0.092,0.136
		c0,0.029-0.013,0.064-0.04,0.105c-0.053,0.091-0.101,0.242-0.145,0.453c-0.287,1.38-0.431,2.515-0.431,3.406
		c0,0.718,0.021,1.245,0.062,1.582c0.082-0.211,0.293-0.7,0.633-1.468c0.041,0.114,0.108,0.237,0.202,0.369
		c0.026,0.038,0.04,0.072,0.04,0.101c0,0.023-0.01,0.056-0.031,0.097c-0.322,0.729-0.501,1.203-0.536,1.419
		c-0.012,0.114-0.018,0.205-0.018,0.272c0,0.05,0.003,0.094,0.009,0.132c0.003,0.018,0.004,0.032,0.004,0.044
		c0,0.029-0.018,0.054-0.053,0.075c-0.111,0.047-0.246,0.085-0.404,0.114c-0.015,0.006-0.028,0.009-0.04,0.009
		c-0.032,0-0.057-0.026-0.075-0.079c-0.229-0.58-0.343-1.463-0.343-2.65c0-0.788,0.129-1.941,0.387-3.458
		c0.038-0.249,0.057-0.472,0.057-0.668C115.677,0.974,115.672,0.899,115.664,0.835z M119.812,5.678
		c-0.041-0.873-0.062-1.708-0.062-2.505c-0.425,0.023-0.803,0.035-1.134,0.035c-0.299,0-0.59-0.009-0.875-0.026
		c-0.059,0-0.091-0.026-0.097-0.079c-0.023-0.167-0.035-0.327-0.035-0.479c0.34,0.023,0.688,0.035,1.046,0.035
		c0.363,0,0.722-0.012,1.077-0.035l0.009-1.033c0-0.278-0.029-0.545-0.088-0.8c0.287,0.026,0.517,0.067,0.69,0.123
		c0.067,0.029,0.101,0.066,0.101,0.11c0,0.035-0.012,0.078-0.035,0.127c-0.038,0.064-0.063,0.208-0.075,0.431
		c-0.012,0.208-0.018,0.541-0.018,0.998c0.457-0.044,0.93-0.111,1.419-0.202c0.021-0.006,0.035-0.009,0.044-0.009
		c0.026,0,0.042,0.023,0.048,0.07c0.023,0.132,0.035,0.25,0.035,0.356c0,0.062-0.021,0.098-0.062,0.11
		c-0.363,0.085-0.858,0.157-1.485,0.215c0.009,0.993,0.037,1.898,0.083,2.716c0.598,0.252,1.125,0.563,1.582,0.932
		c0.023,0.018,0.035,0.035,0.035,0.053c0,0.012-0.006,0.032-0.018,0.062c-0.064,0.146-0.145,0.278-0.242,0.396
		c-0.018,0.026-0.037,0.04-0.057,0.04c-0.015,0-0.032-0.01-0.053-0.031c-0.41-0.346-0.829-0.621-1.257-0.826
		c-0.038,0.809-0.541,1.213-1.507,1.213c-0.457,0-0.812-0.101-1.063-0.303c-0.226-0.179-0.338-0.419-0.338-0.721
		c0-0.349,0.152-0.623,0.457-0.822c0.255-0.167,0.564-0.25,0.927-0.25C119.195,5.577,119.51,5.61,119.812,5.678z M119.812,6.223
		c-0.352-0.1-0.678-0.149-0.98-0.149c-0.272,0-0.483,0.056-0.633,0.167c-0.135,0.103-0.202,0.239-0.202,0.409
		c0,0.182,0.086,0.318,0.259,0.409c0.152,0.079,0.353,0.119,0.602,0.119c0.636,0,0.954-0.261,0.954-0.782V6.223z"/>
	<path fill="#003366" d="M131.835,2.896l-1.323,4.597h-0.918l-0.602-2.584c-0.091-0.398-0.193-0.872-0.308-1.419h-0.141
		c-0.152,0.788-0.249,1.266-0.29,1.433l-0.62,2.571h-0.918l-1.305-4.597h0.773l0.611,2.584c0.05,0.196,0.108,0.454,0.176,0.773
		c0.064,0.305,0.111,0.52,0.141,0.646h0.145c0.029-0.129,0.082-0.378,0.158-0.747c0.056-0.272,0.104-0.494,0.145-0.664l0.606-2.593
		h0.954l0.593,2.562c0.132,0.58,0.234,1.061,0.308,1.441h0.141c0.029-0.126,0.086-0.381,0.171-0.765
		c0.059-0.27,0.11-0.495,0.154-0.677l0.628-2.562H131.835z"/>
	<path fill="#003366" d="M136.582,5.3h-3.221c0,0.592,0.139,1.044,0.417,1.358c0.234,0.264,0.545,0.396,0.932,0.396
		c0.606,0,0.996-0.312,1.169-0.936l0.677,0.224c-0.302,0.841-0.92,1.261-1.854,1.261c-0.671,0-1.191-0.24-1.56-0.721
		c-0.328-0.425-0.492-0.983-0.492-1.674c0-0.773,0.212-1.387,0.637-1.841c0.363-0.387,0.814-0.58,1.354-0.58
		c0.615,0,1.102,0.234,1.459,0.703c0.322,0.422,0.483,0.971,0.483,1.648V5.3z M135.87,4.777c-0.038-0.492-0.177-0.863-0.417-1.112
		c-0.208-0.214-0.476-0.321-0.804-0.321c-0.381,0-0.688,0.146-0.923,0.439c-0.202,0.255-0.318,0.586-0.347,0.993H135.87z"/>
	<path fill="#003366" d="M138.66,0.743v2.856c0.167-0.275,0.381-0.485,0.642-0.628c0.223-0.123,0.456-0.185,0.699-0.185
		c0.56,0,1,0.234,1.323,0.703c0.296,0.431,0.444,0.998,0.444,1.701c0,0.788-0.201,1.409-0.602,1.863
		c-0.331,0.372-0.737,0.558-1.217,0.558c-0.577,0-1.024-0.283-1.34-0.848l-0.136,0.729h-0.541v-6.75H138.66z M138.66,4.28v1.881
		c0.299,0.571,0.677,0.857,1.134,0.857c0.384,0,0.688-0.174,0.914-0.523c0.208-0.325,0.312-0.757,0.312-1.296
		c0-0.618-0.126-1.087-0.378-1.406c-0.205-0.264-0.47-0.396-0.795-0.396C139.354,3.397,138.959,3.691,138.66,4.28z"/>
	<path fill="#003366" d="M145.432,2.369c0.249,0,0.621-0.035,1.116-0.105c1.673-0.27,3.533-0.532,5.581-0.787
		c0.012,0,0.022,0,0.031,0c0.064,0,0.105,0.025,0.123,0.075c0.035,0.155,0.053,0.305,0.053,0.448c0,0.064-0.04,0.101-0.119,0.11
		c-0.498,0.026-0.936,0.116-1.314,0.268c-0.724,0.287-1.301,0.708-1.731,1.261c-0.393,0.501-0.589,1.025-0.589,1.573
		c0,1.219,0.873,1.9,2.619,2.043c0.097,0.009,0.145,0.042,0.145,0.101c0,0.12-0.018,0.264-0.053,0.431
		c-0.018,0.085-0.057,0.127-0.119,0.127c-0.003,0-0.012,0-0.026,0c-0.961-0.085-1.717-0.337-2.268-0.756
		c-0.595-0.451-0.892-1.066-0.892-1.846c0-1.266,0.731-2.285,2.193-3.059l-0.009-0.018c-1.646,0.261-2.864,0.473-3.652,0.637
		c-0.255,0.05-0.435,0.101-0.541,0.154c-0.1,0.041-0.157,0.062-0.171,0.062c-0.053,0-0.095-0.026-0.127-0.079
		C145.606,2.855,145.523,2.641,145.432,2.369z M150.938,3.744l0.334-0.242c0.012-0.009,0.025-0.013,0.04-0.013
		s0.032,0.007,0.053,0.022c0.369,0.258,0.708,0.621,1.015,1.09c0.012,0.015,0.018,0.028,0.018,0.04c0,0.023-0.012,0.042-0.035,0.057
		l-0.259,0.22c-0.021,0.015-0.04,0.022-0.057,0.022c-0.026,0-0.047-0.013-0.062-0.04C151.706,4.428,151.357,4.043,150.938,3.744z
		 M151.734,3.146l0.286-0.229c0.023-0.015,0.042-0.022,0.057-0.022s0.029,0.006,0.044,0.018c0.428,0.331,0.771,0.681,1.028,1.05
		c0.009,0.018,0.013,0.032,0.013,0.044c0,0.021-0.015,0.041-0.044,0.062l-0.242,0.22c-0.018,0.015-0.034,0.022-0.048,0.022
		c-0.021,0-0.041-0.015-0.062-0.044C152.503,3.836,152.159,3.463,151.734,3.146z"/>
	<path fill="#003366" d="M155.557,4.917c0.094,0.047,0.226,0.12,0.396,0.22c0.032,0.015,0.048,0.034,0.048,0.057
		c0,0.018-0.007,0.037-0.022,0.057c-0.161,0.264-0.242,0.498-0.242,0.703c0,0.732,0.768,1.099,2.303,1.099
		c0.996,0,1.857-0.086,2.584-0.259c0.023-0.006,0.041-0.009,0.053-0.009c0.035,0,0.059,0.023,0.07,0.07
		c0.029,0.103,0.057,0.258,0.083,0.466c0,0.006,0,0.013,0,0.022c0,0.047-0.04,0.079-0.119,0.097
		c-0.759,0.155-1.667,0.233-2.725,0.233c-1.866,0-2.799-0.564-2.799-1.692C155.188,5.638,155.311,5.284,155.557,4.917z
		 M155.808,1.564c0.618,0.135,1.368,0.202,2.25,0.202c0.703,0,1.367-0.026,1.991-0.079c0.015,0,0.025,0,0.031,0
		c0.056,0,0.088,0.028,0.097,0.083c0.018,0.117,0.026,0.252,0.026,0.404c0,0.082-0.042,0.127-0.127,0.136
		c-0.683,0.097-1.459,0.438-2.329,1.024c-0.047,0.035-0.094,0.053-0.141,0.053c-0.041,0-0.079-0.012-0.114-0.035
		c-0.117-0.088-0.24-0.148-0.369-0.18c0.516-0.352,1.033-0.652,1.551-0.901c-0.267,0.023-0.592,0.035-0.976,0.035
		c-0.712,0-1.321-0.054-1.828-0.163c-0.053-0.009-0.079-0.05-0.079-0.123C155.79,1.919,155.796,1.767,155.808,1.564z M160.048,0.853
		l0.325-0.237c0.018-0.012,0.034-0.018,0.048-0.018s0.031,0.007,0.048,0.022c0.372,0.258,0.71,0.62,1.015,1.085
		c0.012,0.015,0.018,0.029,0.018,0.044c0,0.021-0.01,0.04-0.031,0.057l-0.264,0.215c-0.018,0.015-0.035,0.022-0.053,0.022
		c-0.026,0-0.048-0.013-0.066-0.04C160.812,1.532,160.464,1.148,160.048,0.853z M160.839,0.246l0.29-0.224
		C161.15,0.007,161.169,0,161.187,0c0.012,0,0.025,0.006,0.04,0.018c0.431,0.331,0.773,0.681,1.028,1.05
		c0.009,0.015,0.013,0.029,0.013,0.044c0,0.021-0.013,0.041-0.04,0.062l-0.246,0.22c-0.015,0.015-0.031,0.022-0.048,0.022
		c-0.021,0-0.04-0.015-0.057-0.044C161.61,0.938,161.264,0.563,160.839,0.246z"/>
	<path fill="#003366" d="M170.956,3.929c0,0.05-0.037,0.095-0.11,0.136c-0.079,0.041-0.186,0.141-0.321,0.299
		c-0.357,0.422-0.746,0.794-1.165,1.116c-0.062,0.053-0.104,0.079-0.127,0.079c-0.015,0-0.064-0.034-0.149-0.101
		c-0.132-0.094-0.262-0.166-0.391-0.215c0.542-0.357,0.968-0.729,1.279-1.116h-2.5V6.1l0.009,1.23c0,0.316-0.078,0.536-0.233,0.659
		c-0.152,0.114-0.519,0.171-1.099,0.171c-0.082,0-0.145,0-0.189,0c-0.1,0-0.158-0.01-0.176-0.031
		c-0.018-0.018-0.037-0.07-0.057-0.158c-0.038-0.149-0.098-0.297-0.18-0.444c0.36,0.038,0.672,0.057,0.936,0.057
		c0.164,0,0.274-0.028,0.33-0.083c0.05-0.05,0.075-0.139,0.075-0.268V4.126h-2.276l-1.2,0.018c-0.047,0-0.07-0.023-0.07-0.07V3.639
		c0-0.047,0.023-0.07,0.07-0.07l1.2,0.018h2.826c-0.516-0.489-1.148-0.945-1.898-1.367c-0.032-0.018-0.048-0.031-0.048-0.04
		s0.022-0.041,0.066-0.097l0.18-0.207c0.032-0.035,0.057-0.053,0.075-0.053c0.012,0,0.028,0.007,0.048,0.022
		c0.398,0.211,0.781,0.447,1.147,0.708c0.838-0.463,1.5-0.907,1.986-1.332h-3.538l-1.266,0.018c-0.044,0-0.066-0.023-0.066-0.07
		V0.751c0-0.047,0.022-0.07,0.066-0.07l1.266,0.018h3.771c0.1,0,0.173-0.009,0.22-0.026c0.073-0.029,0.114-0.044,0.123-0.044
		c0.056,0,0.149,0.066,0.281,0.198s0.198,0.231,0.198,0.299c0,0.05-0.042,0.091-0.127,0.123c-0.1,0.035-0.204,0.098-0.312,0.189
		c-0.609,0.516-1.33,0.995-2.162,1.437c0.108,0.088,0.289,0.245,0.541,0.47c0.021,0.018,0.031,0.031,0.031,0.04
		c0,0.006-0.026,0.034-0.079,0.083l-0.123,0.119h2.338c0.111,0,0.188-0.012,0.229-0.035c0.047-0.023,0.082-0.035,0.105-0.035
		c0.05,0,0.146,0.057,0.29,0.171C170.896,3.792,170.956,3.873,170.956,3.929z"/>
	<path fill="#003366" d="M175.693,4.768c0.009,0.023,0.013,0.042,0.013,0.057c0,0.032-0.038,0.06-0.114,0.083l-0.207,0.066
		c-0.041,0.012-0.07,0.018-0.088,0.018c-0.026,0-0.044-0.019-0.053-0.057c-0.088-0.27-0.145-0.442-0.171-0.519l-0.866,0.088v2.413
		l0.018,1.314c0,0.041-0.023,0.062-0.07,0.062h-0.409c-0.047,0-0.07-0.021-0.07-0.062l0.018-1.314V4.548l-0.989,0.075
		c-0.17,0.015-0.284,0.038-0.343,0.07c-0.047,0.023-0.081,0.035-0.101,0.035c-0.038,0-0.067-0.038-0.088-0.114
		c-0.023-0.091-0.054-0.256-0.092-0.497c0.19,0.018,0.379,0.026,0.567,0.026h0.11c0.214-0.278,0.439-0.59,0.677-0.936
		c-0.486-0.577-0.929-1.039-1.327-1.384c-0.026-0.023-0.04-0.044-0.04-0.062s0.023-0.051,0.07-0.101l0.154-0.189
		c0.038-0.044,0.066-0.066,0.083-0.066c0.015,0,0.034,0.013,0.057,0.04l0.343,0.334c0.223-0.346,0.42-0.686,0.593-1.02
		c0.123-0.231,0.202-0.435,0.237-0.611c0.161,0.064,0.328,0.139,0.501,0.224c0.067,0.032,0.101,0.072,0.101,0.119
		c0,0.032-0.026,0.064-0.079,0.097c-0.053,0.035-0.104,0.098-0.154,0.189c-0.316,0.524-0.605,0.971-0.866,1.34
		c0.205,0.205,0.406,0.425,0.602,0.659c0.223-0.357,0.417-0.678,0.584-0.962c0.193-0.346,0.313-0.601,0.36-0.765
		c0.188,0.079,0.353,0.163,0.497,0.25c0.053,0.032,0.079,0.069,0.079,0.11c0,0.038-0.029,0.076-0.088,0.114
		c-0.07,0.05-0.176,0.182-0.316,0.396c-0.495,0.791-0.996,1.523-1.503,2.197c0.58-0.032,1.109-0.067,1.586-0.105
		c-0.114-0.258-0.231-0.489-0.352-0.694c-0.012-0.021-0.018-0.037-0.018-0.048c0-0.023,0.035-0.05,0.105-0.079l0.163-0.062
		c0.041-0.021,0.073-0.031,0.097-0.031s0.045,0.016,0.066,0.048C175.262,3.656,175.502,4.197,175.693,4.768z M173.162,5.388
		c0,0.012-0.015,0.047-0.044,0.105c-0.026,0.047-0.048,0.135-0.066,0.264c-0.085,0.636-0.231,1.22-0.439,1.753
		c-0.023,0.085-0.05,0.127-0.079,0.127c-0.023,0-0.069-0.023-0.136-0.07c-0.079-0.064-0.182-0.11-0.308-0.136
		c0.229-0.521,0.391-1.113,0.488-1.775c0.015-0.097,0.022-0.19,0.022-0.281c0-0.038-0.001-0.088-0.004-0.149
		c0.167,0.018,0.313,0.041,0.439,0.07C173.119,5.313,173.162,5.344,173.162,5.388z M175.671,6.979
		c0.003,0.012,0.004,0.023,0.004,0.035c0,0.044-0.037,0.078-0.11,0.101l-0.215,0.062c-0.047,0.015-0.081,0.022-0.101,0.022
		c-0.023,0-0.041-0.022-0.053-0.066c-0.12-0.656-0.277-1.232-0.47-1.727c-0.009-0.023-0.013-0.041-0.013-0.053
		c0-0.032,0.035-0.057,0.105-0.075l0.189-0.053c0.035-0.009,0.06-0.013,0.075-0.013c0.029,0,0.056,0.022,0.079,0.066
		C175.387,5.823,175.557,6.39,175.671,6.979z M179.749,1.824c-0.012,0.152-0.018,0.381-0.018,0.686
		c-0.018,1.863-0.114,3.318-0.29,4.364c-0.085,0.495-0.215,0.845-0.391,1.05c-0.173,0.202-0.417,0.305-0.734,0.308
		c-0.316,0-0.595-0.015-0.835-0.044c-0.094-0.009-0.151-0.025-0.171-0.048c-0.018-0.023-0.035-0.079-0.053-0.167
		c-0.026-0.141-0.075-0.275-0.145-0.404c0.504,0.082,0.894,0.123,1.169,0.123c0.19,0,0.338-0.108,0.444-0.325
		c0.073-0.152,0.136-0.382,0.189-0.69c0.167-0.976,0.25-2.448,0.25-4.417h-2.628c-0.208,0.404-0.46,0.794-0.756,1.169
		c-0.05,0.067-0.092,0.101-0.127,0.101c-0.029,0-0.073-0.031-0.132-0.092c-0.105-0.103-0.202-0.174-0.29-0.215
		c0.583-0.656,1.018-1.421,1.305-2.294c0.097-0.305,0.154-0.57,0.171-0.795c0.226,0.044,0.412,0.092,0.558,0.145
		c0.085,0.029,0.127,0.066,0.127,0.11c0,0.047-0.026,0.1-0.079,0.158c-0.085,0.085-0.161,0.23-0.229,0.435
		c-0.062,0.193-0.164,0.454-0.308,0.782h1.92l0.971-0.018C179.723,1.745,179.749,1.771,179.749,1.824z M177.886,5.396
		c0.015,0.026,0.022,0.045,0.022,0.057c0,0.023-0.031,0.053-0.092,0.088l-0.25,0.141c-0.062,0.038-0.101,0.057-0.119,0.057
		s-0.035-0.018-0.053-0.053c-0.255-0.577-0.618-1.151-1.09-1.723c-0.021-0.021-0.031-0.038-0.031-0.053
		c0-0.021,0.031-0.05,0.092-0.088l0.224-0.136c0.038-0.026,0.066-0.04,0.083-0.04c0.015,0,0.032,0.013,0.053,0.04
		C177.168,4.162,177.555,4.731,177.886,5.396z"/>
	<path fill="#003366" d="M185.959,0.519c0.277,0.179,0.471,0.322,0.58,0.431c0.041,0.044,0.061,0.083,0.061,0.119
		c0,0.047-0.029,0.086-0.088,0.119c-0.1,0.041-0.211,0.119-0.334,0.233c-1.242,1.14-2.127,1.992-2.654,2.558
		c-0.084,0.082-0.127,0.157-0.127,0.224c0,0.056,0.039,0.11,0.119,0.163c1.344,0.996,2.5,1.992,3.467,2.988
		c0.038,0.041,0.057,0.07,0.057,0.088c0,0.023-0.016,0.054-0.048,0.092c-0.085,0.1-0.198,0.212-0.339,0.338
		c-0.037,0.029-0.066,0.044-0.088,0.044c-0.025,0-0.054-0.021-0.083-0.062c-0.949-1.055-2.08-2.077-3.393-3.067
		c-0.234-0.182-0.352-0.371-0.352-0.567c0-0.17,0.105-0.365,0.316-0.584c0.302-0.322,0.739-0.771,1.313-1.345
		c0.707-0.715,1.105-1.119,1.195-1.213C185.727,0.904,185.859,0.718,185.959,0.519z"/>
	<path fill="#003366" d="M193.191,2.399c0.402-0.07,0.879-0.193,1.434-0.369c0.014-0.006,0.029-0.009,0.043-0.009
		c0.035,0,0.057,0.023,0.063,0.07c0.02,0.114,0.036,0.237,0.048,0.369c0,0.012,0,0.023,0,0.035c0,0.053-0.03,0.086-0.093,0.101
		c-0.604,0.164-1.146,0.287-1.63,0.369c-0.548,1.863-1.124,3.482-1.728,4.856c-0.02,0.047-0.045,0.07-0.074,0.07
		c-0.015,0-0.035-0.006-0.062-0.018c-0.12-0.044-0.261-0.11-0.422-0.198c-0.029-0.018-0.044-0.042-0.044-0.075
		c0-0.012,0.003-0.025,0.009-0.04c0.691-1.471,1.253-2.971,1.683-4.5c-0.586,0.064-1.191,0.101-1.818,0.11
		c-0.082,0-0.131-0.031-0.146-0.092c-0.029-0.217-0.053-0.381-0.07-0.492c0.114,0.012,0.304,0.018,0.567,0.018
		c0.504,0,1.044-0.037,1.621-0.11c0.108-0.413,0.196-0.791,0.264-1.134c0.05-0.281,0.074-0.517,0.074-0.708
		c0-0.05-0.002-0.095-0.008-0.136c0.271,0.047,0.514,0.116,0.725,0.207c0.047,0.018,0.07,0.05,0.07,0.097
		c0,0.038-0.023,0.086-0.07,0.145c-0.059,0.073-0.107,0.19-0.145,0.352c-0.039,0.126-0.092,0.321-0.158,0.584
		C193.268,2.123,193.225,2.288,193.191,2.399z M193.75,6.205c0.17-0.029,0.311-0.044,0.422-0.044c0.059,0,0.092,0.029,0.102,0.088
		c0.031,0.425,0.2,0.718,0.505,0.879c0.258,0.135,0.656,0.202,1.195,0.202c0.357,0,0.802-0.04,1.331-0.119
		c0.023-0.003,0.04-0.004,0.049-0.004c0.035,0,0.056,0.022,0.062,0.066c0.023,0.146,0.035,0.292,0.035,0.435
		c0,0.07-0.034,0.108-0.101,0.114c-0.373,0.062-0.766,0.092-1.178,0.092c-0.959,0-1.619-0.166-1.982-0.497
		C193.905,7.175,193.759,6.771,193.75,6.205z M194.427,4.315c-0.021-0.155-0.03-0.315-0.03-0.479c0-0.07,0.039-0.116,0.118-0.136
		c0.563-0.126,1.087-0.189,1.573-0.189c0.278,0,0.65,0.031,1.116,0.092c0.082,0.012,0.128,0.044,0.136,0.097
		c0.01,0.082,0.014,0.176,0.014,0.281c0,0.044-0.002,0.082-0.004,0.114c-0.006,0.082-0.031,0.123-0.075,0.123
		c-0.012,0-0.024-0.001-0.04-0.004c-0.406-0.067-0.792-0.101-1.155-0.101C195.584,4.113,195.033,4.181,194.427,4.315z M195.93,1.38
		l0.33-0.242c0.014-0.009,0.027-0.013,0.039-0.013c0.015,0,0.032,0.007,0.053,0.022c0.369,0.258,0.707,0.621,1.016,1.09
		c0.012,0.012,0.018,0.025,0.018,0.04c0,0.023-0.012,0.042-0.035,0.057l-0.26,0.215c-0.018,0.015-0.037,0.022-0.057,0.022
		c-0.023,0-0.045-0.013-0.063-0.04C196.693,2.06,196.346,1.676,195.93,1.38z M196.721,0.778l0.285-0.224
		c0.023-0.018,0.043-0.026,0.058-0.026s0.029,0.006,0.044,0.018c0.428,0.331,0.771,0.681,1.028,1.05
		c0.009,0.018,0.013,0.032,0.013,0.044c0,0.021-0.014,0.042-0.043,0.066l-0.242,0.215c-0.018,0.018-0.033,0.026-0.049,0.026
		c-0.02,0-0.041-0.015-0.061-0.044C197.49,1.472,197.146,1.097,196.721,0.778z"/>
	<path fill="#003366" d="M202.904,2.355c-0.133-0.328-0.27-0.68-0.414-1.055c-0.119-0.305-0.246-0.539-0.377-0.703
		c0.336-0.053,0.574-0.079,0.711-0.079c0.127,0,0.189,0.045,0.189,0.136l-0.004,0.101c0,0.053,0.004,0.097,0.013,0.132
		c0.023,0.173,0.077,0.374,0.163,0.602c0.088,0.246,0.186,0.498,0.294,0.756c0.835-0.193,1.493-0.385,1.974-0.576
		c0.02-0.006,0.037-0.009,0.053-0.009c0.031,0,0.057,0.019,0.074,0.057c0.047,0.105,0.085,0.237,0.114,0.396
		c0.003,0.015,0.005,0.026,0.005,0.035c0,0.041-0.017,0.067-0.049,0.079c-0.536,0.182-1.186,0.362-1.947,0.541
		c0.352,0.765,0.85,1.5,1.494,2.206c0.074,0.07,0.156,0.136,0.246,0.198c0.041,0.023,0.063,0.05,0.063,0.079
		c0,0.038-0.01,0.072-0.027,0.101c-0.061,0.103-0.139,0.221-0.232,0.356c-0.05,0.062-0.09,0.092-0.119,0.092
		c-0.018,0-0.054-0.018-0.109-0.053c-0.053-0.038-0.16-0.104-0.32-0.198c-0.627-0.325-1.309-0.488-2.044-0.488
		c-0.571,0-1.003,0.104-1.296,0.312c-0.252,0.176-0.379,0.422-0.379,0.738c0,0.431,0.271,0.749,0.813,0.954
		c0.422,0.158,0.961,0.237,1.617,0.237c0.492,0,0.925-0.037,1.296-0.11c-0.02,0.214-0.06,0.409-0.118,0.584
		c-0.018,0.047-0.056,0.078-0.114,0.092c-0.272,0.029-0.618,0.044-1.037,0.044c-0.946,0-1.693-0.158-2.241-0.475
		c-0.527-0.308-0.791-0.737-0.791-1.288c0-0.548,0.245-0.962,0.733-1.244c0.396-0.229,0.896-0.343,1.499-0.343
		c0.665,0,1.301,0.136,1.907,0.409c-0.539-0.583-1-1.28-1.385-2.092c-0.586,0.1-1.231,0.174-1.938,0.224
		c-0.293,0.021-0.506,0.031-0.637,0.031c-0.047,0-0.09-0.001-0.128-0.004c-0.044,0-0.079-0.035-0.105-0.105
		c-0.041-0.12-0.075-0.275-0.101-0.466c0.158,0.006,0.306,0.009,0.443,0.009c0.141,0,0.29-0.004,0.448-0.013
		C201.66,2.531,202.248,2.464,202.904,2.355z"/>
	<path fill="#003366" d="M208.828,1.507c0.27,0.029,0.506,0.092,0.711,0.189c0.053,0.026,0.08,0.06,0.08,0.101
		c0,0.023-0.012,0.078-0.035,0.163c-0.047,0.141-0.07,0.416-0.07,0.826c0,0.703,0.042,1.384,0.127,2.043
		c0.07,0.571,0.203,1.03,0.4,1.375c0.17,0.305,0.354,0.457,0.553,0.457c0.346,0,0.667-0.47,0.963-1.411
		c0.079,0.193,0.178,0.343,0.295,0.448c0.055,0.05,0.083,0.104,0.083,0.163c0,0.021-0.003,0.042-0.009,0.066
		c-0.149,0.428-0.346,0.771-0.589,1.028c-0.237,0.255-0.489,0.382-0.756,0.382c-0.393,0-0.732-0.262-1.02-0.787
		c-0.237-0.439-0.404-0.996-0.501-1.67c-0.108-0.771-0.162-1.607-0.162-2.509C208.898,2.03,208.875,1.742,208.828,1.507z
		 M213.438,2.632c0.161-0.108,0.293-0.189,0.396-0.242c0.029-0.015,0.056-0.022,0.079-0.022c0.021,0,0.038,0.007,0.053,0.022
		c0.935,0.817,1.521,1.856,1.758,3.116c0,0.009,0,0.016,0,0.022c0,0.038-0.021,0.07-0.066,0.097
		c-0.129,0.085-0.266,0.154-0.412,0.207c-0.012,0.003-0.023,0.004-0.035,0.004c-0.047,0-0.075-0.026-0.084-0.079
		C214.894,4.488,214.331,3.447,213.438,2.632z"/>
	<path fill="#003366" d="M218.275,5.937c0.373,0,0.686,0.138,0.941,0.413c0.219,0.237,0.329,0.517,0.329,0.839
		c0,0.369-0.141,0.678-0.422,0.927c-0.243,0.214-0.526,0.321-0.849,0.321c-0.371,0-0.686-0.138-0.939-0.413
		c-0.221-0.237-0.33-0.516-0.33-0.835c0-0.372,0.141-0.683,0.422-0.932C217.671,6.044,217.953,5.937,218.275,5.937z M218.275,6.385
		c-0.236,0-0.436,0.088-0.598,0.264c-0.137,0.155-0.206,0.335-0.206,0.541c0,0.234,0.089,0.432,0.269,0.593
		c0.152,0.138,0.33,0.207,0.535,0.207c0.24,0,0.439-0.088,0.598-0.264c0.139-0.152,0.207-0.331,0.207-0.536
		c0-0.24-0.088-0.439-0.264-0.598C218.664,6.454,218.484,6.385,218.275,6.385z"/>
</g>
</svg>
