<?xml version="1.0" encoding="utf-8"?>
<!-- Generator: Adobe Illustrator 16.0.0, SVG Export Plug-In . SVG Version: 6.00 Build 0)  -->
<!DOCTYPE svg PUBLIC "-//W3C//DTD SVG 1.1//EN" "http://www.w3.org/Graphics/SVG/1.1/DTD/svg11.dtd">
<svg version="1.1" id="レイヤー_1" xmlns="http://www.w3.org/2000/svg" xmlns:xlink="http://www.w3.org/1999/xlink" x="0px"
	 y="0px" width="219.546px" height="26.616px" viewBox="9.851 -41.972 219.546 26.616"
	 enable-background="new 9.851 -41.972 219.546 26.616" xml:space="preserve">
<g>
	<path fill="#003366" d="M70.017-22.809c1.536,0,2.87-0.375,4-1.125c0.141,0.261,0.211,0.498,0.211,0.711
		c0,0.365-0.453,0.703-1.359,1.016c-0.734,0.25-1.44,0.375-2.117,0.375c-0.276,0-0.464-0.067-0.563-0.203
		C70.074-22.181,70.017-22.438,70.017-22.809z M77.744-24.941c-0.104,0-0.32-0.01-0.648-0.031c-0.365-0.021-0.623-0.031-0.773-0.031
		c0-0.151-0.104-0.273-0.313-0.367c-0.167-0.078-0.362-0.117-0.586-0.117c-0.271,0-0.504,0.054-0.699,0.16
		c-0.195,0.107-0.293,0.236-0.293,0.387c-0.146,0-0.281,0.046-0.406,0.137c-0.125,0.091-0.188,0.189-0.188,0.293
		c0,0.099,0.018,0.195,0.055,0.289c-1.099,0.734-2.386,1.102-3.859,1.102c0.109-0.682,0.37-1.258,0.781-1.727
		c0.442-0.531,1.127-0.989,2.055-1.375c1.208-0.458,2.833-0.708,4.875-0.75c2.042,0.042,3.669,0.292,4.883,0.75
		c0.922,0.386,1.609,0.844,2.063,1.375c0.406,0.474,0.661,1.05,0.766,1.727c-1.474,0-2.758-0.367-3.852-1.102
		c0.031-0.094,0.047-0.19,0.047-0.289c0-0.114-0.068-0.216-0.203-0.305c-0.12-0.083-0.25-0.125-0.391-0.125
		c0-0.177-0.125-0.317-0.375-0.422c-0.188-0.083-0.394-0.125-0.617-0.125c-0.261,0-0.479,0.05-0.656,0.148
		c-0.162,0.094-0.242,0.206-0.242,0.336c-0.151,0-0.409,0.011-0.773,0.031C78.064-24.952,77.848-24.941,77.744-24.941z
		 M77.744-24.027c0.771,0,1.25-0.044,1.438-0.133c0.151-0.073,0.227-0.227,0.227-0.461v-0.094c0-0.297,0.219-0.445,0.656-0.445
		c0.208,0,0.385,0.047,0.531,0.141c0.125,0.089,0.188,0.19,0.188,0.305v0.211c0,0.933,0.161,1.69,0.484,2.273
		c0.229,0.417,0.661,0.943,1.297,1.578c0.463,0.469,0.778,0.873,0.945,1.211c0.141,0.287,0.224,0.636,0.25,1.047
		c0.016,0.183,0.12,0.461,0.313,0.836c0.146,0.287,0.219,0.539,0.219,0.758c0,0.328-0.091,0.558-0.273,0.688
		c-0.156,0.12-0.406,0.18-0.75,0.18H72.228c-0.683,0-1.023-0.289-1.023-0.867c0-0.224,0.088-0.51,0.266-0.859
		c0.156-0.302,0.245-0.547,0.266-0.734c0.042-0.474,0.151-0.87,0.328-1.188c0.167-0.302,0.456-0.659,0.867-1.07
		c0.719-0.719,1.188-1.323,1.406-1.813c0.245-0.531,0.367-1.211,0.367-2.039v-0.211c0-0.135,0.081-0.247,0.242-0.336
		c0.135-0.073,0.294-0.109,0.477-0.109c0.438,0,0.656,0.148,0.656,0.445v0.094c0,0.266,0.106,0.43,0.32,0.492
		C76.608-24.061,77.056-24.027,77.744-24.027z M77.744-16.73c0.963,0,1.768-0.349,2.414-1.047c0.557-0.609,0.836-1.323,0.836-2.141
		c0-0.942-0.357-1.729-1.07-2.359c-0.62-0.547-1.347-0.82-2.18-0.82c-0.964,0-1.769,0.349-2.414,1.047
		c-0.558,0.609-0.836,1.32-0.836,2.133c0,0.948,0.356,1.737,1.07,2.367C76.184-17.004,76.91-16.73,77.744-16.73z M77.736-21.754
		c0.536,0,0.987,0.201,1.352,0.602c0.313,0.349,0.469,0.755,0.469,1.219c0,0.542-0.201,0.995-0.602,1.359
		c-0.349,0.313-0.755,0.469-1.219,0.469c-0.547,0-1-0.2-1.359-0.602c-0.313-0.349-0.469-0.758-0.469-1.227
		c0-0.536,0.2-0.987,0.602-1.352C76.853-21.598,77.262-21.754,77.736-21.754z M85.47-22.809c0,0.417-0.073,0.695-0.219,0.836
		c-0.104,0.094-0.276,0.141-0.516,0.141c-0.797,0-1.591-0.159-2.383-0.477c-0.724-0.292-1.086-0.596-1.086-0.914
		c0-0.213,0.067-0.45,0.203-0.711C82.6-23.184,83.934-22.809,85.47-22.809z"/>
	<path fill="#003366" d="M94.775-27.355c1.229,0,2.127,0.529,2.695,1.586c0.526,0.974,0.789,2.425,0.789,4.352
		c0,4.042-1.172,6.063-3.516,6.063c-1.24,0-2.146-0.542-2.719-1.625c-0.526-0.995-0.789-2.463-0.789-4.406
		C91.236-25.366,92.416-27.355,94.775-27.355z M94.775-26.254c-0.787,0-1.352,0.412-1.695,1.234
		c-0.323,0.776-0.484,1.982-0.484,3.617c0,1.87,0.203,3.193,0.609,3.969c0.338,0.651,0.852,0.977,1.539,0.977
		c0.786,0,1.349-0.43,1.688-1.289c0.313-0.792,0.469-2.01,0.469-3.656c0-1.864-0.198-3.172-0.594-3.922
		C95.973-25.944,95.462-26.254,94.775-26.254z"/>
	<path fill="#003366" d="M106.994-27.168v0.992c-1.078,1.74-1.886,3.5-2.422,5.281c-0.479,1.589-0.797,3.365-0.953,5.328h-1.469
		c0.198-2.151,0.627-4.135,1.289-5.953c0.536-1.458,1.278-2.969,2.227-4.531h-5.484v-1.117H106.994z"/>
	<path fill="#003366" d="M110.587-17.535c0.313,0.74,0.807,1.109,1.484,1.109c0.864,0,1.502-0.417,1.914-1.25
		c0.391-0.792,0.606-2.002,0.648-3.633c-0.589,1.078-1.443,1.617-2.563,1.617c-0.943,0-1.706-0.377-2.289-1.133
		c-0.521-0.672-0.781-1.521-0.781-2.547c0-1.281,0.349-2.292,1.047-3.031c0.604-0.635,1.359-0.953,2.266-0.953
		c1.203,0,2.111,0.5,2.727,1.5c0.572,0.927,0.859,2.245,0.859,3.953c0,4.365-1.276,6.547-3.828,6.547
		c-1.354,0-2.276-0.528-2.766-1.586L110.587-17.535z M114.572-22.512c-0.037-2.516-0.773-3.773-2.211-3.773
		c-0.672,0-1.188,0.294-1.547,0.883c-0.313,0.505-0.469,1.177-0.469,2.016c0,0.859,0.208,1.529,0.625,2.008
		c0.349,0.401,0.791,0.602,1.328,0.602C113.251-20.777,114.009-21.355,114.572-22.512z"/>
	<path fill="#003366" d="M123.486-27.277v7.938h1.617v1.055h-1.617v2.719h-1.203v-2.719h-4.641v-0.992l4.016-8H123.486z
		 M122.283-19.34v-4.063c0-0.495,0.021-1.435,0.063-2.82h-0.273c-0.604,1.386-0.977,2.224-1.117,2.516l-2.125,4.367H122.283z"/>
	<path fill="#003366" d="M131.486-20.652v1.07h-4.445v-1.07H131.486z"/>
	<path fill="#003366" d="M142.337-27.355l-3.664,5.664l3.875,6.125h-1.602l-2.656-4.289c-0.188-0.323-0.347-0.578-0.477-0.766
		l-0.469,0.766l-2.617,4.289h-1.508l3.844-6.078l-3.57-5.711h1.586l2.352,3.836c0.104,0.183,0.273,0.466,0.508,0.852
		c0.078-0.114,0.174-0.271,0.289-0.469c0.119-0.213,0.2-0.352,0.242-0.414l2.367-3.805H142.337z"/>
	<path fill="#003366" d="M152.72-27.355l-3.664,5.664l3.875,6.125h-1.602l-2.656-4.289c-0.188-0.323-0.347-0.578-0.477-0.766
		l-0.469,0.766l-2.617,4.289h-1.508l3.844-6.078l-3.57-5.711h1.586l2.352,3.836c0.104,0.183,0.273,0.466,0.508,0.852
		c0.078-0.114,0.174-0.271,0.289-0.469c0.119-0.213,0.2-0.352,0.242-0.414l2.367-3.805H152.72z"/>
	<path fill="#003366" d="M159.103-20.652v1.07h-4.445v-1.07H159.103z"/>
	<path fill="#003366" d="M169.955-27.355l-3.664,5.664l3.875,6.125h-1.602l-2.656-4.289c-0.188-0.323-0.347-0.578-0.477-0.766
		l-0.469,0.766l-2.617,4.289h-1.508l3.844-6.078l-3.57-5.711h1.586l2.352,3.836c0.104,0.183,0.273,0.466,0.508,0.852
		c0.078-0.114,0.174-0.271,0.289-0.469c0.119-0.213,0.2-0.352,0.242-0.414l2.367-3.805H169.955z"/>
	<path fill="#003366" d="M180.337-27.355l-3.664,5.664l3.875,6.125h-1.602l-2.656-4.289c-0.188-0.323-0.347-0.578-0.477-0.766
		l-0.469,0.766l-2.617,4.289h-1.508l3.844-6.078l-3.57-5.711h1.586l2.352,3.836c0.104,0.183,0.273,0.466,0.508,0.852
		c0.078-0.114,0.174-0.271,0.289-0.469c0.119-0.213,0.2-0.352,0.242-0.414l2.367-3.805H180.337z"/>
	<path fill="#003366" d="M190.72-27.355l-3.664,5.664l3.875,6.125h-1.602l-2.656-4.289c-0.188-0.323-0.347-0.578-0.477-0.766
		l-0.469,0.766l-2.617,4.289h-1.508l3.844-6.078l-3.57-5.711h1.586l2.352,3.836c0.104,0.183,0.273,0.466,0.508,0.852
		c0.078-0.114,0.174-0.271,0.289-0.469c0.119-0.213,0.2-0.352,0.242-0.414l2.367-3.805H190.72z"/>
	<path fill="#003366" d="M201.103-27.355l-3.664,5.664l3.875,6.125h-1.602l-2.656-4.289c-0.188-0.323-0.347-0.578-0.477-0.766
		l-0.469,0.766l-2.617,4.289h-1.508l3.844-6.078l-3.57-5.711h1.586l2.352,3.836c0.104,0.183,0.273,0.466,0.508,0.852
		c0.078-0.114,0.174-0.271,0.289-0.469c0.119-0.213,0.2-0.352,0.242-0.414l2.367-3.805H201.103z"/>
</g>
<g>
	<path fill="#003366" d="M9.851-39.248h6.785v6.785H9.851V-39.248z"/>
	<path fill="#003366" d="M26.142-36.163c0,0.05-0.037,0.095-0.11,0.136c-0.079,0.041-0.186,0.141-0.321,0.299
		c-0.357,0.422-0.746,0.794-1.165,1.116c-0.062,0.053-0.104,0.079-0.127,0.079c-0.015,0-0.064-0.034-0.149-0.101
		c-0.132-0.094-0.262-0.166-0.391-0.215c0.542-0.357,0.968-0.729,1.279-1.116h-2.5v1.973l0.009,1.23
		c0,0.316-0.078,0.536-0.233,0.659c-0.152,0.114-0.519,0.171-1.099,0.171c-0.082,0-0.145,0-0.189,0c-0.1,0-0.158-0.01-0.176-0.031
		c-0.018-0.018-0.037-0.07-0.057-0.158c-0.038-0.149-0.098-0.297-0.18-0.444c0.36,0.038,0.672,0.057,0.936,0.057
		c0.164,0,0.274-0.028,0.33-0.083c0.05-0.05,0.075-0.139,0.075-0.268v-3.107h-2.276l-1.2,0.018c-0.047,0-0.07-0.023-0.07-0.07
		v-0.435c0-0.047,0.023-0.07,0.07-0.07l1.2,0.018h2.826c-0.516-0.489-1.148-0.945-1.898-1.367c-0.032-0.018-0.048-0.031-0.048-0.04
		s0.022-0.041,0.066-0.097l0.18-0.207c0.032-0.035,0.057-0.053,0.075-0.053c0.012,0,0.028,0.007,0.048,0.022
		c0.398,0.211,0.781,0.447,1.147,0.708c0.838-0.463,1.5-0.907,1.986-1.332H20.64l-1.266,0.018c-0.044,0-0.066-0.023-0.066-0.07
		v-0.417c0-0.047,0.022-0.07,0.066-0.07l1.266,0.018h3.771c0.1,0,0.173-0.009,0.22-0.026c0.073-0.029,0.114-0.044,0.123-0.044
		c0.056,0,0.149,0.066,0.281,0.198s0.198,0.231,0.198,0.299c0,0.05-0.042,0.091-0.127,0.123c-0.1,0.035-0.204,0.098-0.312,0.189
		c-0.609,0.516-1.33,0.995-2.162,1.437c0.108,0.088,0.289,0.245,0.541,0.47c0.021,0.018,0.031,0.031,0.031,0.04
		c0,0.006-0.026,0.034-0.079,0.083L23-36.506h2.338c0.111,0,0.188-0.012,0.229-0.035c0.047-0.023,0.082-0.035,0.105-0.035
		c0.05,0,0.146,0.057,0.29,0.171C26.082-36.299,26.142-36.219,26.142-36.163z"/>
	<path fill="#003366" d="M30.879-35.324c0.009,0.023,0.013,0.042,0.013,0.057c0,0.032-0.038,0.06-0.114,0.083l-0.207,0.066
		c-0.041,0.012-0.07,0.018-0.088,0.018c-0.026,0-0.044-0.019-0.053-0.057c-0.088-0.27-0.145-0.442-0.171-0.519l-0.866,0.088v2.413
		l0.018,1.314c0,0.041-0.023,0.062-0.07,0.062h-0.409c-0.047,0-0.07-0.021-0.07-0.062l0.018-1.314v-2.369l-0.989,0.075
		c-0.17,0.015-0.284,0.038-0.343,0.07c-0.047,0.023-0.081,0.035-0.101,0.035c-0.038,0-0.067-0.038-0.088-0.114
		c-0.023-0.091-0.054-0.256-0.092-0.497c0.19,0.018,0.379,0.026,0.567,0.026h0.11c0.214-0.278,0.439-0.59,0.677-0.936
		c-0.486-0.577-0.929-1.039-1.327-1.384c-0.026-0.023-0.04-0.044-0.04-0.062s0.023-0.051,0.07-0.101l0.154-0.189
		c0.038-0.044,0.066-0.066,0.083-0.066c0.015,0,0.034,0.013,0.057,0.04l0.343,0.334c0.223-0.346,0.42-0.686,0.593-1.02
		c0.123-0.231,0.202-0.435,0.237-0.611c0.161,0.064,0.328,0.139,0.501,0.224c0.067,0.032,0.101,0.072,0.101,0.119
		c0,0.032-0.026,0.064-0.079,0.097c-0.053,0.035-0.104,0.098-0.154,0.189c-0.316,0.524-0.605,0.971-0.866,1.34
		c0.205,0.205,0.406,0.425,0.602,0.659c0.223-0.357,0.417-0.678,0.584-0.962c0.193-0.346,0.313-0.601,0.36-0.765
		c0.188,0.079,0.353,0.163,0.497,0.25c0.053,0.032,0.079,0.069,0.079,0.11c0,0.038-0.029,0.076-0.088,0.114
		c-0.07,0.05-0.176,0.182-0.316,0.396c-0.495,0.791-0.996,1.523-1.503,2.197c0.58-0.032,1.109-0.067,1.586-0.105
		c-0.114-0.258-0.231-0.489-0.352-0.694c-0.012-0.021-0.018-0.037-0.018-0.048c0-0.023,0.035-0.05,0.105-0.079l0.163-0.062
		c0.041-0.021,0.073-0.031,0.097-0.031s0.045,0.016,0.066,0.048C30.448-36.436,30.688-35.895,30.879-35.324z M28.348-34.704
		c0,0.012-0.015,0.047-0.044,0.105c-0.026,0.047-0.048,0.135-0.066,0.264c-0.085,0.636-0.231,1.22-0.439,1.753
		c-0.023,0.085-0.05,0.127-0.079,0.127c-0.023,0-0.069-0.023-0.136-0.07c-0.079-0.064-0.182-0.11-0.308-0.136
		c0.229-0.521,0.391-1.113,0.488-1.775c0.015-0.097,0.022-0.19,0.022-0.281c0-0.038-0.001-0.088-0.004-0.149
		c0.167,0.018,0.313,0.041,0.439,0.07C28.305-34.779,28.348-34.748,28.348-34.704z M30.857-33.113
		c0.003,0.012,0.004,0.023,0.004,0.035c0,0.044-0.037,0.078-0.11,0.101l-0.215,0.062c-0.047,0.015-0.081,0.022-0.101,0.022
		c-0.023,0-0.041-0.022-0.053-0.066c-0.12-0.656-0.277-1.232-0.47-1.727c-0.009-0.023-0.013-0.041-0.013-0.053
		c0-0.032,0.035-0.057,0.105-0.075l0.189-0.053c0.035-0.009,0.06-0.013,0.075-0.013c0.029,0,0.056,0.022,0.079,0.066
		C30.573-34.269,30.743-33.702,30.857-33.113z M34.935-38.268c-0.012,0.152-0.018,0.381-0.018,0.686
		c-0.018,1.863-0.114,3.318-0.29,4.364c-0.085,0.495-0.215,0.845-0.391,1.05c-0.173,0.202-0.417,0.305-0.734,0.308
		c-0.316,0-0.595-0.015-0.835-0.044c-0.094-0.009-0.151-0.025-0.171-0.048c-0.018-0.023-0.035-0.079-0.053-0.167
		c-0.026-0.141-0.075-0.275-0.145-0.404c0.504,0.082,0.894,0.123,1.169,0.123c0.19,0,0.338-0.108,0.444-0.325
		c0.073-0.152,0.136-0.382,0.189-0.69c0.167-0.976,0.25-2.448,0.25-4.417h-2.628c-0.208,0.404-0.46,0.794-0.756,1.169
		c-0.05,0.067-0.092,0.101-0.127,0.101c-0.029,0-0.073-0.031-0.132-0.092c-0.105-0.103-0.202-0.174-0.29-0.215
		c0.583-0.656,1.018-1.421,1.305-2.294c0.097-0.305,0.154-0.57,0.171-0.795c0.226,0.044,0.412,0.092,0.558,0.145
		c0.085,0.029,0.127,0.066,0.127,0.11c0,0.047-0.026,0.1-0.079,0.158c-0.085,0.085-0.161,0.23-0.229,0.435
		c-0.062,0.193-0.164,0.454-0.308,0.782h1.92l0.971-0.018C34.909-38.347,34.935-38.321,34.935-38.268z M33.072-34.695
		c0.015,0.026,0.022,0.045,0.022,0.057c0,0.023-0.031,0.053-0.092,0.088l-0.25,0.141c-0.062,0.038-0.101,0.057-0.119,0.057
		s-0.035-0.018-0.053-0.053c-0.255-0.577-0.618-1.151-1.09-1.723c-0.021-0.021-0.031-0.038-0.031-0.053
		c0-0.021,0.031-0.05,0.092-0.088l0.224-0.136c0.038-0.026,0.066-0.04,0.083-0.04c0.015,0,0.032,0.013,0.053,0.04
		C32.354-35.93,32.741-35.36,33.072-34.695z"/>
	<path fill="#003366" d="M38.459-39.617c0,0.038-0.026,0.079-0.079,0.123c-0.038,0.032-0.092,0.152-0.163,0.36
		c-0.155,0.448-0.344,0.895-0.567,1.34v4.509l0.018,1.415c0,0.047-0.023,0.07-0.07,0.07h-0.417c-0.047,0-0.07-0.023-0.07-0.07
		l0.018-1.415v-2.338c0-0.27,0.006-0.693,0.018-1.27c-0.234,0.378-0.507,0.754-0.817,1.129c-0.062,0.059-0.098,0.088-0.11,0.088
		c-0.021,0-0.044-0.034-0.07-0.101c-0.053-0.138-0.125-0.252-0.215-0.343c0.838-0.981,1.434-2.043,1.789-3.186
		c0.067-0.229,0.11-0.432,0.127-0.611c0.211,0.059,0.385,0.122,0.523,0.189C38.43-39.701,38.459-39.664,38.459-39.617z
		 M44.401-32.393c-0.088,0.114-0.151,0.226-0.189,0.334c-0.032,0.108-0.076,0.163-0.132,0.163c-0.015,0-0.048-0.003-0.101-0.009
		c-1.198-0.135-2.134-0.369-2.808-0.703c-0.624,0.305-1.515,0.548-2.672,0.729c-0.059,0.009-0.098,0.013-0.119,0.013
		c-0.047,0-0.092-0.047-0.136-0.141c-0.044-0.105-0.101-0.198-0.171-0.277c1.116-0.132,1.995-0.327,2.637-0.584
		c-0.308-0.196-0.595-0.445-0.861-0.747c-0.357,0.246-0.79,0.476-1.296,0.69c-0.07,0.026-0.116,0.04-0.136,0.04
		c-0.029,0-0.067-0.037-0.114-0.11c-0.064-0.105-0.133-0.186-0.207-0.242c1.063-0.387,1.819-0.841,2.268-1.362
		c-0.272-0.07-0.409-0.246-0.409-0.527v-0.229c0-0.202-0.012-0.366-0.035-0.492c0.202,0.009,0.359,0.023,0.47,0.044
		c0.047,0.009,0.07,0.032,0.07,0.07c0,0.023-0.012,0.054-0.035,0.092c-0.018,0.026-0.026,0.116-0.026,0.268v0.154
		c0,0.164,0.078,0.258,0.233,0.281c0.152,0.023,0.396,0.035,0.729,0.035c0.366,0,0.606-0.029,0.721-0.088
		c0.135-0.073,0.215-0.258,0.242-0.554c0.088,0.062,0.174,0.107,0.259,0.136c0.094,0.038,0.141,0.076,0.141,0.114
		c0,0.018-0.004,0.051-0.013,0.101c-0.064,0.27-0.193,0.45-0.387,0.541c-0.164,0.079-0.502,0.119-1.015,0.119
		c-0.211,0-0.365-0.003-0.461-0.009c-0.123,0.164-0.249,0.305-0.378,0.422h1.828c0.053,0,0.098-0.009,0.136-0.026
		c0.023-0.012,0.047-0.018,0.07-0.018c0.035,0,0.11,0.054,0.224,0.163c0.097,0.088,0.145,0.154,0.145,0.198
		s-0.026,0.078-0.079,0.101c-0.041,0.015-0.129,0.073-0.264,0.176c-0.278,0.246-0.563,0.46-0.853,0.642
		C42.242-32.674,43.15-32.51,44.401-32.393z M44.247-35.425c0,0.05-0.023,0.075-0.07,0.075h-0.343c-0.047,0-0.07-0.025-0.07-0.075
		v-0.602h-5.032v0.747c0,0.047-0.023,0.07-0.07,0.07h-0.343c-0.05,0-0.075-0.023-0.075-0.07l0.018-0.611v-0.154l-0.018-0.299
		c0-0.047,0.023-0.07,0.07-0.07l0.993,0.018v-1.384l-0.018-0.787c0-0.047,0.023-0.07,0.07-0.07l1.072,0.018h0.224
		c0.073-0.179,0.133-0.338,0.18-0.479h-0.892l-1.248,0.018c-0.05,0-0.075-0.023-0.075-0.07v-0.299c0-0.047,0.025-0.07,0.075-0.07
		l1.248,0.018h2.821l1.257-0.018c0.05,0,0.075,0.023,0.075,0.07v0.299c0,0.047-0.025,0.07-0.075,0.07l-1.257-0.018H41.36
		c-0.073,0.214-0.133,0.374-0.18,0.479h0.729l1.063-0.018c0.053,0,0.079,0.023,0.079,0.07l-0.018,0.787v1.384l1.143-0.018
		c0.041,0,0.062,0.023,0.062,0.07l-0.009,0.237v0.149L44.247-35.425z M39.624-35.324c-0.249,0.378-0.51,0.687-0.782,0.927
		c-0.023,0.018-0.042,0.026-0.057,0.026c-0.018,0-0.044-0.016-0.079-0.048l-0.154-0.132c-0.047-0.041-0.07-0.07-0.07-0.088
		c0-0.015,0.012-0.031,0.035-0.048c0.27-0.226,0.513-0.511,0.729-0.857c0.018-0.026,0.032-0.04,0.044-0.04
		c0.018,0,0.053,0.016,0.105,0.048l0.171,0.101c0.047,0.029,0.07,0.053,0.07,0.07C39.637-35.354,39.633-35.341,39.624-35.324z
		 M42.546-37.873v-0.413h-2.751v0.413H42.546z M42.546-37.143v-0.422h-2.751v0.422H42.546z M42.546-36.396v-0.439h-2.751v0.439
		H42.546z M42.16-33.759h-1.934c0.296,0.275,0.617,0.501,0.962,0.677C41.543-33.276,41.867-33.501,42.16-33.759z M41.72-35.469
		c0.018,0.021,0.026,0.038,0.026,0.053s-0.018,0.035-0.053,0.062l-0.171,0.136c-0.041,0.029-0.069,0.044-0.083,0.044
		s-0.035-0.018-0.062-0.053c-0.138-0.173-0.284-0.319-0.439-0.439c-0.029-0.023-0.044-0.041-0.044-0.053
		c0-0.018,0.021-0.04,0.062-0.066l0.171-0.114c0.026-0.021,0.047-0.031,0.062-0.031s0.035,0.01,0.062,0.031
		C41.408-35.788,41.565-35.645,41.72-35.469z M44.049-34.774c0.015,0.015,0.022,0.029,0.022,0.044c0,0.021-0.019,0.047-0.057,0.079
		l-0.171,0.145c-0.05,0.041-0.085,0.062-0.105,0.062c-0.015,0-0.034-0.015-0.057-0.044c-0.223-0.319-0.476-0.614-0.76-0.883
		c-0.023-0.018-0.035-0.032-0.035-0.044c0-0.018,0.022-0.044,0.066-0.079l0.154-0.127c0.029-0.026,0.053-0.04,0.07-0.04
		c0.015,0,0.034,0.01,0.057,0.031C43.569-35.327,43.841-35.041,44.049-34.774z"/>
	<path fill="#003366" d="M53.142-35.649c0,0.047-0.025,0.07-0.075,0.07l-1.178-0.018h-1.503v2.369c0,0.346,0.031,0.555,0.092,0.628
		c0.082,0.103,0.366,0.154,0.853,0.154c0.519,0,0.854-0.081,1.006-0.242c0.152-0.152,0.243-0.564,0.272-1.235
		c0.105,0.082,0.229,0.145,0.369,0.189c0.097,0.029,0.145,0.076,0.145,0.141c0,0.012-0.001,0.037-0.004,0.075
		c-0.038,0.589-0.17,0.995-0.396,1.217c-0.138,0.144-0.312,0.242-0.523,0.294c-0.205,0.05-0.501,0.075-0.888,0.075
		c-0.715,0-1.15-0.089-1.305-0.268c-0.076-0.088-0.125-0.193-0.145-0.316c-0.023-0.126-0.035-0.334-0.035-0.624v-2.457h-1.34
		c-0.026,0.999-0.246,1.792-0.659,2.377c-0.384,0.56-1.028,1.015-1.934,1.367c-0.056,0.023-0.101,0.035-0.136,0.035
		c-0.044,0-0.092-0.048-0.145-0.145c-0.062-0.111-0.154-0.212-0.277-0.303c0.902-0.255,1.575-0.667,2.017-1.235
		c0.381-0.486,0.576-1.185,0.584-2.096h-1.332l-1.191,0.018c-0.047,0-0.07-0.023-0.07-0.07v-0.409c0-0.041,0.023-0.062,0.07-0.062
		l1.191,0.018h2.294v-1.608h-1.872c-0.205,0.343-0.469,0.684-0.791,1.024c-0.053,0.062-0.095,0.092-0.127,0.092
		c-0.023,0-0.069-0.034-0.136-0.101c-0.079-0.082-0.177-0.145-0.294-0.189c0.615-0.583,1.077-1.27,1.384-2.061
		c0.091-0.196,0.151-0.403,0.18-0.62c0.208,0.062,0.385,0.122,0.532,0.18c0.073,0.029,0.11,0.064,0.11,0.105
		s-0.026,0.083-0.079,0.127c-0.062,0.047-0.119,0.127-0.171,0.242c-0.111,0.258-0.22,0.492-0.325,0.703h1.591v-0.567
		c0-0.475-0.021-0.82-0.062-1.037c0.217,0.009,0.417,0.028,0.602,0.057c0.073,0.009,0.11,0.035,0.11,0.079
		c0,0.018-0.006,0.042-0.018,0.075c-0.015,0.041-0.025,0.067-0.031,0.079c-0.035,0.108-0.053,0.346-0.053,0.712v0.602h1.468
		l1.252-0.018c0.047,0,0.07,0.023,0.07,0.07v0.391c0,0.047-0.023,0.07-0.07,0.07l-1.252-0.018H49.45v1.608h2.439l1.178-0.018
		c0.05,0,0.075,0.021,0.075,0.062V-35.649z"/>
</g>
<g>
	<path fill="#003366" d="M9.851-24.011h6.785v6.785H9.851V-24.011z"/>
	<path fill="#003366" d="M25.337-16.624c0,0.05-0.023,0.075-0.07,0.075h-0.426c-0.047,0-0.07-0.025-0.07-0.075v-0.404h-4.562
		L18.93-17.01c-0.041,0-0.062-0.023-0.062-0.07v-0.409c0-0.047,0.021-0.07,0.062-0.07l1.279,0.018h4.562v-1.419h-4.096l-1.257,0.018
		c-0.056,0-0.083-0.023-0.083-0.07v-0.391c0-0.047,0.028-0.07,0.083-0.07l1.257,0.018h4.096v-1.375h-4.465l-1.266,0.018
		c-0.05,0-0.075-0.023-0.075-0.07v-0.4c0-0.053,0.025-0.079,0.075-0.079l1.266,0.018h1.63v-2.197c0-0.466-0.021-0.804-0.062-1.015
		c0.261,0.012,0.47,0.029,0.628,0.053c0.073,0.009,0.11,0.04,0.11,0.092c0,0.029-0.018,0.086-0.053,0.171
		c-0.038,0.07-0.057,0.303-0.057,0.699v2.197h1.485l1.279-0.018c0.047,0,0.07,0.026,0.07,0.079l-0.018,1.081v2.285L25.337-16.624z
		 M20.829-22.227c0.012,0.026,0.018,0.045,0.018,0.057c0,0.026-0.032,0.057-0.097,0.092l-0.259,0.136
		c-0.059,0.032-0.097,0.048-0.114,0.048s-0.034-0.019-0.048-0.057c-0.255-0.647-0.584-1.232-0.989-1.753
		c-0.015-0.021-0.022-0.035-0.022-0.044c0-0.021,0.034-0.048,0.101-0.083l0.25-0.136c0.05-0.026,0.082-0.04,0.097-0.04
		s0.031,0.013,0.048,0.04C20.253-23.387,20.591-22.807,20.829-22.227z M25.285-23.712c0,0.029-0.026,0.062-0.079,0.097
		c-0.05,0.041-0.095,0.101-0.136,0.18c-0.275,0.533-0.587,1.034-0.936,1.503c-0.053,0.073-0.092,0.11-0.119,0.11
		c-0.021,0-0.064-0.025-0.132-0.075c-0.088-0.064-0.196-0.119-0.325-0.163c0.413-0.527,0.754-1.075,1.024-1.644
		c0.056-0.123,0.092-0.24,0.11-0.352c0.17,0.064,0.347,0.145,0.532,0.242C25.264-23.79,25.285-23.756,25.285-23.712z"/>
	<path fill="#003366" d="M33.898-16.94c0,0.047-0.023,0.07-0.07,0.07h-0.435c-0.047,0-0.07-0.023-0.07-0.07v-0.549h-4.166v0.567
		c0,0.047-0.021,0.07-0.062,0.07h-0.444c-0.047,0-0.07-0.023-0.07-0.07l0.018-3.085v-1.736l-0.018-2.268
		c0-0.05,0.023-0.075,0.07-0.075l1.252,0.018h2.672l1.252-0.018c0.047,0,0.07,0.025,0.07,0.075l-0.018,2.039v1.964L33.898-16.94z
		 M33.322-21.115v-2.439h-4.166v2.439H33.322z M33.322-18.003v-2.606h-4.166v2.606H33.322z"/>
	<path fill="#003366" d="M44.142-20.926c0,0.05-0.037,0.095-0.11,0.136c-0.079,0.041-0.186,0.141-0.321,0.299
		c-0.357,0.422-0.746,0.794-1.165,1.116c-0.062,0.053-0.104,0.079-0.127,0.079c-0.015,0-0.064-0.034-0.149-0.101
		c-0.132-0.094-0.262-0.166-0.391-0.215c0.542-0.357,0.968-0.729,1.279-1.116h-2.5v1.973l0.009,1.23
		c0,0.316-0.078,0.536-0.233,0.659c-0.152,0.114-0.519,0.171-1.099,0.171c-0.082,0-0.145,0-0.189,0c-0.1,0-0.158-0.01-0.176-0.031
		c-0.018-0.018-0.037-0.07-0.057-0.158c-0.038-0.149-0.098-0.297-0.18-0.444c0.36,0.038,0.672,0.057,0.936,0.057
		c0.164,0,0.274-0.028,0.33-0.083c0.05-0.05,0.075-0.139,0.075-0.268v-3.107h-2.276l-1.2,0.018c-0.047,0-0.07-0.023-0.07-0.07
		v-0.435c0-0.047,0.023-0.07,0.07-0.07l1.2,0.018h2.826c-0.516-0.489-1.148-0.945-1.898-1.367c-0.032-0.018-0.048-0.031-0.048-0.04
		s0.022-0.041,0.066-0.097l0.18-0.207c0.032-0.035,0.057-0.053,0.075-0.053c0.012,0,0.028,0.007,0.048,0.022
		c0.398,0.211,0.781,0.447,1.147,0.708c0.838-0.463,1.5-0.907,1.986-1.332H38.64l-1.266,0.018c-0.044,0-0.066-0.023-0.066-0.07
		v-0.417c0-0.047,0.022-0.07,0.066-0.07l1.266,0.018h3.771c0.1,0,0.173-0.009,0.22-0.026c0.073-0.029,0.114-0.044,0.123-0.044
		c0.056,0,0.149,0.066,0.281,0.198s0.198,0.231,0.198,0.299c0,0.05-0.042,0.091-0.127,0.123c-0.1,0.035-0.204,0.098-0.312,0.189
		c-0.609,0.516-1.33,0.995-2.162,1.437c0.108,0.088,0.289,0.245,0.541,0.47c0.021,0.018,0.031,0.031,0.031,0.04
		c0,0.006-0.026,0.034-0.079,0.083L41-21.269h2.338c0.111,0,0.188-0.012,0.229-0.035c0.047-0.023,0.082-0.035,0.105-0.035
		c0.05,0,0.146,0.057,0.29,0.171C44.082-21.062,44.142-20.981,44.142-20.926z"/>
	<path fill="#003366" d="M48.879-20.086c0.009,0.023,0.013,0.042,0.013,0.057c0,0.032-0.038,0.06-0.114,0.083l-0.207,0.066
		c-0.041,0.012-0.07,0.018-0.088,0.018c-0.026,0-0.044-0.019-0.053-0.057c-0.088-0.27-0.145-0.442-0.171-0.519l-0.866,0.088v2.413
		l0.018,1.314c0,0.041-0.023,0.062-0.07,0.062h-0.409c-0.047,0-0.07-0.021-0.07-0.062l0.018-1.314v-2.369l-0.989,0.075
		c-0.17,0.015-0.284,0.038-0.343,0.07c-0.047,0.023-0.081,0.035-0.101,0.035c-0.038,0-0.067-0.038-0.088-0.114
		c-0.023-0.091-0.054-0.256-0.092-0.497c0.19,0.018,0.379,0.026,0.567,0.026h0.11c0.214-0.278,0.439-0.59,0.677-0.936
		c-0.486-0.577-0.929-1.039-1.327-1.384c-0.026-0.023-0.04-0.044-0.04-0.062s0.023-0.051,0.07-0.101l0.154-0.189
		c0.038-0.044,0.066-0.066,0.083-0.066c0.015,0,0.034,0.013,0.057,0.04l0.343,0.334c0.223-0.346,0.42-0.686,0.593-1.02
		c0.123-0.231,0.202-0.435,0.237-0.611c0.161,0.064,0.328,0.139,0.501,0.224c0.067,0.032,0.101,0.072,0.101,0.119
		c0,0.032-0.026,0.064-0.079,0.097c-0.053,0.035-0.104,0.098-0.154,0.189c-0.316,0.524-0.605,0.971-0.866,1.34
		c0.205,0.205,0.406,0.425,0.602,0.659c0.223-0.357,0.417-0.678,0.584-0.962c0.193-0.346,0.313-0.601,0.36-0.765
		c0.188,0.079,0.353,0.163,0.497,0.25c0.053,0.032,0.079,0.069,0.079,0.11c0,0.038-0.029,0.076-0.088,0.114
		c-0.07,0.05-0.176,0.182-0.316,0.396c-0.495,0.791-0.996,1.523-1.503,2.197c0.58-0.032,1.109-0.067,1.586-0.105
		c-0.114-0.258-0.231-0.489-0.352-0.694c-0.012-0.021-0.018-0.037-0.018-0.048c0-0.023,0.035-0.05,0.105-0.079l0.163-0.062
		c0.041-0.021,0.073-0.031,0.097-0.031s0.045,0.016,0.066,0.048C48.448-21.198,48.688-20.658,48.879-20.086z M46.348-19.467
		c0,0.012-0.015,0.047-0.044,0.105c-0.026,0.047-0.048,0.135-0.066,0.264c-0.085,0.636-0.231,1.22-0.439,1.753
		c-0.023,0.085-0.05,0.127-0.079,0.127c-0.023,0-0.069-0.023-0.136-0.07c-0.079-0.064-0.182-0.11-0.308-0.136
		c0.229-0.521,0.391-1.113,0.488-1.775c0.015-0.097,0.022-0.19,0.022-0.281c0-0.038-0.001-0.088-0.004-0.149
		c0.167,0.018,0.313,0.041,0.439,0.07C46.305-19.542,46.348-19.511,46.348-19.467z M48.857-17.876
		c0.003,0.012,0.004,0.023,0.004,0.035c0,0.044-0.037,0.078-0.11,0.101l-0.215,0.062c-0.047,0.015-0.081,0.022-0.101,0.022
		c-0.023,0-0.041-0.022-0.053-0.066c-0.12-0.656-0.277-1.232-0.47-1.727c-0.009-0.023-0.013-0.041-0.013-0.053
		c0-0.032,0.035-0.057,0.105-0.075l0.189-0.053c0.035-0.009,0.06-0.013,0.075-0.013c0.029,0,0.056,0.022,0.079,0.066
		C48.573-19.032,48.743-18.465,48.857-17.876z M52.935-23.031c-0.012,0.152-0.018,0.381-0.018,0.686
		c-0.018,1.863-0.114,3.318-0.29,4.364c-0.085,0.495-0.215,0.845-0.391,1.05c-0.173,0.202-0.417,0.305-0.734,0.308
		c-0.316,0-0.595-0.015-0.835-0.044c-0.094-0.009-0.151-0.025-0.171-0.048c-0.018-0.023-0.035-0.079-0.053-0.167
		c-0.026-0.141-0.075-0.275-0.145-0.404c0.504,0.082,0.894,0.123,1.169,0.123c0.19,0,0.338-0.108,0.444-0.325
		c0.073-0.152,0.136-0.382,0.189-0.69c0.167-0.976,0.25-2.448,0.25-4.417h-2.628c-0.208,0.404-0.46,0.794-0.756,1.169
		c-0.05,0.067-0.092,0.101-0.127,0.101c-0.029,0-0.073-0.031-0.132-0.092c-0.105-0.103-0.202-0.174-0.29-0.215
		c0.583-0.656,1.018-1.421,1.305-2.294c0.097-0.305,0.154-0.57,0.171-0.795c0.226,0.044,0.412,0.092,0.558,0.145
		c0.085,0.029,0.127,0.066,0.127,0.11c0,0.047-0.026,0.1-0.079,0.158c-0.085,0.085-0.161,0.23-0.229,0.435
		c-0.062,0.193-0.164,0.454-0.308,0.782h1.92l0.971-0.018C52.909-23.11,52.935-23.083,52.935-23.031z M51.072-19.458
		c0.015,0.026,0.022,0.045,0.022,0.057c0,0.023-0.031,0.053-0.092,0.088l-0.25,0.141c-0.062,0.038-0.101,0.057-0.119,0.057
		s-0.035-0.018-0.053-0.053c-0.255-0.577-0.618-1.151-1.09-1.723c-0.021-0.021-0.031-0.038-0.031-0.053
		c0-0.021,0.031-0.05,0.092-0.088l0.224-0.136c0.038-0.026,0.066-0.04,0.083-0.04c0.015,0,0.032,0.013,0.053,0.04
		C50.354-20.693,50.741-20.123,51.072-19.458z"/>
	<path fill="#003366" d="M62.15-23.598c0,0.047-0.023,0.07-0.07,0.07c-0.006,0-0.048-0.001-0.127-0.004
		c-0.252-0.006-0.548-0.01-0.888-0.013v4.267l0.018,1.674c0,0.34-0.085,0.568-0.255,0.686c-0.155,0.117-0.532,0.176-1.129,0.176
		c-0.111,0-0.242-0.001-0.391-0.004c-0.094,0-0.149-0.009-0.167-0.026c-0.015-0.018-0.034-0.069-0.057-0.154
		c-0.047-0.173-0.107-0.312-0.18-0.417c0.313,0.032,0.674,0.048,1.081,0.048c0.202,0,0.335-0.025,0.4-0.075s0.097-0.142,0.097-0.277
		v-5.897h-4.869l-1.182,0.018c-0.047,0-0.07-0.023-0.07-0.07v-0.422c0-0.05,0.023-0.075,0.07-0.075l1.182,0.018h5.291l1.178-0.018
		c0.047,0,0.07,0.025,0.07,0.075V-23.598z M58.797-18.676c0,0.05-0.025,0.075-0.075,0.075h-0.404c-0.053,0-0.079-0.025-0.079-0.075
		v-0.439h-2.171v0.694c0,0.047-0.025,0.07-0.075,0.07h-0.413c-0.047,0-0.07-0.023-0.07-0.07l0.018-1.674v-0.883l-0.018-1.134
		c0-0.047,0.023-0.07,0.07-0.07l0.971,0.018h1.2l0.971-0.018c0.05,0,0.075,0.023,0.075,0.07l-0.018,0.936v0.91L58.797-18.676z
		 M58.239-19.621v-2.039h-2.171v2.039H58.239z"/>
</g>
<g>
	<path fill="#003366" d="M72.837-39.383c0.012-0.463,0.018-0.772,0.018-0.927c0-0.343-0.023-0.624-0.07-0.844
		c0.325,0.029,0.565,0.073,0.721,0.132c0.073,0.029,0.11,0.075,0.11,0.136c0,0.026-0.015,0.066-0.044,0.119
		c-0.067,0.132-0.104,0.284-0.11,0.457c-0.015,0.179-0.026,0.454-0.035,0.826c0.448-0.091,0.888-0.217,1.318-0.378
		c0.026-0.009,0.047-0.013,0.062-0.013c0.032,0,0.051,0.025,0.057,0.075c0.023,0.17,0.035,0.297,0.035,0.382
		c0,0.053-0.034,0.091-0.101,0.114c-0.454,0.158-0.921,0.281-1.402,0.369c-0.009,0.337-0.013,0.697-0.013,1.081
		c0,0.217,0.001,0.463,0.004,0.738c0.943-0.457,1.727-0.686,2.351-0.686c0.577,0,1.028,0.171,1.354,0.514
		C77.364-37,77.5-36.641,77.5-36.21c0,0.571-0.192,1.002-0.576,1.292c-0.325,0.243-0.757,0.365-1.296,0.365
		c-0.272,0-0.513-0.037-0.721-0.11c-0.073-0.021-0.114-0.098-0.123-0.233c-0.023-0.141-0.072-0.278-0.145-0.413
		c0.275,0.126,0.596,0.189,0.962,0.189c0.404,0,0.721-0.104,0.949-0.312c0.214-0.193,0.321-0.457,0.321-0.791
		c0-0.357-0.122-0.634-0.365-0.831c-0.217-0.173-0.51-0.259-0.879-0.259c-0.527,0-1.274,0.252-2.241,0.756
		c0,0.302,0.016,0.76,0.048,1.375c0.006,0.152,0.018,0.338,0.035,0.558c0.012,0.152,0.018,0.252,0.018,0.299
		c0,0.117-0.034,0.186-0.101,0.207c-0.167,0.041-0.293,0.062-0.378,0.062c-0.035,0-0.078-0.028-0.127-0.083
		c-0.003-0.006-0.037-0.045-0.101-0.119c-0.038-0.044-0.075-0.085-0.11-0.123c-0.255-0.272-0.69-0.608-1.305-1.006
		c-0.05,0.029-0.152,0.095-0.308,0.198c-0.053,0.041-0.095,0.062-0.127,0.062c-0.041,0-0.086-0.034-0.136-0.101
		c-0.079-0.114-0.171-0.296-0.277-0.545c0.311-0.079,0.602-0.185,0.875-0.316c0.305-0.146,0.79-0.41,1.455-0.791
		c-0.006-0.428-0.009-1.084-0.009-1.969c-0.554,0.064-1.102,0.097-1.644,0.097c-0.097,0-0.154-0.045-0.171-0.136
		c-0.026-0.105-0.045-0.246-0.057-0.422c0.158,0.009,0.321,0.013,0.488,0.013C71.896-39.3,72.357-39.328,72.837-39.383z
		 M72.846-36.307c-0.059,0.032-0.442,0.264-1.151,0.694c0.694,0.401,1.068,0.617,1.121,0.646c0.018,0.012,0.034,0.018,0.048,0.018
		c0.026,0,0.04-0.026,0.04-0.079c-0.003-0.073-0.012-0.287-0.026-0.642C72.868-35.913,72.858-36.125,72.846-36.307z M75.883-39.647
		c0.047-0.1,0.119-0.226,0.215-0.378c0.026-0.05,0.059-0.075,0.097-0.075c0.009,0,0.018,0,0.026,0
		c0.768,0.158,1.362,0.473,1.784,0.945c0.018,0.023,0.026,0.044,0.026,0.062s-0.009,0.037-0.026,0.057
		c-0.108,0.161-0.205,0.284-0.29,0.369c-0.021,0.021-0.04,0.031-0.057,0.031s-0.037-0.01-0.057-0.031
		C77.109-39.186,76.536-39.512,75.883-39.647z"/>
	<path fill="#003366" d="M87.054-38.645c0,0.047-0.028,0.07-0.083,0.07h-0.387c-0.047,0-0.07-0.023-0.07-0.07v-1.323H83.45v0.962
		l0.018,0.892c0,0.047-0.023,0.07-0.07,0.07h-0.426c-0.047,0-0.07-0.023-0.07-0.07l0.018-0.892v-0.962h-2.914v1.323
		c0,0.047-0.023,0.07-0.07,0.07h-0.396c-0.05,0-0.075-0.023-0.075-0.07l0.018-0.918v-0.294l-0.018-0.47
		c0-0.047,0.023-0.07,0.07-0.07l1.226,0.018h2.158v-0.571h-1.529l-1.274,0.018c-0.05,0-0.075-0.023-0.075-0.07v-0.343
		c0-0.047,0.025-0.07,0.075-0.07l1.274,0.018h3.762l1.274-0.018c0.047,0,0.07,0.023,0.07,0.07v0.343c0,0.047-0.023,0.07-0.07,0.07
		l-1.274-0.018H83.45v0.571h2.298l1.226-0.018c0.053,0,0.079,0.023,0.079,0.07l-0.018,0.413v0.352L87.054-38.645z M87.256-35.16
		c-0.035,0.328-0.098,0.574-0.189,0.738c-0.07,0.126-0.168,0.23-0.294,0.312c-0.27,0.173-0.857,0.259-1.762,0.259
		c-0.771,0-1.308-0.032-1.613-0.097c-0.343-0.088-0.514-0.346-0.514-0.773v-0.431h-1.995v0.431c0,0.047-0.025,0.07-0.075,0.07
		h-0.396c-0.041,0-0.062-0.023-0.062-0.07l0.018-0.826v-1.305l-0.018-0.839c0-0.053,0.021-0.079,0.062-0.079l1.349,0.018h2.892
		l1.332-0.018c0.047,0,0.07,0.026,0.07,0.079l-0.018,0.795v0.901l0.018,0.791c0,0.047-0.023,0.07-0.07,0.07l-1.332-0.018h-1.252
		v0.286c0,0.173,0.032,0.294,0.097,0.365c0.05,0.056,0.132,0.095,0.246,0.119c0.208,0.035,0.621,0.053,1.239,0.053
		c0.768,0,1.26-0.075,1.477-0.224c0.097-0.07,0.164-0.18,0.202-0.33c0.041-0.149,0.067-0.382,0.079-0.699
		c0.105,0.076,0.231,0.142,0.378,0.198c0.094,0.032,0.141,0.075,0.141,0.127C87.265-35.236,87.262-35.204,87.256-35.16z
		 M82.334-39.194c0,0.05-0.023,0.075-0.07,0.075l-0.584-0.009h-0.422l-0.589,0.009c-0.047,0-0.07-0.025-0.07-0.075v-0.25
		c0-0.047,0.023-0.07,0.07-0.07l0.589,0.018h0.422l0.584-0.018c0.047,0,0.07,0.023,0.07,0.07V-39.194z M82.334-38.386
		c0,0.05-0.023,0.075-0.07,0.075l-0.584-0.018h-0.422l-0.589,0.018c-0.047,0-0.07-0.025-0.07-0.075v-0.25
		c0-0.047,0.023-0.07,0.07-0.07l0.589,0.018h0.422l0.584-0.018c0.047,0,0.07,0.023,0.07,0.07V-38.386z M82.883-36.672v-0.659h-1.995
		v0.659H82.883z M82.883-35.564v-0.712h-1.995v0.712H82.883z M85.52-36.672v-0.659h-2.114v0.659H85.52z M85.52-35.564v-0.712h-2.114
		v0.712H85.52z M85.889-39.194c0,0.05-0.023,0.075-0.07,0.075l-0.611-0.009h-0.479l-0.602,0.009c-0.05,0-0.075-0.025-0.075-0.075
		v-0.25c0-0.047,0.025-0.07,0.075-0.07l0.602,0.018h0.479l0.611-0.018c0.047,0,0.07,0.023,0.07,0.07V-39.194z M85.889-38.386
		c0,0.05-0.023,0.075-0.07,0.075l-0.611-0.018h-0.479l-0.602,0.018c-0.05,0-0.075-0.025-0.075-0.075v-0.25
		c0-0.047,0.025-0.07,0.075-0.07l0.602,0.018h0.479l0.611-0.018c0.047,0,0.07,0.023,0.07,0.07V-38.386z"/>
	<path fill="#003366" d="M91.435-39.669c0,0.053-0.025,0.079-0.075,0.079l-0.945-0.018h-1.107l-0.945,0.018
		c-0.047,0-0.07-0.026-0.07-0.079v-0.374c0-0.047,0.023-0.07,0.07-0.07l0.945,0.018h1.107l0.945-0.018
		c0.05,0,0.075,0.023,0.075,0.07V-39.669z M91.185-33.89c0,0.047-0.025,0.07-0.075,0.07h-0.369c-0.047,0-0.07-0.023-0.07-0.07
		v-0.299h-1.459v0.457c0,0.05-0.023,0.075-0.07,0.075h-0.369c-0.05,0-0.075-0.025-0.075-0.075l0.018-1.323v-0.549l-0.018-0.782
		c0-0.047,0.023-0.07,0.07-0.07l0.795,0.018h0.747l0.804-0.018c0.047,0,0.07,0.023,0.07,0.07l-0.018,0.642v0.584L91.185-33.89z
		 M91.22-40.913c0,0.047-0.025,0.07-0.075,0.07l-0.791-0.018h-0.773l-0.791,0.018c-0.05,0-0.075-0.023-0.075-0.07v-0.36
		c0-0.047,0.025-0.07,0.075-0.07l0.791,0.018h0.773l0.791-0.018c0.05,0,0.075,0.023,0.075,0.07V-40.913z M91.092-38.447
		c0,0.047-0.028,0.07-0.083,0.07l-0.734-0.018h-0.677l-0.747,0.018c-0.047,0-0.07-0.023-0.07-0.07v-0.352
		c0-0.047,0.023-0.07,0.07-0.07l0.747,0.018h0.677l0.734-0.018c0.056,0,0.083,0.023,0.083,0.07V-38.447z M91.092-37.252
		c0,0.05-0.028,0.075-0.083,0.075l-0.734-0.018h-0.677l-0.747,0.018c-0.047,0-0.07-0.025-0.07-0.075v-0.352
		c0-0.047,0.023-0.07,0.07-0.07l0.747,0.018h0.677l0.734-0.018c0.056,0,0.083,0.023,0.083,0.07V-37.252z M90.67-34.628V-36h-1.459
		v1.371H90.67z M96.304-38.482c0,0.047-0.025,0.07-0.075,0.07l-1.204-0.018h-0.936v1.485h0.523l1.072-0.018
		c0.047,0,0.07,0.023,0.07,0.07l-0.018,0.848v0.765l0.018,1.494c0,0.047-0.023,0.07-0.07,0.07h-0.409c-0.047,0-0.07-0.023-0.07-0.07
		v-0.396h-2.681v0.448c0,0.05-0.023,0.075-0.07,0.075h-0.409c-0.047,0-0.07-0.025-0.07-0.075l0.018-1.521v-0.672l-0.018-0.967
		c0-0.047,0.023-0.07,0.07-0.07l1.072,0.018h0.431v-1.485h-0.756l-1.195,0.018c-0.047,0-0.07-0.023-0.07-0.07v-0.391
		c0-0.047,0.023-0.07,0.07-0.07l1.195,0.018h0.756v-1.525c-0.486,0.108-0.987,0.198-1.503,0.268
		c-0.041,0.006-0.07,0.009-0.088,0.009c-0.044,0-0.083-0.045-0.119-0.136c-0.05-0.132-0.122-0.245-0.215-0.338
		c1.254-0.117,2.333-0.357,3.239-0.721c0.231-0.097,0.409-0.196,0.532-0.299c0.152,0.132,0.275,0.258,0.369,0.378
		c0.041,0.05,0.062,0.095,0.062,0.136c0,0.047-0.048,0.07-0.145,0.07c-0.079,0-0.171,0.022-0.277,0.066
		c-0.448,0.167-0.886,0.311-1.314,0.431v1.661h0.936l1.204-0.018c0.05,0,0.075,0.023,0.075,0.07V-38.482z M95.206-34.659v-1.806
		h-2.681v1.806H95.206z"/>
	<path fill="#003366" d="M97.587-35.74c0.021,0,0.054,0.018,0.101,0.053c0.656,0.416,1.232,0.957,1.727,1.622
		c0.029,0.047,0.044,0.083,0.044,0.11c0,0.038-0.021,0.073-0.062,0.105l-0.325,0.272c-0.044,0.035-0.073,0.053-0.088,0.053
		c-0.038,0-0.072-0.023-0.101-0.07c-0.489-0.706-1.042-1.267-1.657-1.683c-0.041-0.026-0.062-0.047-0.062-0.062
		c0-0.023,0.015-0.054,0.044-0.092l0.281-0.25C97.526-35.721,97.558-35.74,97.587-35.74z"/>
	<path fill="#003366" d="M110.072-36.153c-0.029-0.504-0.047-0.957-0.053-1.358c-0.302,0.012-0.593,0.018-0.875,0.018
		c-0.439,0-0.838-0.015-1.195-0.044c-0.059,0-0.092-0.037-0.101-0.11c-0.018-0.117-0.026-0.27-0.026-0.457
		c0.442,0.053,0.932,0.079,1.468,0.079c0.249,0,0.485-0.006,0.708-0.018l-0.009-1.34c-0.334,0.015-0.646,0.022-0.936,0.022
		c-0.519,0-1-0.022-1.446-0.066c-0.047-0.009-0.075-0.038-0.083-0.088c-0.023-0.182-0.035-0.338-0.035-0.47
		c0.489,0.062,1.031,0.092,1.626,0.092c0.275,0,0.567-0.007,0.875-0.022l-0.009-0.945c-0.006-0.243-0.032-0.441-0.079-0.593
		c0.319,0.029,0.557,0.069,0.712,0.119c0.067,0.023,0.102,0.067,0.102,0.132c0,0.026-0.008,0.051-0.022,0.075
		c-0.062,0.097-0.097,0.234-0.105,0.413c-0.006,0.073-0.017,0.334-0.03,0.782c0.662-0.05,1.395-0.149,2.197-0.299
		c0.02-0.003,0.035-0.004,0.043-0.004c0.033,0,0.052,0.023,0.058,0.07c0.018,0.144,0.026,0.275,0.026,0.396
		c0,0.059-0.021,0.088-0.062,0.088c-0.747,0.126-1.501,0.214-2.263,0.264c0,0.606,0.004,1.05,0.013,1.332
		c0.647-0.041,1.31-0.127,1.986-0.259c0.018-0.006,0.032-0.009,0.044-0.009c0.029,0,0.049,0.018,0.057,0.053l0.01,0.431
		c0,0.053-0.031,0.083-0.093,0.092c-0.656,0.12-1.318,0.201-1.986,0.242c0,0.413,0.021,0.91,0.062,1.49
		c0.902,0.252,1.703,0.639,2.404,1.16c0.031,0.026,0.048,0.056,0.048,0.088c0,0.021-0.005,0.042-0.013,0.066
		c-0.045,0.141-0.119,0.27-0.225,0.387c-0.026,0.032-0.053,0.048-0.079,0.048c-0.015,0-0.034-0.007-0.058-0.022
		c-0.68-0.53-1.363-0.911-2.052-1.143c0.006,0.527-0.144,0.902-0.448,1.125c-0.258,0.188-0.646,0.281-1.165,0.281
		c-0.551,0-0.964-0.108-1.239-0.325c-0.234-0.182-0.352-0.431-0.352-0.747c0-0.328,0.166-0.598,0.497-0.809
		c0.302-0.193,0.688-0.29,1.16-0.29C109.479-36.228,109.794-36.203,110.072-36.153z M110.081-35.617
		c-0.343-0.076-0.661-0.114-0.954-0.114c-0.39,0-0.686,0.062-0.888,0.185c-0.164,0.1-0.246,0.227-0.246,0.382
		c0,0.372,0.335,0.558,1.006,0.558c0.454,0,0.76-0.094,0.918-0.281c0.111-0.138,0.167-0.334,0.167-0.589
		C110.085-35.518,110.084-35.564,110.081-35.617z"/>
	<path fill="#003366" d="M118.409-39.634c0.404-0.07,0.882-0.193,1.433-0.369c0.015-0.006,0.029-0.009,0.044-0.009
		c0.035,0,0.056,0.023,0.062,0.07c0.021,0.114,0.037,0.237,0.049,0.369c0,0.015,0,0.026,0,0.035c0,0.053-0.031,0.086-0.093,0.101
		c-0.606,0.167-1.149,0.29-1.63,0.369c-0.549,1.904-1.124,3.543-1.728,4.917c-0.021,0.047-0.046,0.07-0.075,0.07
		c-0.014,0-0.035-0.006-0.061-0.018c-0.121-0.044-0.262-0.11-0.422-0.198c-0.029-0.018-0.045-0.042-0.045-0.075
		c0-0.012,0.004-0.025,0.01-0.04c0.691-1.471,1.252-2.991,1.683-4.562c-0.58,0.064-1.187,0.101-1.819,0.11
		c-0.082,0-0.131-0.031-0.145-0.092c-0.029-0.208-0.053-0.372-0.07-0.492c0.113,0.012,0.303,0.018,0.566,0.018
		c0.501,0,1.041-0.037,1.621-0.11c0.109-0.41,0.197-0.788,0.264-1.134c0.051-0.281,0.075-0.517,0.075-0.708
		c0-0.05-0.003-0.095-0.009-0.136c0.272,0.047,0.514,0.116,0.725,0.207c0.047,0.018,0.07,0.05,0.07,0.097
		c0,0.041-0.023,0.089-0.07,0.145c-0.059,0.076-0.106,0.193-0.145,0.352c-0.038,0.129-0.091,0.324-0.158,0.584
		C118.485-39.908,118.441-39.742,118.409-39.634z M118.966-35.767c0.17-0.032,0.311-0.048,0.422-0.048
		c0.059,0,0.093,0.029,0.102,0.088c0.032,0.425,0.201,0.718,0.506,0.879c0.258,0.138,0.656,0.207,1.195,0.207
		c0.357,0,0.801-0.04,1.331-0.119c0.023-0.003,0.04-0.004,0.048-0.004c0.035,0,0.057,0.022,0.063,0.066
		c0.023,0.146,0.035,0.292,0.035,0.435c0,0.07-0.034,0.108-0.102,0.114c-0.369,0.062-0.762,0.092-1.178,0.092
		c-0.958,0-1.619-0.166-1.982-0.497C119.123-34.797,118.976-35.201,118.966-35.767z M119.644-37.718
		c-0.021-0.155-0.031-0.315-0.031-0.479c0-0.07,0.039-0.116,0.119-0.136c0.563-0.126,1.086-0.189,1.572-0.189
		c0.273,0,0.645,0.031,1.117,0.092c0.082,0.012,0.127,0.044,0.136,0.097c0.009,0.082,0.013,0.176,0.013,0.281
		c0,0.044-0.001,0.082-0.004,0.114c-0.006,0.082-0.031,0.123-0.074,0.123c-0.012,0-0.025-0.001-0.04-0.004
		c-0.407-0.067-0.792-0.101-1.155-0.101C120.804-37.92,120.253-37.853,119.644-37.718z"/>
	<path fill="#003366" d="M125.515-41.137c0.266,0.053,0.48,0.13,0.641,0.233c0.063,0.041,0.093,0.086,0.093,0.136
		c0,0.029-0.013,0.064-0.04,0.105c-0.053,0.091-0.101,0.242-0.145,0.453c-0.287,1.38-0.431,2.515-0.431,3.406
		c0,0.718,0.021,1.245,0.062,1.582c0.082-0.211,0.293-0.7,0.633-1.468c0.041,0.114,0.108,0.237,0.202,0.369
		c0.026,0.038,0.04,0.072,0.04,0.101c0,0.023-0.011,0.056-0.031,0.097c-0.322,0.729-0.501,1.203-0.536,1.419
		c-0.012,0.114-0.018,0.205-0.018,0.272c0,0.05,0.003,0.094,0.009,0.132c0.003,0.018,0.004,0.032,0.004,0.044
		c0,0.029-0.018,0.054-0.053,0.075c-0.111,0.047-0.246,0.085-0.404,0.114c-0.014,0.006-0.027,0.009-0.039,0.009
		c-0.032,0-0.057-0.026-0.074-0.079c-0.229-0.58-0.344-1.463-0.344-2.65c0-0.788,0.129-1.941,0.387-3.458
		c0.039-0.249,0.058-0.472,0.058-0.668C125.528-40.998,125.523-41.072,125.515-41.137z M129.664-36.294
		c-0.041-0.873-0.063-1.708-0.063-2.505c-0.424,0.023-0.803,0.035-1.133,0.035c-0.299,0-0.591-0.009-0.875-0.026
		c-0.059,0-0.091-0.026-0.097-0.079c-0.023-0.167-0.035-0.327-0.035-0.479c0.34,0.023,0.688,0.035,1.046,0.035
		c0.363,0,0.723-0.012,1.076-0.035l0.01-1.033c0-0.278-0.029-0.545-0.088-0.8c0.287,0.026,0.517,0.067,0.689,0.123
		c0.067,0.029,0.102,0.066,0.102,0.11c0,0.035-0.012,0.078-0.035,0.127c-0.039,0.064-0.063,0.208-0.075,0.431
		c-0.012,0.208-0.018,0.541-0.018,0.998c0.457-0.044,0.931-0.111,1.419-0.202c0.021-0.006,0.035-0.009,0.045-0.009
		c0.025,0,0.042,0.023,0.048,0.07c0.023,0.132,0.035,0.25,0.035,0.356c0,0.062-0.021,0.098-0.062,0.11
		c-0.363,0.085-0.858,0.157-1.485,0.215c0.009,0.993,0.036,1.898,0.083,2.716c0.598,0.252,1.125,0.563,1.582,0.932
		c0.023,0.018,0.035,0.035,0.035,0.053c0,0.012-0.006,0.032-0.018,0.062c-0.064,0.146-0.145,0.278-0.241,0.396
		c-0.018,0.026-0.036,0.04-0.058,0.04c-0.014,0-0.031-0.01-0.053-0.031c-0.41-0.346-0.828-0.621-1.256-0.826
		c-0.039,0.809-0.541,1.213-1.508,1.213c-0.457,0-0.812-0.101-1.063-0.303c-0.226-0.179-0.339-0.419-0.339-0.721
		c0-0.349,0.152-0.623,0.457-0.822c0.256-0.167,0.564-0.25,0.928-0.25C129.046-36.395,129.361-36.361,129.664-36.294z
		 M129.664-35.749c-0.352-0.1-0.679-0.149-0.98-0.149c-0.272,0-0.483,0.056-0.633,0.167c-0.135,0.103-0.202,0.239-0.202,0.409
		c0,0.182,0.087,0.318,0.259,0.409c0.152,0.079,0.354,0.119,0.603,0.119c0.636,0,0.954-0.261,0.954-0.782V-35.749z"/>
	<path fill="#003366" d="M141.687-39.076l-1.323,4.597h-0.919l-0.602-2.584c-0.091-0.398-0.193-0.872-0.308-1.419h-0.141
		c-0.152,0.788-0.249,1.266-0.29,1.433l-0.619,2.571h-0.919l-1.306-4.597h0.773l0.611,2.584c0.05,0.196,0.108,0.454,0.176,0.773
		c0.064,0.305,0.111,0.52,0.141,0.646h0.145c0.029-0.129,0.082-0.378,0.158-0.747c0.057-0.272,0.104-0.494,0.146-0.664l0.606-2.593
		h0.953l0.594,2.562c0.132,0.58,0.234,1.061,0.308,1.441h0.141c0.029-0.126,0.087-0.381,0.171-0.765
		c0.059-0.27,0.11-0.495,0.154-0.677l0.629-2.562H141.687z"/>
	<path fill="#003366" d="M146.433-36.672h-3.222c0,0.592,0.14,1.044,0.417,1.358c0.234,0.264,0.545,0.396,0.932,0.396
		c0.607,0,0.996-0.312,1.17-0.936l0.676,0.224c-0.301,0.841-0.92,1.261-1.854,1.261c-0.672,0-1.191-0.24-1.561-0.721
		c-0.328-0.425-0.492-0.983-0.492-1.674c0-0.773,0.213-1.387,0.637-1.841c0.363-0.387,0.814-0.58,1.354-0.58
		c0.615,0,1.102,0.234,1.459,0.703c0.322,0.422,0.484,0.971,0.484,1.648V-36.672z M145.72-37.195
		c-0.037-0.492-0.177-0.863-0.417-1.112c-0.208-0.214-0.476-0.321-0.804-0.321c-0.381,0-0.689,0.146-0.924,0.439
		c-0.201,0.255-0.317,0.586-0.347,0.993H145.72z"/>
	<path fill="#003366" d="M148.511-41.229v2.856c0.167-0.275,0.381-0.485,0.642-0.628c0.223-0.123,0.456-0.185,0.698-0.185
		c0.561,0,1.001,0.234,1.323,0.703c0.296,0.431,0.444,0.998,0.444,1.701c0,0.788-0.201,1.409-0.603,1.863
		c-0.331,0.372-0.737,0.558-1.218,0.558c-0.576,0-1.023-0.283-1.34-0.848l-0.137,0.729h-0.54v-6.75H148.511z M148.511-37.691v1.881
		c0.299,0.571,0.677,0.857,1.134,0.857c0.384,0,0.688-0.174,0.914-0.523c0.208-0.325,0.312-0.757,0.312-1.296
		c0-0.618-0.125-1.087-0.377-1.406c-0.205-0.264-0.471-0.396-0.796-0.396C149.206-38.575,148.81-38.28,148.511-37.691z"/>
	<path fill="#003366" d="M155.283-39.603c0.25,0,0.621-0.035,1.117-0.105c1.672-0.27,3.533-0.532,5.58-0.787
		c0.012,0,0.022,0,0.031,0c0.064,0,0.105,0.025,0.123,0.075c0.035,0.155,0.053,0.305,0.053,0.448c0,0.064-0.039,0.101-0.119,0.11
		c-0.498,0.026-0.936,0.116-1.313,0.268c-0.724,0.287-1.301,0.708-1.731,1.261c-0.393,0.501-0.589,1.025-0.589,1.573
		c0,1.219,0.873,1.9,2.619,2.043c0.097,0.009,0.146,0.042,0.146,0.101c0,0.12-0.018,0.264-0.053,0.431
		c-0.018,0.085-0.058,0.127-0.119,0.127c-0.003,0-0.012,0-0.026,0c-0.961-0.085-1.717-0.337-2.268-0.756
		c-0.595-0.451-0.892-1.066-0.892-1.846c0-1.266,0.73-2.285,2.192-3.059l-0.009-0.018c-1.646,0.261-2.863,0.473-3.652,0.637
		c-0.254,0.05-0.435,0.101-0.54,0.154c-0.1,0.041-0.157,0.062-0.171,0.062c-0.053,0-0.096-0.026-0.128-0.079
		C155.458-39.117,155.375-39.331,155.283-39.603z M160.79-38.228l0.334-0.242c0.012-0.009,0.024-0.013,0.04-0.013
		c0.014,0,0.031,0.007,0.053,0.022c0.369,0.258,0.707,0.621,1.015,1.09c0.012,0.015,0.018,0.028,0.018,0.04
		c0,0.023-0.012,0.042-0.035,0.057l-0.259,0.22c-0.021,0.015-0.04,0.022-0.058,0.022c-0.026,0-0.047-0.013-0.062-0.04
		C161.557-37.543,161.208-37.929,160.79-38.228z M161.585-38.825l0.285-0.229c0.023-0.015,0.043-0.022,0.057-0.022
		c0.016,0,0.029,0.006,0.045,0.018c0.428,0.331,0.77,0.681,1.027,1.05c0.01,0.018,0.014,0.032,0.014,0.044
		c0,0.021-0.015,0.041-0.044,0.062l-0.241,0.22c-0.018,0.015-0.034,0.022-0.049,0.022c-0.021,0-0.041-0.015-0.062-0.044
		C162.354-38.135,162.009-38.509,161.585-38.825z"/>
	<path fill="#003366" d="M165.408-37.054c0.094,0.047,0.227,0.12,0.396,0.22c0.031,0.015,0.048,0.034,0.048,0.057
		c0,0.018-0.007,0.037-0.022,0.057c-0.16,0.264-0.241,0.498-0.241,0.703c0,0.732,0.768,1.099,2.303,1.099
		c0.996,0,1.857-0.086,2.584-0.259c0.023-0.006,0.041-0.009,0.053-0.009c0.035,0,0.059,0.023,0.07,0.07
		c0.029,0.103,0.058,0.258,0.083,0.466c0,0.006,0,0.013,0,0.022c0,0.047-0.039,0.079-0.118,0.097
		c-0.759,0.155-1.667,0.233-2.725,0.233c-1.866,0-2.8-0.564-2.8-1.692C165.039-36.333,165.162-36.688,165.408-37.054z
		 M165.659-40.407c0.618,0.135,1.368,0.202,2.25,0.202c0.703,0,1.366-0.026,1.991-0.079c0.014,0,0.024,0,0.03,0
		c0.056,0,0.088,0.028,0.097,0.083c0.018,0.117,0.026,0.252,0.026,0.404c0,0.082-0.042,0.127-0.128,0.136
		c-0.682,0.097-1.459,0.438-2.328,1.024c-0.047,0.035-0.094,0.053-0.141,0.053c-0.041,0-0.08-0.012-0.115-0.035
		c-0.117-0.088-0.24-0.148-0.369-0.18c0.516-0.352,1.033-0.652,1.552-0.901c-0.267,0.023-0.592,0.035-0.976,0.035
		c-0.712,0-1.321-0.054-1.828-0.163c-0.053-0.009-0.079-0.05-0.079-0.123C165.641-40.053,165.647-40.205,165.659-40.407z
		 M169.9-41.119l0.324-0.237c0.018-0.012,0.034-0.018,0.049-0.018s0.031,0.007,0.049,0.022c0.371,0.258,0.71,0.62,1.015,1.085
		c0.012,0.015,0.018,0.029,0.018,0.044c0,0.021-0.011,0.04-0.03,0.057l-0.264,0.215c-0.018,0.015-0.035,0.022-0.053,0.022
		c-0.027,0-0.049-0.013-0.066-0.04C170.663-40.439,170.316-40.823,169.9-41.119z M170.691-41.726l0.289-0.224
		c0.021-0.015,0.04-0.022,0.058-0.022c0.012,0,0.024,0.006,0.04,0.018c0.43,0.331,0.773,0.681,1.027,1.05
		c0.01,0.015,0.014,0.029,0.014,0.044c0,0.021-0.014,0.041-0.039,0.062l-0.246,0.22c-0.016,0.015-0.031,0.022-0.049,0.022
		c-0.021,0-0.039-0.015-0.057-0.044C171.46-41.034,171.115-41.409,170.691-41.726z"/>
	<path fill="#003366" d="M180.806-38.043c0,0.05-0.036,0.095-0.109,0.136c-0.079,0.041-0.186,0.141-0.32,0.299
		c-0.357,0.422-0.746,0.794-1.165,1.116c-0.062,0.053-0.104,0.079-0.128,0.079c-0.014,0-0.064-0.034-0.148-0.101
		c-0.133-0.094-0.263-0.166-0.392-0.215c0.542-0.357,0.968-0.729,1.278-1.116h-2.5v1.973l0.009,1.23
		c0,0.316-0.077,0.536-0.233,0.659c-0.152,0.114-0.518,0.171-1.098,0.171c-0.082,0-0.146,0-0.189,0c-0.1,0-0.158-0.01-0.176-0.031
		c-0.018-0.018-0.037-0.07-0.057-0.158c-0.039-0.149-0.099-0.297-0.181-0.444c0.36,0.038,0.673,0.057,0.937,0.057
		c0.164,0,0.273-0.028,0.329-0.083c0.05-0.05,0.075-0.139,0.075-0.268v-3.107h-2.277l-1.199,0.018c-0.047,0-0.07-0.023-0.07-0.07
		v-0.435c0-0.047,0.023-0.07,0.07-0.07l1.199,0.018h2.826c-0.516-0.489-1.148-0.945-1.898-1.367
		c-0.032-0.018-0.049-0.031-0.049-0.04s0.022-0.041,0.066-0.097l0.18-0.207c0.033-0.035,0.058-0.053,0.075-0.053
		c0.012,0,0.028,0.007,0.048,0.022c0.398,0.211,0.781,0.447,1.147,0.708c0.838-0.463,1.5-0.907,1.986-1.332h-3.538l-1.266,0.018
		c-0.043,0-0.065-0.023-0.065-0.07v-0.417c0-0.047,0.022-0.07,0.065-0.07l1.266,0.018h3.771c0.1,0,0.172-0.009,0.219-0.026
		c0.074-0.029,0.115-0.044,0.123-0.044c0.057,0,0.15,0.066,0.281,0.198c0.133,0.132,0.198,0.231,0.198,0.299
		c0,0.05-0.042,0.091-0.128,0.123c-0.1,0.035-0.203,0.098-0.312,0.189c-0.609,0.516-1.33,0.995-2.162,1.437
		c0.108,0.088,0.288,0.245,0.54,0.47c0.021,0.018,0.031,0.031,0.031,0.04c0,0.006-0.026,0.034-0.079,0.083l-0.123,0.119h2.338
		c0.111,0,0.188-0.012,0.229-0.035c0.047-0.023,0.082-0.035,0.105-0.035c0.05,0,0.146,0.057,0.29,0.171
		C180.747-38.179,180.806-38.099,180.806-38.043z"/>
	<path fill="#003366" d="M185.544-37.204c0.008,0.023,0.013,0.042,0.013,0.057c0,0.032-0.038,0.06-0.114,0.083l-0.207,0.066
		c-0.041,0.012-0.07,0.018-0.088,0.018c-0.025,0-0.043-0.019-0.053-0.057c-0.088-0.27-0.145-0.442-0.171-0.519l-0.866,0.088v2.413
		l0.018,1.314c0,0.041-0.023,0.062-0.07,0.062h-0.408c-0.047,0-0.07-0.021-0.07-0.062l0.018-1.314v-2.369l-0.988,0.075
		c-0.17,0.015-0.285,0.038-0.344,0.07c-0.047,0.023-0.08,0.035-0.101,0.035c-0.038,0-0.067-0.038-0.088-0.114
		c-0.023-0.091-0.054-0.256-0.093-0.497c0.191,0.018,0.38,0.026,0.567,0.026h0.11c0.213-0.278,0.439-0.59,0.676-0.936
		c-0.486-0.577-0.928-1.039-1.326-1.384c-0.027-0.023-0.04-0.044-0.04-0.062s0.023-0.051,0.07-0.101l0.153-0.189
		c0.039-0.044,0.066-0.066,0.084-0.066c0.015,0,0.033,0.013,0.057,0.04l0.344,0.334c0.223-0.346,0.42-0.686,0.593-1.02
		c0.123-0.231,0.202-0.435,0.237-0.611c0.161,0.064,0.328,0.139,0.501,0.224c0.067,0.032,0.101,0.072,0.101,0.119
		c0,0.032-0.025,0.064-0.078,0.097c-0.053,0.035-0.104,0.098-0.154,0.189c-0.316,0.524-0.605,0.971-0.865,1.34
		c0.205,0.205,0.405,0.425,0.602,0.659c0.223-0.357,0.418-0.678,0.584-0.962c0.193-0.346,0.314-0.601,0.361-0.765
		c0.188,0.079,0.353,0.163,0.496,0.25c0.053,0.032,0.079,0.069,0.079,0.11c0,0.038-0.029,0.076-0.088,0.114
		c-0.07,0.05-0.176,0.182-0.316,0.396c-0.495,0.791-0.996,1.523-1.503,2.197c0.58-0.032,1.109-0.067,1.586-0.105
		c-0.113-0.258-0.23-0.489-0.352-0.694c-0.012-0.021-0.018-0.037-0.018-0.048c0-0.023,0.035-0.05,0.105-0.079l0.163-0.062
		c0.041-0.021,0.073-0.031,0.097-0.031s0.045,0.016,0.066,0.048C185.113-38.315,185.353-37.775,185.544-37.204z M183.013-36.584
		c0,0.012-0.016,0.047-0.045,0.105c-0.025,0.047-0.048,0.135-0.065,0.264c-0.085,0.636-0.231,1.22-0.439,1.753
		c-0.023,0.085-0.05,0.127-0.079,0.127c-0.023,0-0.068-0.023-0.137-0.07c-0.078-0.064-0.182-0.11-0.307-0.136
		c0.229-0.521,0.391-1.113,0.487-1.775c0.015-0.097,0.022-0.19,0.022-0.281c0-0.038-0.002-0.088-0.005-0.149
		c0.167,0.018,0.313,0.041,0.439,0.07C182.97-36.659,183.013-36.628,183.013-36.584z M185.522-34.993
		c0.003,0.012,0.005,0.023,0.005,0.035c0,0.044-0.037,0.078-0.11,0.101l-0.216,0.062c-0.047,0.015-0.08,0.022-0.101,0.022
		c-0.023,0-0.041-0.022-0.053-0.066c-0.12-0.656-0.276-1.232-0.47-1.727c-0.01-0.023-0.014-0.041-0.014-0.053
		c0-0.032,0.035-0.057,0.105-0.075l0.189-0.053c0.035-0.009,0.06-0.013,0.074-0.013c0.029,0,0.056,0.022,0.079,0.066
		C185.238-36.149,185.408-35.582,185.522-34.993z M189.6-40.148c-0.012,0.152-0.018,0.381-0.018,0.686
		c-0.018,1.863-0.114,3.318-0.29,4.364c-0.085,0.495-0.215,0.845-0.391,1.05c-0.174,0.202-0.418,0.305-0.734,0.308
		c-0.316,0-0.595-0.015-0.835-0.044c-0.094-0.009-0.151-0.025-0.171-0.048c-0.018-0.023-0.035-0.079-0.053-0.167
		c-0.027-0.141-0.075-0.275-0.146-0.404c0.504,0.082,0.894,0.123,1.169,0.123c0.19,0,0.338-0.108,0.443-0.325
		c0.074-0.152,0.137-0.382,0.189-0.69c0.167-0.976,0.25-2.448,0.25-4.417h-2.627c-0.209,0.404-0.461,0.794-0.756,1.169
		c-0.051,0.067-0.093,0.101-0.128,0.101c-0.029,0-0.073-0.031-0.132-0.092c-0.105-0.103-0.202-0.174-0.29-0.215
		c0.583-0.656,1.019-1.421,1.306-2.294c0.096-0.305,0.153-0.57,0.171-0.795c0.226,0.044,0.411,0.092,0.558,0.145
		c0.086,0.029,0.128,0.066,0.128,0.11c0,0.047-0.026,0.1-0.079,0.158c-0.085,0.085-0.161,0.23-0.229,0.435
		c-0.062,0.193-0.164,0.454-0.308,0.782h1.921l0.971-0.018C189.574-40.227,189.6-40.201,189.6-40.148z M187.737-36.575
		c0.015,0.026,0.022,0.045,0.022,0.057c0,0.023-0.031,0.053-0.093,0.088l-0.251,0.141c-0.061,0.038-0.101,0.057-0.118,0.057
		s-0.035-0.018-0.053-0.053c-0.255-0.577-0.618-1.151-1.09-1.723c-0.021-0.021-0.03-0.038-0.03-0.053c0-0.021,0.03-0.05,0.092-0.088
		l0.225-0.136c0.037-0.026,0.065-0.04,0.083-0.04c0.015,0,0.032,0.013,0.053,0.04C187.019-37.81,187.406-37.24,187.737-36.575z"/>
	<path fill="#003366" d="M195.81-41.453c0.277,0.179,0.471,0.322,0.58,0.431c0.041,0.044,0.061,0.083,0.061,0.119
		c0,0.047-0.029,0.086-0.088,0.119c-0.1,0.041-0.211,0.119-0.334,0.233c-1.242,1.14-2.127,1.992-2.654,2.558
		c-0.084,0.082-0.127,0.157-0.127,0.224c0,0.056,0.039,0.11,0.119,0.163c1.344,0.996,2.5,1.992,3.467,2.988
		c0.038,0.041,0.057,0.07,0.057,0.088c0,0.023-0.016,0.054-0.048,0.092c-0.085,0.1-0.198,0.212-0.339,0.338
		c-0.037,0.029-0.066,0.044-0.088,0.044c-0.025,0-0.054-0.021-0.083-0.062c-0.949-1.055-2.08-2.077-3.393-3.067
		c-0.234-0.182-0.352-0.371-0.352-0.567c0-0.17,0.105-0.365,0.316-0.584c0.302-0.322,0.739-0.771,1.313-1.345
		c0.707-0.715,1.105-1.119,1.195-1.213C195.578-41.068,195.71-41.254,195.81-41.453z"/>
	<path fill="#003366" d="M203.042-39.572c0.402-0.07,0.879-0.193,1.434-0.369c0.014-0.006,0.029-0.009,0.043-0.009
		c0.035,0,0.057,0.023,0.063,0.07c0.02,0.114,0.036,0.237,0.048,0.369c0,0.012,0,0.023,0,0.035c0,0.053-0.03,0.086-0.093,0.101
		c-0.604,0.164-1.146,0.287-1.63,0.369c-0.548,1.863-1.124,3.482-1.728,4.856c-0.02,0.047-0.045,0.07-0.074,0.07
		c-0.015,0-0.035-0.006-0.062-0.018c-0.12-0.044-0.261-0.11-0.422-0.198c-0.029-0.018-0.044-0.042-0.044-0.075
		c0-0.012,0.003-0.025,0.009-0.04c0.691-1.471,1.253-2.971,1.683-4.5c-0.586,0.064-1.191,0.101-1.818,0.11
		c-0.082,0-0.131-0.031-0.146-0.092c-0.029-0.217-0.053-0.381-0.07-0.492c0.114,0.012,0.304,0.018,0.567,0.018
		c0.504,0,1.044-0.037,1.621-0.11c0.108-0.413,0.196-0.791,0.264-1.134c0.05-0.281,0.074-0.517,0.074-0.708
		c0-0.05-0.002-0.095-0.008-0.136c0.271,0.047,0.514,0.116,0.725,0.207c0.047,0.018,0.07,0.05,0.07,0.097
		c0,0.038-0.023,0.086-0.07,0.145c-0.059,0.073-0.107,0.19-0.145,0.352c-0.039,0.126-0.092,0.321-0.158,0.584
		C203.119-39.849,203.076-39.684,203.042-39.572z M203.601-35.767c0.17-0.029,0.311-0.044,0.422-0.044
		c0.059,0,0.092,0.029,0.102,0.088c0.031,0.425,0.2,0.718,0.505,0.879c0.258,0.135,0.656,0.202,1.195,0.202
		c0.357,0,0.802-0.04,1.331-0.119c0.023-0.003,0.04-0.004,0.049-0.004c0.035,0,0.056,0.022,0.062,0.066
		c0.023,0.146,0.035,0.292,0.035,0.435c0,0.07-0.034,0.108-0.101,0.114c-0.373,0.062-0.766,0.092-1.178,0.092
		c-0.959,0-1.619-0.166-1.982-0.497C203.756-34.797,203.61-35.201,203.601-35.767z M204.278-37.656
		c-0.021-0.155-0.03-0.315-0.03-0.479c0-0.07,0.039-0.116,0.118-0.136c0.563-0.126,1.087-0.189,1.573-0.189
		c0.278,0,0.65,0.031,1.116,0.092c0.082,0.012,0.128,0.044,0.136,0.097c0.01,0.082,0.014,0.176,0.014,0.281
		c0,0.044-0.002,0.082-0.004,0.114c-0.006,0.082-0.031,0.123-0.075,0.123c-0.012,0-0.024-0.001-0.04-0.004
		c-0.406-0.067-0.792-0.101-1.155-0.101C205.435-37.858,204.884-37.791,204.278-37.656z M205.781-40.592l0.33-0.242
		c0.014-0.009,0.027-0.013,0.039-0.013c0.015,0,0.032,0.007,0.053,0.022c0.369,0.258,0.707,0.621,1.016,1.09
		c0.012,0.012,0.018,0.025,0.018,0.04c0,0.023-0.012,0.042-0.035,0.057l-0.26,0.215c-0.018,0.015-0.037,0.022-0.057,0.022
		c-0.023,0-0.045-0.013-0.063-0.04C206.544-39.912,206.197-40.296,205.781-40.592z M206.572-41.194l0.285-0.224
		c0.023-0.018,0.043-0.026,0.058-0.026s0.029,0.006,0.044,0.018c0.428,0.331,0.771,0.681,1.028,1.05
		c0.009,0.018,0.013,0.032,0.013,0.044c0,0.021-0.014,0.042-0.043,0.066l-0.242,0.215c-0.018,0.018-0.033,0.026-0.049,0.026
		c-0.02,0-0.041-0.015-0.061-0.044C207.341-40.5,206.997-40.875,206.572-41.194z"/>
	<path fill="#003366" d="M212.755-39.616c-0.133-0.328-0.27-0.68-0.414-1.055c-0.119-0.305-0.246-0.539-0.377-0.703
		c0.336-0.053,0.574-0.079,0.711-0.079c0.127,0,0.189,0.045,0.189,0.136l-0.004,0.101c0,0.053,0.004,0.097,0.013,0.132
		c0.023,0.173,0.077,0.374,0.163,0.602c0.088,0.246,0.186,0.498,0.294,0.756c0.835-0.193,1.493-0.385,1.974-0.576
		c0.02-0.006,0.037-0.009,0.053-0.009c0.031,0,0.057,0.019,0.074,0.057c0.047,0.105,0.085,0.237,0.114,0.396
		c0.003,0.015,0.005,0.026,0.005,0.035c0,0.041-0.017,0.067-0.049,0.079c-0.536,0.182-1.186,0.362-1.947,0.541
		c0.352,0.765,0.85,1.5,1.494,2.206c0.074,0.07,0.156,0.136,0.246,0.198c0.041,0.023,0.063,0.05,0.063,0.079
		c0,0.038-0.01,0.072-0.027,0.101c-0.061,0.103-0.139,0.221-0.232,0.356c-0.05,0.062-0.09,0.092-0.119,0.092
		c-0.018,0-0.054-0.018-0.109-0.053c-0.053-0.038-0.16-0.104-0.32-0.198c-0.627-0.325-1.309-0.488-2.044-0.488
		c-0.571,0-1.003,0.104-1.296,0.312c-0.252,0.176-0.379,0.422-0.379,0.738c0,0.431,0.271,0.749,0.813,0.954
		c0.422,0.158,0.961,0.237,1.617,0.237c0.492,0,0.925-0.037,1.296-0.11c-0.02,0.214-0.06,0.409-0.118,0.584
		c-0.018,0.047-0.056,0.078-0.114,0.092c-0.272,0.029-0.618,0.044-1.037,0.044c-0.946,0-1.693-0.158-2.241-0.475
		c-0.527-0.308-0.791-0.737-0.791-1.288c0-0.548,0.245-0.962,0.733-1.244c0.396-0.229,0.896-0.343,1.499-0.343
		c0.665,0,1.301,0.136,1.907,0.409c-0.539-0.583-1-1.28-1.385-2.092c-0.586,0.1-1.231,0.174-1.938,0.224
		c-0.293,0.021-0.506,0.031-0.637,0.031c-0.047,0-0.09-0.001-0.128-0.004c-0.044,0-0.079-0.035-0.105-0.105
		c-0.041-0.12-0.075-0.275-0.101-0.466c0.158,0.006,0.306,0.009,0.443,0.009c0.141,0,0.29-0.004,0.448-0.013
		C211.511-39.44,212.099-39.508,212.755-39.616z"/>
	<path fill="#003366" d="M218.679-40.464c0.27,0.029,0.506,0.092,0.711,0.189c0.053,0.026,0.08,0.06,0.08,0.101
		c0,0.023-0.012,0.078-0.035,0.163c-0.047,0.141-0.07,0.416-0.07,0.826c0,0.703,0.042,1.384,0.127,2.043
		c0.07,0.571,0.203,1.03,0.4,1.375c0.17,0.305,0.354,0.457,0.553,0.457c0.346,0,0.667-0.47,0.963-1.411
		c0.079,0.193,0.178,0.343,0.295,0.448c0.055,0.05,0.083,0.104,0.083,0.163c0,0.021-0.003,0.042-0.009,0.066
		c-0.149,0.428-0.346,0.771-0.589,1.028c-0.237,0.255-0.489,0.382-0.756,0.382c-0.393,0-0.732-0.262-1.02-0.787
		c-0.237-0.439-0.404-0.996-0.501-1.67c-0.108-0.771-0.162-1.607-0.162-2.509C218.75-39.941,218.726-40.23,218.679-40.464z
		 M223.289-39.339c0.161-0.108,0.293-0.189,0.396-0.242c0.029-0.015,0.056-0.022,0.079-0.022c0.021,0,0.038,0.007,0.053,0.022
		c0.935,0.817,1.521,1.856,1.758,3.116c0,0.009,0,0.016,0,0.022c0,0.038-0.021,0.07-0.066,0.097
		c-0.129,0.085-0.266,0.154-0.412,0.207c-0.012,0.003-0.023,0.004-0.035,0.004c-0.047,0-0.075-0.026-0.084-0.079
		C224.745-37.483,224.182-38.525,223.289-39.339z"/>
	<path fill="#003366" d="M228.126-36.035c0.373,0,0.686,0.138,0.941,0.413c0.219,0.237,0.329,0.517,0.329,0.839
		c0,0.369-0.141,0.678-0.422,0.927c-0.243,0.214-0.526,0.321-0.849,0.321c-0.371,0-0.686-0.138-0.939-0.413
		c-0.221-0.237-0.33-0.516-0.33-0.835c0-0.372,0.141-0.683,0.422-0.932C227.522-35.928,227.804-36.035,228.126-36.035z
		 M228.126-35.586c-0.236,0-0.436,0.088-0.598,0.264c-0.137,0.155-0.206,0.335-0.206,0.541c0,0.234,0.089,0.432,0.269,0.593
		c0.152,0.138,0.33,0.207,0.535,0.207c0.24,0,0.439-0.088,0.598-0.264c0.139-0.152,0.207-0.331,0.207-0.536
		c0-0.24-0.088-0.439-0.264-0.598C228.515-35.518,228.335-35.586,228.126-35.586z"/>
</g>
</svg>
